G04 #@! TF.GenerationSoftware,KiCad,Pcbnew,5.1.5+dfsg1-2build2*
G04 #@! TF.CreationDate,2020-07-25T19:40:00-04:00*
G04 #@! TF.ProjectId,lipo-charger,6c69706f-2d63-4686-9172-6765722e6b69,rev?*
G04 #@! TF.SameCoordinates,Original*
G04 #@! TF.FileFunction,Legend,Top*
G04 #@! TF.FilePolarity,Positive*
%FSLAX46Y46*%
G04 Gerber Fmt 4.6, Leading zero omitted, Abs format (unit mm)*
G04 Created by KiCad (PCBNEW 5.1.5+dfsg1-2build2) date 2020-07-25 19:40:00*
%MOMM*%
%LPD*%
G04 APERTURE LIST*
%ADD10C,0.150000*%
%ADD11C,0.120000*%
%ADD12C,0.100000*%
G04 APERTURE END LIST*
D10*
X114554047Y-71191428D02*
X115315952Y-71191428D01*
X114935000Y-71572380D02*
X114935000Y-70810476D01*
X110744047Y-71191428D02*
X111505952Y-71191428D01*
D11*
X110236000Y-83312000D02*
X110998000Y-83312000D01*
X110998000Y-82804000D02*
X110617000Y-83312000D01*
X110236000Y-82804000D02*
X110998000Y-82804000D01*
X110617000Y-83312000D02*
X110236000Y-82804000D01*
X110998000Y-89789000D02*
X110998000Y-90551000D01*
X110363000Y-90551000D02*
X110998000Y-90170000D01*
X110363000Y-89789000D02*
X110363000Y-90551000D01*
X110998000Y-90170000D02*
X110363000Y-89789000D01*
X132080000Y-78740000D02*
X132080000Y-79756000D01*
X131064000Y-79756000D02*
X132080000Y-79248000D01*
X131064000Y-78740000D02*
X131064000Y-79756000D01*
X132080000Y-79248000D02*
X131064000Y-78740000D01*
D10*
X131524761Y-94051428D02*
X132286666Y-94051428D01*
X133429523Y-93432380D02*
X134048571Y-93432380D01*
X133715238Y-93813333D01*
X133858095Y-93813333D01*
X133953333Y-93860952D01*
X134000952Y-93908571D01*
X134048571Y-94003809D01*
X134048571Y-94241904D01*
X134000952Y-94337142D01*
X133953333Y-94384761D01*
X133858095Y-94432380D01*
X133572380Y-94432380D01*
X133477142Y-94384761D01*
X133429523Y-94337142D01*
X134381904Y-93765714D02*
X134620000Y-94432380D01*
X134858095Y-93765714D01*
X135143809Y-93432380D02*
X135762857Y-93432380D01*
X135429523Y-93813333D01*
X135572380Y-93813333D01*
X135667619Y-93860952D01*
X135715238Y-93908571D01*
X135762857Y-94003809D01*
X135762857Y-94241904D01*
X135715238Y-94337142D01*
X135667619Y-94384761D01*
X135572380Y-94432380D01*
X135286666Y-94432380D01*
X135191428Y-94384761D01*
X135143809Y-94337142D01*
X136953333Y-94051428D02*
X137715238Y-94051428D01*
X137334285Y-94432380D02*
X137334285Y-93670476D01*
X138763809Y-94051428D02*
X139525714Y-94051428D01*
X140620952Y-93432380D02*
X140954285Y-94432380D01*
X141287619Y-93432380D01*
X141620952Y-94432380D02*
X141620952Y-93765714D01*
X141620952Y-93956190D02*
X141668571Y-93860952D01*
X141716190Y-93813333D01*
X141811428Y-93765714D01*
X141906666Y-93765714D01*
X142668571Y-94432380D02*
X142668571Y-93908571D01*
X142620952Y-93813333D01*
X142525714Y-93765714D01*
X142335238Y-93765714D01*
X142240000Y-93813333D01*
X142668571Y-94384761D02*
X142573333Y-94432380D01*
X142335238Y-94432380D01*
X142240000Y-94384761D01*
X142192380Y-94289523D01*
X142192380Y-94194285D01*
X142240000Y-94099047D01*
X142335238Y-94051428D01*
X142573333Y-94051428D01*
X142668571Y-94003809D01*
X143049523Y-93765714D02*
X143240000Y-94432380D01*
X143430476Y-93956190D01*
X143620952Y-94432380D01*
X143811428Y-93765714D01*
X144954285Y-94051428D02*
X145716190Y-94051428D01*
X145335238Y-94432380D02*
X145335238Y-93670476D01*
X152852380Y-85311904D02*
X151852380Y-85311904D01*
X151852380Y-84930952D01*
X151900000Y-84835714D01*
X151947619Y-84788095D01*
X152042857Y-84740476D01*
X152185714Y-84740476D01*
X152280952Y-84788095D01*
X152328571Y-84835714D01*
X152376190Y-84930952D01*
X152376190Y-85311904D01*
X151852380Y-84407142D02*
X152852380Y-84169047D01*
X152138095Y-83978571D01*
X152852380Y-83788095D01*
X151852380Y-83550000D01*
X152852380Y-82597619D02*
X152376190Y-82930952D01*
X152852380Y-83169047D02*
X151852380Y-83169047D01*
X151852380Y-82788095D01*
X151900000Y-82692857D01*
X151947619Y-82645238D01*
X152042857Y-82597619D01*
X152185714Y-82597619D01*
X152280952Y-82645238D01*
X152328571Y-82692857D01*
X152376190Y-82788095D01*
X152376190Y-83169047D01*
X152804761Y-81454761D02*
X152852380Y-81311904D01*
X152852380Y-81073809D01*
X152804761Y-80978571D01*
X152757142Y-80930952D01*
X152661904Y-80883333D01*
X152566666Y-80883333D01*
X152471428Y-80930952D01*
X152423809Y-80978571D01*
X152376190Y-81073809D01*
X152328571Y-81264285D01*
X152280952Y-81359523D01*
X152233333Y-81407142D01*
X152138095Y-81454761D01*
X152042857Y-81454761D01*
X151947619Y-81407142D01*
X151900000Y-81359523D01*
X151852380Y-81264285D01*
X151852380Y-81026190D01*
X151900000Y-80883333D01*
X151852380Y-80550000D02*
X152852380Y-80311904D01*
X152138095Y-80121428D01*
X152852380Y-79930952D01*
X151852380Y-79692857D01*
X124817619Y-71191428D02*
X125579523Y-71191428D01*
X127150952Y-71048571D02*
X127293809Y-71096190D01*
X127341428Y-71143809D01*
X127389047Y-71239047D01*
X127389047Y-71381904D01*
X127341428Y-71477142D01*
X127293809Y-71524761D01*
X127198571Y-71572380D01*
X126817619Y-71572380D01*
X126817619Y-70572380D01*
X127150952Y-70572380D01*
X127246190Y-70620000D01*
X127293809Y-70667619D01*
X127341428Y-70762857D01*
X127341428Y-70858095D01*
X127293809Y-70953333D01*
X127246190Y-71000952D01*
X127150952Y-71048571D01*
X126817619Y-71048571D01*
X127770000Y-71286666D02*
X128246190Y-71286666D01*
X127674761Y-71572380D02*
X128008095Y-70572380D01*
X128341428Y-71572380D01*
X128531904Y-70572380D02*
X129103333Y-70572380D01*
X128817619Y-71572380D02*
X128817619Y-70572380D01*
X129293809Y-70572380D02*
X129865238Y-70572380D01*
X129579523Y-71572380D02*
X129579523Y-70572380D01*
X130960476Y-71191428D02*
X131722380Y-71191428D01*
X131341428Y-71572380D02*
X131341428Y-70810476D01*
X117197619Y-71191428D02*
X117959523Y-71191428D01*
X119530952Y-71048571D02*
X119673809Y-71096190D01*
X119721428Y-71143809D01*
X119769047Y-71239047D01*
X119769047Y-71381904D01*
X119721428Y-71477142D01*
X119673809Y-71524761D01*
X119578571Y-71572380D01*
X119197619Y-71572380D01*
X119197619Y-70572380D01*
X119530952Y-70572380D01*
X119626190Y-70620000D01*
X119673809Y-70667619D01*
X119721428Y-70762857D01*
X119721428Y-70858095D01*
X119673809Y-70953333D01*
X119626190Y-71000952D01*
X119530952Y-71048571D01*
X119197619Y-71048571D01*
X120150000Y-71286666D02*
X120626190Y-71286666D01*
X120054761Y-71572380D02*
X120388095Y-70572380D01*
X120721428Y-71572380D01*
X120911904Y-70572380D02*
X121483333Y-70572380D01*
X121197619Y-71572380D02*
X121197619Y-70572380D01*
X121673809Y-70572380D02*
X122245238Y-70572380D01*
X121959523Y-71572380D02*
X121959523Y-70572380D01*
X123340476Y-71191428D02*
X124102380Y-71191428D01*
X123721428Y-71572380D02*
X123721428Y-70810476D01*
X110482380Y-75985714D02*
X110482380Y-76652380D01*
X110244285Y-75604761D02*
X110006190Y-76319047D01*
X110625238Y-76319047D01*
X111625238Y-75985714D02*
X112006190Y-75985714D01*
X111768095Y-75652380D02*
X111768095Y-76509523D01*
X111815714Y-76604761D01*
X111910952Y-76652380D01*
X112006190Y-76652380D01*
X112482380Y-76652380D02*
X112387142Y-76604761D01*
X112339523Y-76557142D01*
X112291904Y-76461904D01*
X112291904Y-76176190D01*
X112339523Y-76080952D01*
X112387142Y-76033333D01*
X112482380Y-75985714D01*
X112625238Y-75985714D01*
X112720476Y-76033333D01*
X112768095Y-76080952D01*
X112815714Y-76176190D01*
X112815714Y-76461904D01*
X112768095Y-76557142D01*
X112720476Y-76604761D01*
X112625238Y-76652380D01*
X112482380Y-76652380D01*
X114149047Y-76080952D02*
X114053809Y-76033333D01*
X114006190Y-75985714D01*
X113958571Y-75890476D01*
X113958571Y-75842857D01*
X114006190Y-75747619D01*
X114053809Y-75700000D01*
X114149047Y-75652380D01*
X114339523Y-75652380D01*
X114434761Y-75700000D01*
X114482380Y-75747619D01*
X114530000Y-75842857D01*
X114530000Y-75890476D01*
X114482380Y-75985714D01*
X114434761Y-76033333D01*
X114339523Y-76080952D01*
X114149047Y-76080952D01*
X114053809Y-76128571D01*
X114006190Y-76176190D01*
X113958571Y-76271428D01*
X113958571Y-76461904D01*
X114006190Y-76557142D01*
X114053809Y-76604761D01*
X114149047Y-76652380D01*
X114339523Y-76652380D01*
X114434761Y-76604761D01*
X114482380Y-76557142D01*
X114530000Y-76461904D01*
X114530000Y-76271428D01*
X114482380Y-76176190D01*
X114434761Y-76128571D01*
X114339523Y-76080952D01*
X115625238Y-75985714D02*
X115863333Y-76652380D01*
X116101428Y-75985714D01*
X114419285Y-93575142D02*
X114371666Y-93622761D01*
X114228809Y-93670380D01*
X114133571Y-93670380D01*
X113990714Y-93622761D01*
X113895476Y-93527523D01*
X113847857Y-93432285D01*
X113800238Y-93241809D01*
X113800238Y-93098952D01*
X113847857Y-92908476D01*
X113895476Y-92813238D01*
X113990714Y-92718000D01*
X114133571Y-92670380D01*
X114228809Y-92670380D01*
X114371666Y-92718000D01*
X114419285Y-92765619D01*
X114847857Y-93670380D02*
X114847857Y-92670380D01*
X115276428Y-93670380D02*
X115276428Y-93146571D01*
X115228809Y-93051333D01*
X115133571Y-93003714D01*
X114990714Y-93003714D01*
X114895476Y-93051333D01*
X114847857Y-93098952D01*
X116181190Y-93670380D02*
X116181190Y-93146571D01*
X116133571Y-93051333D01*
X116038333Y-93003714D01*
X115847857Y-93003714D01*
X115752619Y-93051333D01*
X116181190Y-93622761D02*
X116085952Y-93670380D01*
X115847857Y-93670380D01*
X115752619Y-93622761D01*
X115705000Y-93527523D01*
X115705000Y-93432285D01*
X115752619Y-93337047D01*
X115847857Y-93289428D01*
X116085952Y-93289428D01*
X116181190Y-93241809D01*
X116657380Y-93670380D02*
X116657380Y-93003714D01*
X116657380Y-93194190D02*
X116705000Y-93098952D01*
X116752619Y-93051333D01*
X116847857Y-93003714D01*
X116943095Y-93003714D01*
X117705000Y-93003714D02*
X117705000Y-93813238D01*
X117657380Y-93908476D01*
X117609761Y-93956095D01*
X117514523Y-94003714D01*
X117371666Y-94003714D01*
X117276428Y-93956095D01*
X117705000Y-93622761D02*
X117609761Y-93670380D01*
X117419285Y-93670380D01*
X117324047Y-93622761D01*
X117276428Y-93575142D01*
X117228809Y-93479904D01*
X117228809Y-93194190D01*
X117276428Y-93098952D01*
X117324047Y-93051333D01*
X117419285Y-93003714D01*
X117609761Y-93003714D01*
X117705000Y-93051333D01*
X118562142Y-93622761D02*
X118466904Y-93670380D01*
X118276428Y-93670380D01*
X118181190Y-93622761D01*
X118133571Y-93527523D01*
X118133571Y-93146571D01*
X118181190Y-93051333D01*
X118276428Y-93003714D01*
X118466904Y-93003714D01*
X118562142Y-93051333D01*
X118609761Y-93146571D01*
X118609761Y-93241809D01*
X118133571Y-93337047D01*
X116006666Y-87050571D02*
X115673333Y-87050571D01*
X115673333Y-87574380D02*
X115673333Y-86574380D01*
X116149523Y-86574380D01*
X116959047Y-86907714D02*
X116959047Y-87574380D01*
X116530476Y-86907714D02*
X116530476Y-87431523D01*
X116578095Y-87526761D01*
X116673333Y-87574380D01*
X116816190Y-87574380D01*
X116911428Y-87526761D01*
X116959047Y-87479142D01*
X117578095Y-87574380D02*
X117482857Y-87526761D01*
X117435238Y-87431523D01*
X117435238Y-86574380D01*
X118101904Y-87574380D02*
X118006666Y-87526761D01*
X117959047Y-87431523D01*
X117959047Y-86574380D01*
D11*
X123190000Y-88880000D02*
X121240000Y-88880000D01*
X123190000Y-88880000D02*
X125140000Y-88880000D01*
X123190000Y-94000000D02*
X121240000Y-94000000D01*
X123190000Y-94000000D02*
X126640000Y-94000000D01*
X109930000Y-78998578D02*
X109930000Y-78481422D01*
X108510000Y-78998578D02*
X108510000Y-78481422D01*
X142950000Y-84831422D02*
X142950000Y-85348578D01*
X141530000Y-84831422D02*
X141530000Y-85348578D01*
X124718578Y-79450000D02*
X124201422Y-79450000D01*
X124718578Y-78030000D02*
X124201422Y-78030000D01*
X145340000Y-84831422D02*
X145340000Y-85348578D01*
X146760000Y-84831422D02*
X146760000Y-85348578D01*
X115840000Y-89860000D02*
X118525000Y-89860000D01*
X118525000Y-89860000D02*
X118525000Y-87940000D01*
X118525000Y-87940000D02*
X115840000Y-87940000D01*
X118525000Y-90480000D02*
X115840000Y-90480000D01*
X118525000Y-92400000D02*
X118525000Y-90480000D01*
X115840000Y-92400000D02*
X118525000Y-92400000D01*
X110430000Y-72330000D02*
X110430000Y-74990000D01*
X113030000Y-72330000D02*
X110430000Y-72330000D01*
X113030000Y-74990000D02*
X110430000Y-74990000D01*
X113030000Y-72330000D02*
X113030000Y-74990000D01*
X114300000Y-72330000D02*
X115630000Y-72330000D01*
X115630000Y-72330000D02*
X115630000Y-73660000D01*
X105902500Y-78650000D02*
X105902500Y-79100000D01*
X104052500Y-78650000D02*
X105902500Y-78650000D01*
X101502500Y-86450000D02*
X101752500Y-86450000D01*
X101502500Y-78650000D02*
X101752500Y-78650000D01*
X104052500Y-86450000D02*
X105902500Y-86450000D01*
X105902500Y-86450000D02*
X105902500Y-86000000D01*
X106452500Y-80850000D02*
X106452500Y-81300000D01*
X106452500Y-80850000D02*
X106002500Y-80850000D01*
X123980000Y-76740000D02*
X123980000Y-72020000D01*
X123980000Y-72020000D02*
X117860000Y-72020000D01*
X117860000Y-72020000D02*
X117860000Y-76740000D01*
X117860000Y-76740000D02*
X123980000Y-76740000D01*
X122220000Y-76740000D02*
X122220000Y-76940000D01*
X122220000Y-76940000D02*
X122520000Y-76940000D01*
X122520000Y-76940000D02*
X122520000Y-76740000D01*
X122220000Y-76840000D02*
X122520000Y-76840000D01*
X121420000Y-76740000D02*
X121420000Y-76130000D01*
X121420000Y-76130000D02*
X123370000Y-76130000D01*
X123370000Y-76130000D02*
X123370000Y-72630000D01*
X123370000Y-72630000D02*
X118470000Y-72630000D01*
X118470000Y-72630000D02*
X118470000Y-76130000D01*
X118470000Y-76130000D02*
X120420000Y-76130000D01*
X120420000Y-76130000D02*
X120420000Y-76740000D01*
X123980000Y-75430000D02*
X123370000Y-75430000D01*
X123980000Y-74130000D02*
X123370000Y-74130000D01*
X117860000Y-75430000D02*
X118470000Y-75430000D01*
X117860000Y-74130000D02*
X118470000Y-74130000D01*
X121020000Y-72630000D02*
X121020000Y-73130000D01*
X121020000Y-73130000D02*
X120820000Y-73130000D01*
X120820000Y-73130000D02*
X120820000Y-72630000D01*
X120920000Y-72630000D02*
X120920000Y-73130000D01*
X123030000Y-77040000D02*
X124280000Y-77040000D01*
X124280000Y-77040000D02*
X124280000Y-75790000D01*
X130870000Y-72330000D02*
X130870000Y-73660000D01*
X129540000Y-72330000D02*
X130870000Y-72330000D01*
X128270000Y-72330000D02*
X128270000Y-74990000D01*
X128270000Y-74990000D02*
X125670000Y-74990000D01*
X128270000Y-72330000D02*
X125670000Y-72330000D01*
X125670000Y-72330000D02*
X125670000Y-74990000D01*
X132020000Y-90110000D02*
X132020000Y-92770000D01*
X134620000Y-90110000D02*
X132020000Y-90110000D01*
X134620000Y-92770000D02*
X132020000Y-92770000D01*
X134620000Y-90110000D02*
X134620000Y-92770000D01*
X135890000Y-90110000D02*
X137220000Y-90110000D01*
X137220000Y-90110000D02*
X137220000Y-91440000D01*
X144840000Y-90110000D02*
X144840000Y-91440000D01*
X143510000Y-90110000D02*
X144840000Y-90110000D01*
X142240000Y-90110000D02*
X142240000Y-92770000D01*
X142240000Y-92770000D02*
X139640000Y-92770000D01*
X142240000Y-90110000D02*
X139640000Y-90110000D01*
X139640000Y-90110000D02*
X139640000Y-92770000D01*
X148530000Y-85150000D02*
X151190000Y-85150000D01*
X148530000Y-82550000D02*
X148530000Y-85150000D01*
X151190000Y-82550000D02*
X151190000Y-85150000D01*
X148530000Y-82550000D02*
X151190000Y-82550000D01*
X148530000Y-81280000D02*
X148530000Y-79950000D01*
X148530000Y-79950000D02*
X149860000Y-79950000D01*
X112771422Y-90730000D02*
X113288578Y-90730000D01*
X112771422Y-92150000D02*
X113288578Y-92150000D01*
X129281422Y-91365000D02*
X129798578Y-91365000D01*
X129281422Y-92785000D02*
X129798578Y-92785000D01*
X121210000Y-82291422D02*
X121210000Y-82808578D01*
X122630000Y-82291422D02*
X122630000Y-82808578D01*
X129281422Y-88975000D02*
X129798578Y-88975000D01*
X129281422Y-87555000D02*
X129798578Y-87555000D01*
X128528578Y-79450000D02*
X128011422Y-79450000D01*
X128528578Y-78030000D02*
X128011422Y-78030000D01*
D12*
X140910000Y-71350000D02*
X141410000Y-71350000D01*
X140910000Y-71350000D02*
X140910000Y-71700000D01*
X140910000Y-81050000D02*
X140910000Y-80700000D01*
X140910000Y-81050000D02*
X141410000Y-81050000D01*
X146110000Y-81050000D02*
X145610000Y-81050000D01*
X146110000Y-81050000D02*
X146110000Y-80700000D01*
X146110000Y-71350000D02*
X145610000Y-71350000D01*
X146110000Y-71350000D02*
X146110000Y-71700000D01*
D11*
X126100000Y-85430000D02*
X127900000Y-85430000D01*
X127900000Y-82210000D02*
X125450000Y-82210000D01*
D10*
X116485000Y-84875000D02*
X116585000Y-84875000D01*
X116485000Y-80225000D02*
X116685000Y-80225000D01*
X119735000Y-80225000D02*
X119535000Y-80225000D01*
X119735000Y-84875000D02*
X119535000Y-84875000D01*
X116485000Y-84875000D02*
X116485000Y-80225000D01*
X119735000Y-84875000D02*
X119735000Y-80225000D01*
X116585000Y-84875000D02*
X116585000Y-86225000D01*
D11*
X112771422Y-88190000D02*
X113288578Y-88190000D01*
X112771422Y-89610000D02*
X113288578Y-89610000D01*
X114530000Y-85850000D02*
X114530000Y-80150000D01*
X111530000Y-85850000D02*
X114530000Y-85850000D01*
X111530000Y-80150000D02*
X111530000Y-85850000D01*
X133490000Y-80240000D02*
X139190000Y-80240000D01*
X139190000Y-80240000D02*
X139190000Y-77240000D01*
X139190000Y-77240000D02*
X133490000Y-77240000D01*
X135890000Y-76220000D02*
X137840000Y-76220000D01*
X135890000Y-76220000D02*
X133940000Y-76220000D01*
X135890000Y-71100000D02*
X137840000Y-71100000D01*
X135890000Y-71100000D02*
X132440000Y-71100000D01*
X134157800Y-81527600D02*
X134157800Y-82787600D01*
X134157800Y-88347600D02*
X134157800Y-87087600D01*
X137917800Y-81527600D02*
X134157800Y-81527600D01*
X140167800Y-88347600D02*
X134157800Y-88347600D01*
D10*
X119761095Y-87590380D02*
X119761095Y-88399904D01*
X119808714Y-88495142D01*
X119856333Y-88542761D01*
X119951571Y-88590380D01*
X120142047Y-88590380D01*
X120237285Y-88542761D01*
X120284904Y-88495142D01*
X120332523Y-88399904D01*
X120332523Y-87590380D01*
X121332523Y-88590380D02*
X120761095Y-88590380D01*
X121046809Y-88590380D02*
X121046809Y-87590380D01*
X120951571Y-87733238D01*
X120856333Y-87828476D01*
X120761095Y-87876095D01*
X107927142Y-78906666D02*
X107974761Y-78954285D01*
X108022380Y-79097142D01*
X108022380Y-79192380D01*
X107974761Y-79335238D01*
X107879523Y-79430476D01*
X107784285Y-79478095D01*
X107593809Y-79525714D01*
X107450952Y-79525714D01*
X107260476Y-79478095D01*
X107165238Y-79430476D01*
X107070000Y-79335238D01*
X107022380Y-79192380D01*
X107022380Y-79097142D01*
X107070000Y-78954285D01*
X107117619Y-78906666D01*
X108022380Y-77954285D02*
X108022380Y-78525714D01*
X108022380Y-78240000D02*
X107022380Y-78240000D01*
X107165238Y-78335238D01*
X107260476Y-78430476D01*
X107308095Y-78525714D01*
X142597142Y-82716666D02*
X142644761Y-82764285D01*
X142692380Y-82907142D01*
X142692380Y-83002380D01*
X142644761Y-83145238D01*
X142549523Y-83240476D01*
X142454285Y-83288095D01*
X142263809Y-83335714D01*
X142120952Y-83335714D01*
X141930476Y-83288095D01*
X141835238Y-83240476D01*
X141740000Y-83145238D01*
X141692380Y-83002380D01*
X141692380Y-82907142D01*
X141740000Y-82764285D01*
X141787619Y-82716666D01*
X141787619Y-82335714D02*
X141740000Y-82288095D01*
X141692380Y-82192857D01*
X141692380Y-81954761D01*
X141740000Y-81859523D01*
X141787619Y-81811904D01*
X141882857Y-81764285D01*
X141978095Y-81764285D01*
X142120952Y-81811904D01*
X142692380Y-82383333D01*
X142692380Y-81764285D01*
X124293333Y-80747142D02*
X124245714Y-80794761D01*
X124102857Y-80842380D01*
X124007619Y-80842380D01*
X123864761Y-80794761D01*
X123769523Y-80699523D01*
X123721904Y-80604285D01*
X123674285Y-80413809D01*
X123674285Y-80270952D01*
X123721904Y-80080476D01*
X123769523Y-79985238D01*
X123864761Y-79890000D01*
X124007619Y-79842380D01*
X124102857Y-79842380D01*
X124245714Y-79890000D01*
X124293333Y-79937619D01*
X124626666Y-79842380D02*
X125245714Y-79842380D01*
X124912380Y-80223333D01*
X125055238Y-80223333D01*
X125150476Y-80270952D01*
X125198095Y-80318571D01*
X125245714Y-80413809D01*
X125245714Y-80651904D01*
X125198095Y-80747142D01*
X125150476Y-80794761D01*
X125055238Y-80842380D01*
X124769523Y-80842380D01*
X124674285Y-80794761D01*
X124626666Y-80747142D01*
X146381742Y-82615066D02*
X146429361Y-82662685D01*
X146476980Y-82805542D01*
X146476980Y-82900780D01*
X146429361Y-83043638D01*
X146334123Y-83138876D01*
X146238885Y-83186495D01*
X146048409Y-83234114D01*
X145905552Y-83234114D01*
X145715076Y-83186495D01*
X145619838Y-83138876D01*
X145524600Y-83043638D01*
X145476980Y-82900780D01*
X145476980Y-82805542D01*
X145524600Y-82662685D01*
X145572219Y-82615066D01*
X145810314Y-81757923D02*
X146476980Y-81757923D01*
X145429361Y-81996019D02*
X146143647Y-82234114D01*
X146143647Y-81615066D01*
X111402904Y-87701380D02*
X111402904Y-86701380D01*
X111641000Y-86701380D01*
X111783857Y-86749000D01*
X111879095Y-86844238D01*
X111926714Y-86939476D01*
X111974333Y-87129952D01*
X111974333Y-87272809D01*
X111926714Y-87463285D01*
X111879095Y-87558523D01*
X111783857Y-87653761D01*
X111641000Y-87701380D01*
X111402904Y-87701380D01*
X112355285Y-86796619D02*
X112402904Y-86749000D01*
X112498142Y-86701380D01*
X112736238Y-86701380D01*
X112831476Y-86749000D01*
X112879095Y-86796619D01*
X112926714Y-86891857D01*
X112926714Y-86987095D01*
X112879095Y-87129952D01*
X112307666Y-87701380D01*
X112926714Y-87701380D01*
X111021904Y-93670380D02*
X111021904Y-92670380D01*
X111260000Y-92670380D01*
X111402857Y-92718000D01*
X111498095Y-92813238D01*
X111545714Y-92908476D01*
X111593333Y-93098952D01*
X111593333Y-93241809D01*
X111545714Y-93432285D01*
X111498095Y-93527523D01*
X111402857Y-93622761D01*
X111260000Y-93670380D01*
X111021904Y-93670380D01*
X111926666Y-92670380D02*
X112545714Y-92670380D01*
X112212380Y-93051333D01*
X112355238Y-93051333D01*
X112450476Y-93098952D01*
X112498095Y-93146571D01*
X112545714Y-93241809D01*
X112545714Y-93479904D01*
X112498095Y-93575142D01*
X112450476Y-93622761D01*
X112355238Y-93670380D01*
X112069523Y-93670380D01*
X111974285Y-93622761D01*
X111926666Y-93575142D01*
X112696666Y-70572380D02*
X112696666Y-71286666D01*
X112649047Y-71429523D01*
X112553809Y-71524761D01*
X112410952Y-71572380D01*
X112315714Y-71572380D01*
X113696666Y-71572380D02*
X113125238Y-71572380D01*
X113410952Y-71572380D02*
X113410952Y-70572380D01*
X113315714Y-70715238D01*
X113220476Y-70810476D01*
X113125238Y-70858095D01*
X107021380Y-85931333D02*
X107735666Y-85931333D01*
X107878523Y-85978952D01*
X107973761Y-86074190D01*
X108021380Y-86217047D01*
X108021380Y-86312285D01*
X107116619Y-85502761D02*
X107069000Y-85455142D01*
X107021380Y-85359904D01*
X107021380Y-85121809D01*
X107069000Y-85026571D01*
X107116619Y-84978952D01*
X107211857Y-84931333D01*
X107307095Y-84931333D01*
X107449952Y-84978952D01*
X108021380Y-85550380D01*
X108021380Y-84931333D01*
X120586666Y-77282380D02*
X120586666Y-77996666D01*
X120539047Y-78139523D01*
X120443809Y-78234761D01*
X120300952Y-78282380D01*
X120205714Y-78282380D01*
X120967619Y-77282380D02*
X121586666Y-77282380D01*
X121253333Y-77663333D01*
X121396190Y-77663333D01*
X121491428Y-77710952D01*
X121539047Y-77758571D01*
X121586666Y-77853809D01*
X121586666Y-78091904D01*
X121539047Y-78187142D01*
X121491428Y-78234761D01*
X121396190Y-78282380D01*
X121110476Y-78282380D01*
X121015238Y-78234761D01*
X120967619Y-78187142D01*
X127682666Y-75906380D02*
X127682666Y-76620666D01*
X127635047Y-76763523D01*
X127539809Y-76858761D01*
X127396952Y-76906380D01*
X127301714Y-76906380D01*
X128587428Y-76239714D02*
X128587428Y-76906380D01*
X128349333Y-75858761D02*
X128111238Y-76573047D01*
X128730285Y-76573047D01*
X129206666Y-93432380D02*
X129206666Y-94146666D01*
X129159047Y-94289523D01*
X129063809Y-94384761D01*
X128920952Y-94432380D01*
X128825714Y-94432380D01*
X130159047Y-93432380D02*
X129682857Y-93432380D01*
X129635238Y-93908571D01*
X129682857Y-93860952D01*
X129778095Y-93813333D01*
X130016190Y-93813333D01*
X130111428Y-93860952D01*
X130159047Y-93908571D01*
X130206666Y-94003809D01*
X130206666Y-94241904D01*
X130159047Y-94337142D01*
X130111428Y-94384761D01*
X130016190Y-94432380D01*
X129778095Y-94432380D01*
X129682857Y-94384761D01*
X129635238Y-94337142D01*
X143176666Y-88352380D02*
X143176666Y-89066666D01*
X143129047Y-89209523D01*
X143033809Y-89304761D01*
X142890952Y-89352380D01*
X142795714Y-89352380D01*
X144081428Y-88352380D02*
X143890952Y-88352380D01*
X143795714Y-88400000D01*
X143748095Y-88447619D01*
X143652857Y-88590476D01*
X143605238Y-88780952D01*
X143605238Y-89161904D01*
X143652857Y-89257142D01*
X143700476Y-89304761D01*
X143795714Y-89352380D01*
X143986190Y-89352380D01*
X144081428Y-89304761D01*
X144129047Y-89257142D01*
X144176666Y-89161904D01*
X144176666Y-88923809D01*
X144129047Y-88828571D01*
X144081428Y-88780952D01*
X143986190Y-88733333D01*
X143795714Y-88733333D01*
X143700476Y-88780952D01*
X143652857Y-88828571D01*
X143605238Y-88923809D01*
X149026666Y-78402380D02*
X149026666Y-79116666D01*
X148979047Y-79259523D01*
X148883809Y-79354761D01*
X148740952Y-79402380D01*
X148645714Y-79402380D01*
X149502857Y-79402380D02*
X149502857Y-78402380D01*
X149883809Y-78402380D01*
X149979047Y-78450000D01*
X150026666Y-78497619D01*
X150074285Y-78592857D01*
X150074285Y-78735714D01*
X150026666Y-78830952D01*
X149979047Y-78878571D01*
X149883809Y-78926190D01*
X149502857Y-78926190D01*
X151026666Y-79402380D02*
X150455238Y-79402380D01*
X150740952Y-79402380D02*
X150740952Y-78402380D01*
X150645714Y-78545238D01*
X150550476Y-78640476D01*
X150455238Y-78688095D01*
X109561333Y-93670380D02*
X109228000Y-93194190D01*
X108989904Y-93670380D02*
X108989904Y-92670380D01*
X109370857Y-92670380D01*
X109466095Y-92718000D01*
X109513714Y-92765619D01*
X109561333Y-92860857D01*
X109561333Y-93003714D01*
X109513714Y-93098952D01*
X109466095Y-93146571D01*
X109370857Y-93194190D01*
X108989904Y-93194190D01*
X110513714Y-93670380D02*
X109942285Y-93670380D01*
X110228000Y-93670380D02*
X110228000Y-92670380D01*
X110132761Y-92813238D01*
X110037523Y-92908476D01*
X109942285Y-92956095D01*
X129373333Y-90877380D02*
X129040000Y-90401190D01*
X128801904Y-90877380D02*
X128801904Y-89877380D01*
X129182857Y-89877380D01*
X129278095Y-89925000D01*
X129325714Y-89972619D01*
X129373333Y-90067857D01*
X129373333Y-90210714D01*
X129325714Y-90305952D01*
X129278095Y-90353571D01*
X129182857Y-90401190D01*
X128801904Y-90401190D01*
X129706666Y-89877380D02*
X130325714Y-89877380D01*
X129992380Y-90258333D01*
X130135238Y-90258333D01*
X130230476Y-90305952D01*
X130278095Y-90353571D01*
X130325714Y-90448809D01*
X130325714Y-90686904D01*
X130278095Y-90782142D01*
X130230476Y-90829761D01*
X130135238Y-90877380D01*
X129849523Y-90877380D01*
X129754285Y-90829761D01*
X129706666Y-90782142D01*
X124022380Y-82716666D02*
X123546190Y-83050000D01*
X124022380Y-83288095D02*
X123022380Y-83288095D01*
X123022380Y-82907142D01*
X123070000Y-82811904D01*
X123117619Y-82764285D01*
X123212857Y-82716666D01*
X123355714Y-82716666D01*
X123450952Y-82764285D01*
X123498571Y-82811904D01*
X123546190Y-82907142D01*
X123546190Y-83288095D01*
X123355714Y-81859523D02*
X124022380Y-81859523D01*
X122974761Y-82097619D02*
X123689047Y-82335714D01*
X123689047Y-81716666D01*
X129373333Y-87067380D02*
X129040000Y-86591190D01*
X128801904Y-87067380D02*
X128801904Y-86067380D01*
X129182857Y-86067380D01*
X129278095Y-86115000D01*
X129325714Y-86162619D01*
X129373333Y-86257857D01*
X129373333Y-86400714D01*
X129325714Y-86495952D01*
X129278095Y-86543571D01*
X129182857Y-86591190D01*
X128801904Y-86591190D01*
X130278095Y-86067380D02*
X129801904Y-86067380D01*
X129754285Y-86543571D01*
X129801904Y-86495952D01*
X129897142Y-86448333D01*
X130135238Y-86448333D01*
X130230476Y-86495952D01*
X130278095Y-86543571D01*
X130325714Y-86638809D01*
X130325714Y-86876904D01*
X130278095Y-86972142D01*
X130230476Y-87019761D01*
X130135238Y-87067380D01*
X129897142Y-87067380D01*
X129801904Y-87019761D01*
X129754285Y-86972142D01*
X128103333Y-80842380D02*
X127770000Y-80366190D01*
X127531904Y-80842380D02*
X127531904Y-79842380D01*
X127912857Y-79842380D01*
X128008095Y-79890000D01*
X128055714Y-79937619D01*
X128103333Y-80032857D01*
X128103333Y-80175714D01*
X128055714Y-80270952D01*
X128008095Y-80318571D01*
X127912857Y-80366190D01*
X127531904Y-80366190D01*
X128960476Y-79842380D02*
X128770000Y-79842380D01*
X128674761Y-79890000D01*
X128627142Y-79937619D01*
X128531904Y-80080476D01*
X128484285Y-80270952D01*
X128484285Y-80651904D01*
X128531904Y-80747142D01*
X128579523Y-80794761D01*
X128674761Y-80842380D01*
X128865238Y-80842380D01*
X128960476Y-80794761D01*
X129008095Y-80747142D01*
X129055714Y-80651904D01*
X129055714Y-80413809D01*
X129008095Y-80318571D01*
X128960476Y-80270952D01*
X128865238Y-80223333D01*
X128674761Y-80223333D01*
X128579523Y-80270952D01*
X128531904Y-80318571D01*
X128484285Y-80413809D01*
X124968095Y-85939380D02*
X124968095Y-86748904D01*
X125015714Y-86844142D01*
X125063333Y-86891761D01*
X125158571Y-86939380D01*
X125349047Y-86939380D01*
X125444285Y-86891761D01*
X125491904Y-86844142D01*
X125539523Y-86748904D01*
X125539523Y-85939380D01*
X125920476Y-85939380D02*
X126539523Y-85939380D01*
X126206190Y-86320333D01*
X126349047Y-86320333D01*
X126444285Y-86367952D01*
X126491904Y-86415571D01*
X126539523Y-86510809D01*
X126539523Y-86748904D01*
X126491904Y-86844142D01*
X126444285Y-86891761D01*
X126349047Y-86939380D01*
X126063333Y-86939380D01*
X125968095Y-86891761D01*
X125920476Y-86844142D01*
X115012380Y-83311904D02*
X115821904Y-83311904D01*
X115917142Y-83264285D01*
X115964761Y-83216666D01*
X116012380Y-83121428D01*
X116012380Y-82930952D01*
X115964761Y-82835714D01*
X115917142Y-82788095D01*
X115821904Y-82740476D01*
X115012380Y-82740476D01*
X115345714Y-81835714D02*
X116012380Y-81835714D01*
X114964761Y-82073809D02*
X115679047Y-82311904D01*
X115679047Y-81692857D01*
X109815333Y-87701380D02*
X109482000Y-87225190D01*
X109243904Y-87701380D02*
X109243904Y-86701380D01*
X109624857Y-86701380D01*
X109720095Y-86749000D01*
X109767714Y-86796619D01*
X109815333Y-86891857D01*
X109815333Y-87034714D01*
X109767714Y-87129952D01*
X109720095Y-87177571D01*
X109624857Y-87225190D01*
X109243904Y-87225190D01*
X110196285Y-86796619D02*
X110243904Y-86749000D01*
X110339142Y-86701380D01*
X110577238Y-86701380D01*
X110672476Y-86749000D01*
X110720095Y-86796619D01*
X110767714Y-86891857D01*
X110767714Y-86987095D01*
X110720095Y-87129952D01*
X110148666Y-87701380D01*
X110767714Y-87701380D01*
X111069380Y-85828095D02*
X110069380Y-85828095D01*
X110069380Y-85590000D01*
X110117000Y-85447142D01*
X110212238Y-85351904D01*
X110307476Y-85304285D01*
X110497952Y-85256666D01*
X110640809Y-85256666D01*
X110831285Y-85304285D01*
X110926523Y-85351904D01*
X111021761Y-85447142D01*
X111069380Y-85590000D01*
X111069380Y-85828095D01*
X111069380Y-84304285D02*
X111069380Y-84875714D01*
X111069380Y-84590000D02*
X110069380Y-84590000D01*
X110212238Y-84685238D01*
X110307476Y-84780476D01*
X110355095Y-84875714D01*
X130325904Y-78430380D02*
X130325904Y-77430380D01*
X130564000Y-77430380D01*
X130706857Y-77478000D01*
X130802095Y-77573238D01*
X130849714Y-77668476D01*
X130897333Y-77858952D01*
X130897333Y-78001809D01*
X130849714Y-78192285D01*
X130802095Y-78287523D01*
X130706857Y-78382761D01*
X130564000Y-78430380D01*
X130325904Y-78430380D01*
X131754476Y-77763714D02*
X131754476Y-78430380D01*
X131516380Y-77382761D02*
X131278285Y-78097047D01*
X131897333Y-78097047D01*
X140874761Y-71540619D02*
X140779523Y-71493000D01*
X140684285Y-71397761D01*
X140541428Y-71254904D01*
X140446190Y-71207285D01*
X140350952Y-71207285D01*
X140398571Y-71445380D02*
X140303333Y-71397761D01*
X140208095Y-71302523D01*
X140160476Y-71112047D01*
X140160476Y-70778714D01*
X140208095Y-70588238D01*
X140303333Y-70493000D01*
X140398571Y-70445380D01*
X140589047Y-70445380D01*
X140684285Y-70493000D01*
X140779523Y-70588238D01*
X140827142Y-70778714D01*
X140827142Y-71112047D01*
X140779523Y-71302523D01*
X140684285Y-71397761D01*
X140589047Y-71445380D01*
X140398571Y-71445380D01*
X141779523Y-71445380D02*
X141208095Y-71445380D01*
X141493809Y-71445380D02*
X141493809Y-70445380D01*
X141398571Y-70588238D01*
X141303333Y-70683476D01*
X141208095Y-70731095D01*
X135305895Y-88889980D02*
X135305895Y-89699504D01*
X135353514Y-89794742D01*
X135401133Y-89842361D01*
X135496371Y-89889980D01*
X135686847Y-89889980D01*
X135782085Y-89842361D01*
X135829704Y-89794742D01*
X135877323Y-89699504D01*
X135877323Y-88889980D01*
X136305895Y-88985219D02*
X136353514Y-88937600D01*
X136448752Y-88889980D01*
X136686847Y-88889980D01*
X136782085Y-88937600D01*
X136829704Y-88985219D01*
X136877323Y-89080457D01*
X136877323Y-89175695D01*
X136829704Y-89318552D01*
X136258276Y-89889980D01*
X136877323Y-89889980D01*
M02*
