M48
; DRILL file {KiCad 5.1.5+dfsg1-2build2} date Sat 25 Jul 2020 07:40:16 PM EDT
; FORMAT={-:-/ absolute / metric / decimal}
; #@! TF.CreationDate,2020-07-25T19:40:16-04:00
; #@! TF.GenerationSoftware,Kicad,Pcbnew,5.1.5+dfsg1-2build2
FMAT,2
METRIC
T1C0.399
T2C0.400
T3C0.600
T4C0.750
T5C0.850
T6C1.000
T7C3.200
%
G90
G05
T1
X118.364Y-87.122
X120.396Y-83.566
X124.206Y-92.964
X127.508Y-90.678
X130.429Y-90.297
X141.224Y-87.376
X146.05Y-87.63
T2
X107.442Y-77.978
T4
X119.92Y-74.93
X121.92Y-74.93
T5
X105.602Y-80.05
X105.602Y-85.05
T6
X127.0Y-73.66
X129.54Y-73.66
X149.86Y-81.28
X149.86Y-83.82
X133.35Y-91.44
X135.89Y-91.44
X140.97Y-91.44
X143.51Y-91.44
X111.76Y-73.66
X114.3Y-73.66
X143.51Y-73.66
X143.51Y-76.2
X143.51Y-78.74
T7
X149.86Y-73.66
X149.86Y-91.44
X105.41Y-91.44
X105.41Y-73.66
T3
G00X102.552Y-79.05
M15
G01X103.252Y-79.05
M16
G05
G00X103.252Y-86.05
M15
G01X102.552Y-86.05
M16
G05
T0
M30
