G04 #@! TF.GenerationSoftware,KiCad,Pcbnew,5.1.5+dfsg1-2build2*
G04 #@! TF.CreationDate,2020-07-25T19:40:00-04:00*
G04 #@! TF.ProjectId,lipo-charger,6c69706f-2d63-4686-9172-6765722e6b69,rev?*
G04 #@! TF.SameCoordinates,Original*
G04 #@! TF.FileFunction,Soldermask,Bot*
G04 #@! TF.FilePolarity,Negative*
%FSLAX46Y46*%
G04 Gerber Fmt 4.6, Leading zero omitted, Abs format (unit mm)*
G04 Created by KiCad (PCBNEW 5.1.5+dfsg1-2build2) date 2020-07-25 19:40:00*
%MOMM*%
%LPD*%
G04 APERTURE LIST*
%ADD10C,0.100000*%
G04 APERTURE END LIST*
D10*
G36*
X105785256Y-89831298D02*
G01*
X105891579Y-89852447D01*
X106192042Y-89976903D01*
X106462451Y-90157585D01*
X106692415Y-90387549D01*
X106873097Y-90657958D01*
X106959125Y-90865647D01*
X106997553Y-90958422D01*
X107061000Y-91277389D01*
X107061000Y-91602611D01*
X107018702Y-91815256D01*
X106997553Y-91921579D01*
X106873097Y-92222042D01*
X106692415Y-92492451D01*
X106462451Y-92722415D01*
X106192042Y-92903097D01*
X105891579Y-93027553D01*
X105785256Y-93048702D01*
X105572611Y-93091000D01*
X105247389Y-93091000D01*
X105034744Y-93048702D01*
X104928421Y-93027553D01*
X104627958Y-92903097D01*
X104357549Y-92722415D01*
X104127585Y-92492451D01*
X103946903Y-92222042D01*
X103822447Y-91921579D01*
X103801298Y-91815256D01*
X103759000Y-91602611D01*
X103759000Y-91277389D01*
X103822447Y-90958422D01*
X103860876Y-90865647D01*
X103946903Y-90657958D01*
X104127585Y-90387549D01*
X104357549Y-90157585D01*
X104627958Y-89976903D01*
X104928421Y-89852447D01*
X105034744Y-89831298D01*
X105247389Y-89789000D01*
X105572611Y-89789000D01*
X105785256Y-89831298D01*
G37*
G36*
X150235256Y-89831298D02*
G01*
X150341579Y-89852447D01*
X150642042Y-89976903D01*
X150912451Y-90157585D01*
X151142415Y-90387549D01*
X151323097Y-90657958D01*
X151409125Y-90865647D01*
X151447553Y-90958422D01*
X151511000Y-91277389D01*
X151511000Y-91602611D01*
X151468702Y-91815256D01*
X151447553Y-91921579D01*
X151323097Y-92222042D01*
X151142415Y-92492451D01*
X150912451Y-92722415D01*
X150642042Y-92903097D01*
X150341579Y-93027553D01*
X150235256Y-93048702D01*
X150022611Y-93091000D01*
X149697389Y-93091000D01*
X149484744Y-93048702D01*
X149378421Y-93027553D01*
X149077958Y-92903097D01*
X148807549Y-92722415D01*
X148577585Y-92492451D01*
X148396903Y-92222042D01*
X148272447Y-91921579D01*
X148251298Y-91815256D01*
X148209000Y-91602611D01*
X148209000Y-91277389D01*
X148272447Y-90958422D01*
X148310876Y-90865647D01*
X148396903Y-90657958D01*
X148577585Y-90387549D01*
X148807549Y-90157585D01*
X149077958Y-89976903D01*
X149378421Y-89852447D01*
X149484744Y-89831298D01*
X149697389Y-89789000D01*
X150022611Y-89789000D01*
X150235256Y-89831298D01*
G37*
G36*
X136791000Y-92341000D02*
G01*
X134989000Y-92341000D01*
X134989000Y-90539000D01*
X136791000Y-90539000D01*
X136791000Y-92341000D01*
G37*
G36*
X144411000Y-92341000D02*
G01*
X142609000Y-92341000D01*
X142609000Y-90539000D01*
X144411000Y-90539000D01*
X144411000Y-92341000D01*
G37*
G36*
X133463512Y-90543927D02*
G01*
X133612812Y-90573624D01*
X133776784Y-90641544D01*
X133924354Y-90740147D01*
X134049853Y-90865646D01*
X134148456Y-91013216D01*
X134216376Y-91177188D01*
X134251000Y-91351259D01*
X134251000Y-91528741D01*
X134216376Y-91702812D01*
X134148456Y-91866784D01*
X134049853Y-92014354D01*
X133924354Y-92139853D01*
X133776784Y-92238456D01*
X133612812Y-92306376D01*
X133463512Y-92336073D01*
X133438742Y-92341000D01*
X133261258Y-92341000D01*
X133236488Y-92336073D01*
X133087188Y-92306376D01*
X132923216Y-92238456D01*
X132775646Y-92139853D01*
X132650147Y-92014354D01*
X132551544Y-91866784D01*
X132483624Y-91702812D01*
X132449000Y-91528741D01*
X132449000Y-91351259D01*
X132483624Y-91177188D01*
X132551544Y-91013216D01*
X132650147Y-90865646D01*
X132775646Y-90740147D01*
X132923216Y-90641544D01*
X133087188Y-90573624D01*
X133236488Y-90543927D01*
X133261258Y-90539000D01*
X133438742Y-90539000D01*
X133463512Y-90543927D01*
G37*
G36*
X141083512Y-90543927D02*
G01*
X141232812Y-90573624D01*
X141396784Y-90641544D01*
X141544354Y-90740147D01*
X141669853Y-90865646D01*
X141768456Y-91013216D01*
X141836376Y-91177188D01*
X141871000Y-91351259D01*
X141871000Y-91528741D01*
X141836376Y-91702812D01*
X141768456Y-91866784D01*
X141669853Y-92014354D01*
X141544354Y-92139853D01*
X141396784Y-92238456D01*
X141232812Y-92306376D01*
X141083512Y-92336073D01*
X141058742Y-92341000D01*
X140881258Y-92341000D01*
X140856488Y-92336073D01*
X140707188Y-92306376D01*
X140543216Y-92238456D01*
X140395646Y-92139853D01*
X140270147Y-92014354D01*
X140171544Y-91866784D01*
X140103624Y-91702812D01*
X140069000Y-91528741D01*
X140069000Y-91351259D01*
X140103624Y-91177188D01*
X140171544Y-91013216D01*
X140270147Y-90865646D01*
X140395646Y-90740147D01*
X140543216Y-90641544D01*
X140707188Y-90573624D01*
X140856488Y-90543927D01*
X140881258Y-90539000D01*
X141058742Y-90539000D01*
X141083512Y-90543927D01*
G37*
G36*
X103316355Y-85402140D02*
G01*
X103380118Y-85408420D01*
X103470904Y-85435960D01*
X103502836Y-85445646D01*
X103615925Y-85506094D01*
X103715054Y-85587446D01*
X103796406Y-85686575D01*
X103856854Y-85799664D01*
X103856855Y-85799668D01*
X103894080Y-85922382D01*
X103906649Y-86050000D01*
X103894080Y-86177618D01*
X103866540Y-86268404D01*
X103856854Y-86300336D01*
X103796406Y-86413425D01*
X103715054Y-86512554D01*
X103615925Y-86593906D01*
X103502836Y-86654354D01*
X103470904Y-86664040D01*
X103380118Y-86691580D01*
X103316355Y-86697860D01*
X103284474Y-86701000D01*
X102520526Y-86701000D01*
X102488645Y-86697860D01*
X102424882Y-86691580D01*
X102334096Y-86664040D01*
X102302164Y-86654354D01*
X102189075Y-86593906D01*
X102089946Y-86512554D01*
X102008594Y-86413425D01*
X101948146Y-86300336D01*
X101938460Y-86268404D01*
X101910920Y-86177618D01*
X101898351Y-86050000D01*
X101910920Y-85922382D01*
X101948145Y-85799668D01*
X101948146Y-85799664D01*
X102008594Y-85686575D01*
X102089946Y-85587446D01*
X102189075Y-85506094D01*
X102302164Y-85445646D01*
X102334096Y-85435960D01*
X102424882Y-85408420D01*
X102488645Y-85402140D01*
X102520526Y-85399000D01*
X103284474Y-85399000D01*
X103316355Y-85402140D01*
G37*
G36*
X105828848Y-84303820D02*
G01*
X105828850Y-84303821D01*
X105828851Y-84303821D01*
X105970074Y-84362317D01*
X105970077Y-84362319D01*
X106097169Y-84447239D01*
X106205261Y-84555331D01*
X106290181Y-84682423D01*
X106290183Y-84682426D01*
X106348679Y-84823649D01*
X106378500Y-84973571D01*
X106378500Y-85126429D01*
X106348679Y-85276351D01*
X106290183Y-85417574D01*
X106290181Y-85417577D01*
X106205261Y-85544669D01*
X106097169Y-85652761D01*
X105970077Y-85737681D01*
X105970074Y-85737683D01*
X105828851Y-85796179D01*
X105828850Y-85796179D01*
X105828848Y-85796180D01*
X105678931Y-85826000D01*
X105526069Y-85826000D01*
X105376152Y-85796180D01*
X105376150Y-85796179D01*
X105376149Y-85796179D01*
X105234926Y-85737683D01*
X105234923Y-85737681D01*
X105107831Y-85652761D01*
X104999739Y-85544669D01*
X104914819Y-85417577D01*
X104914817Y-85417574D01*
X104856321Y-85276351D01*
X104826500Y-85126429D01*
X104826500Y-84973571D01*
X104856321Y-84823649D01*
X104914817Y-84682426D01*
X104914819Y-84682423D01*
X104999739Y-84555331D01*
X105107831Y-84447239D01*
X105234923Y-84362319D01*
X105234926Y-84362317D01*
X105376149Y-84303821D01*
X105376150Y-84303821D01*
X105376152Y-84303820D01*
X105526069Y-84274000D01*
X105678931Y-84274000D01*
X105828848Y-84303820D01*
G37*
G36*
X149973512Y-82923927D02*
G01*
X150122812Y-82953624D01*
X150286784Y-83021544D01*
X150434354Y-83120147D01*
X150559853Y-83245646D01*
X150658456Y-83393216D01*
X150726376Y-83557188D01*
X150761000Y-83731259D01*
X150761000Y-83908741D01*
X150726376Y-84082812D01*
X150658456Y-84246784D01*
X150559853Y-84394354D01*
X150434354Y-84519853D01*
X150286784Y-84618456D01*
X150122812Y-84686376D01*
X149973512Y-84716073D01*
X149948742Y-84721000D01*
X149771258Y-84721000D01*
X149746488Y-84716073D01*
X149597188Y-84686376D01*
X149433216Y-84618456D01*
X149285646Y-84519853D01*
X149160147Y-84394354D01*
X149061544Y-84246784D01*
X148993624Y-84082812D01*
X148959000Y-83908741D01*
X148959000Y-83731259D01*
X148993624Y-83557188D01*
X149061544Y-83393216D01*
X149160147Y-83245646D01*
X149285646Y-83120147D01*
X149433216Y-83021544D01*
X149597188Y-82953624D01*
X149746488Y-82923927D01*
X149771258Y-82919000D01*
X149948742Y-82919000D01*
X149973512Y-82923927D01*
G37*
G36*
X150761000Y-82181000D02*
G01*
X148959000Y-82181000D01*
X148959000Y-80379000D01*
X150761000Y-80379000D01*
X150761000Y-82181000D01*
G37*
G36*
X105828848Y-79303820D02*
G01*
X105828850Y-79303821D01*
X105828851Y-79303821D01*
X105970074Y-79362317D01*
X105970077Y-79362319D01*
X106097169Y-79447239D01*
X106205261Y-79555331D01*
X106282805Y-79671384D01*
X106290183Y-79682426D01*
X106348679Y-79823649D01*
X106378500Y-79973571D01*
X106378500Y-80126429D01*
X106348679Y-80276351D01*
X106290183Y-80417574D01*
X106290181Y-80417577D01*
X106205261Y-80544669D01*
X106097169Y-80652761D01*
X105970077Y-80737681D01*
X105970074Y-80737683D01*
X105828851Y-80796179D01*
X105828850Y-80796179D01*
X105828848Y-80796180D01*
X105678931Y-80826000D01*
X105526069Y-80826000D01*
X105376152Y-80796180D01*
X105376150Y-80796179D01*
X105376149Y-80796179D01*
X105234926Y-80737683D01*
X105234923Y-80737681D01*
X105107831Y-80652761D01*
X104999739Y-80544669D01*
X104914819Y-80417577D01*
X104914817Y-80417574D01*
X104856321Y-80276351D01*
X104826500Y-80126429D01*
X104826500Y-79973571D01*
X104856321Y-79823649D01*
X104914817Y-79682426D01*
X104922195Y-79671384D01*
X104999739Y-79555331D01*
X105107831Y-79447239D01*
X105234923Y-79362319D01*
X105234926Y-79362317D01*
X105376149Y-79303821D01*
X105376150Y-79303821D01*
X105376152Y-79303820D01*
X105526069Y-79274000D01*
X105678931Y-79274000D01*
X105828848Y-79303820D01*
G37*
G36*
X143816564Y-77729389D02*
G01*
X144007833Y-77808615D01*
X144007835Y-77808616D01*
X144179973Y-77923635D01*
X144326365Y-78070027D01*
X144441385Y-78242167D01*
X144520611Y-78433436D01*
X144561000Y-78636484D01*
X144561000Y-78843516D01*
X144520611Y-79046564D01*
X144466327Y-79177618D01*
X144441384Y-79237835D01*
X144326365Y-79409973D01*
X144179973Y-79556365D01*
X144007835Y-79671384D01*
X144007834Y-79671385D01*
X144007833Y-79671385D01*
X143816564Y-79750611D01*
X143613516Y-79791000D01*
X143406484Y-79791000D01*
X143203436Y-79750611D01*
X143012167Y-79671385D01*
X143012166Y-79671385D01*
X143012165Y-79671384D01*
X142840027Y-79556365D01*
X142693635Y-79409973D01*
X142578616Y-79237835D01*
X142553673Y-79177618D01*
X142499389Y-79046564D01*
X142459000Y-78843516D01*
X142459000Y-78636484D01*
X142499389Y-78433436D01*
X142578615Y-78242167D01*
X142693635Y-78070027D01*
X142840027Y-77923635D01*
X143012165Y-77808616D01*
X143012167Y-77808615D01*
X143203436Y-77729389D01*
X143406484Y-77689000D01*
X143613516Y-77689000D01*
X143816564Y-77729389D01*
G37*
G36*
X103316355Y-78402140D02*
G01*
X103380118Y-78408420D01*
X103462581Y-78433435D01*
X103502836Y-78445646D01*
X103615925Y-78506094D01*
X103715054Y-78587446D01*
X103796406Y-78686575D01*
X103856854Y-78799664D01*
X103856855Y-78799668D01*
X103894080Y-78922382D01*
X103906649Y-79050000D01*
X103894080Y-79177618D01*
X103875814Y-79237833D01*
X103856854Y-79300336D01*
X103796406Y-79413425D01*
X103715054Y-79512554D01*
X103615925Y-79593906D01*
X103502836Y-79654354D01*
X103470904Y-79664040D01*
X103380118Y-79691580D01*
X103316355Y-79697860D01*
X103284474Y-79701000D01*
X102520526Y-79701000D01*
X102488645Y-79697860D01*
X102424882Y-79691580D01*
X102334096Y-79664040D01*
X102302164Y-79654354D01*
X102189075Y-79593906D01*
X102089946Y-79512554D01*
X102008594Y-79413425D01*
X101948146Y-79300336D01*
X101929186Y-79237833D01*
X101910920Y-79177618D01*
X101898351Y-79050000D01*
X101910920Y-78922382D01*
X101948145Y-78799668D01*
X101948146Y-78799664D01*
X102008594Y-78686575D01*
X102089946Y-78587446D01*
X102189075Y-78506094D01*
X102302164Y-78445646D01*
X102342419Y-78433435D01*
X102424882Y-78408420D01*
X102488645Y-78402140D01*
X102520526Y-78399000D01*
X103284474Y-78399000D01*
X103316355Y-78402140D01*
G37*
G36*
X143816564Y-75189389D02*
G01*
X144007833Y-75268615D01*
X144007835Y-75268616D01*
X144179973Y-75383635D01*
X144326365Y-75530027D01*
X144432289Y-75688553D01*
X144441385Y-75702167D01*
X144520611Y-75893436D01*
X144561000Y-76096484D01*
X144561000Y-76303516D01*
X144520611Y-76506564D01*
X144441385Y-76697833D01*
X144441384Y-76697835D01*
X144326365Y-76869973D01*
X144179973Y-77016365D01*
X144007835Y-77131384D01*
X144007834Y-77131385D01*
X144007833Y-77131385D01*
X143816564Y-77210611D01*
X143613516Y-77251000D01*
X143406484Y-77251000D01*
X143203436Y-77210611D01*
X143012167Y-77131385D01*
X143012166Y-77131385D01*
X143012165Y-77131384D01*
X142840027Y-77016365D01*
X142693635Y-76869973D01*
X142578616Y-76697835D01*
X142578615Y-76697833D01*
X142499389Y-76506564D01*
X142459000Y-76303516D01*
X142459000Y-76096484D01*
X142499389Y-75893436D01*
X142578615Y-75702167D01*
X142587712Y-75688553D01*
X142693635Y-75530027D01*
X142840027Y-75383635D01*
X143012165Y-75268616D01*
X143012167Y-75268615D01*
X143203436Y-75189389D01*
X143406484Y-75149000D01*
X143613516Y-75149000D01*
X143816564Y-75189389D01*
G37*
G36*
X120047618Y-74013420D02*
G01*
X120128400Y-74037925D01*
X120170336Y-74050646D01*
X120283425Y-74111094D01*
X120382554Y-74192446D01*
X120463906Y-74291575D01*
X120524354Y-74404664D01*
X120524355Y-74404668D01*
X120561580Y-74527382D01*
X120571000Y-74623027D01*
X120571000Y-75236973D01*
X120561580Y-75332618D01*
X120546104Y-75383635D01*
X120524354Y-75455336D01*
X120463906Y-75568425D01*
X120382554Y-75667553D01*
X120283424Y-75748906D01*
X120170335Y-75809354D01*
X120138403Y-75819040D01*
X120047617Y-75846580D01*
X119920000Y-75859149D01*
X119792382Y-75846580D01*
X119701596Y-75819040D01*
X119669664Y-75809354D01*
X119556575Y-75748906D01*
X119457447Y-75667554D01*
X119376094Y-75568424D01*
X119315646Y-75455335D01*
X119293896Y-75383635D01*
X119278420Y-75332617D01*
X119269000Y-75236972D01*
X119269000Y-74623027D01*
X119278420Y-74527382D01*
X119315645Y-74404668D01*
X119315645Y-74404667D01*
X119347957Y-74344217D01*
X119376095Y-74291574D01*
X119389493Y-74275249D01*
X119457447Y-74192446D01*
X119556576Y-74111094D01*
X119669665Y-74050646D01*
X119711601Y-74037925D01*
X119792383Y-74013420D01*
X119920000Y-74000851D01*
X120047618Y-74013420D01*
G37*
G36*
X122411242Y-74008404D02*
G01*
X122448337Y-74019657D01*
X122482515Y-74037925D01*
X122512481Y-74062519D01*
X122537075Y-74092485D01*
X122555343Y-74126663D01*
X122566596Y-74163758D01*
X122571000Y-74208474D01*
X122571000Y-75651526D01*
X122566596Y-75696242D01*
X122555343Y-75733337D01*
X122537075Y-75767515D01*
X122512481Y-75797481D01*
X122482515Y-75822075D01*
X122448337Y-75840343D01*
X122411242Y-75851596D01*
X122366526Y-75856000D01*
X121473474Y-75856000D01*
X121428758Y-75851596D01*
X121391663Y-75840343D01*
X121357485Y-75822075D01*
X121327519Y-75797481D01*
X121302925Y-75767515D01*
X121284657Y-75733337D01*
X121273404Y-75696242D01*
X121269000Y-75651526D01*
X121269000Y-74208474D01*
X121273404Y-74163758D01*
X121284657Y-74126663D01*
X121302925Y-74092485D01*
X121327519Y-74062519D01*
X121357485Y-74037925D01*
X121391663Y-74019657D01*
X121428758Y-74008404D01*
X121473474Y-74004000D01*
X122366526Y-74004000D01*
X122411242Y-74008404D01*
G37*
G36*
X150235256Y-72051298D02*
G01*
X150341579Y-72072447D01*
X150642042Y-72196903D01*
X150912451Y-72377585D01*
X151142415Y-72607549D01*
X151323097Y-72877958D01*
X151409125Y-73085647D01*
X151447553Y-73178422D01*
X151511000Y-73497389D01*
X151511000Y-73822611D01*
X151475546Y-74000851D01*
X151447553Y-74141579D01*
X151359550Y-74354037D01*
X151338580Y-74404664D01*
X151323097Y-74442042D01*
X151142415Y-74712451D01*
X150912451Y-74942415D01*
X150642042Y-75123097D01*
X150341579Y-75247553D01*
X150235693Y-75268615D01*
X150022611Y-75311000D01*
X149697389Y-75311000D01*
X149484307Y-75268615D01*
X149378421Y-75247553D01*
X149077958Y-75123097D01*
X148807549Y-74942415D01*
X148577585Y-74712451D01*
X148396903Y-74442042D01*
X148381421Y-74404664D01*
X148360450Y-74354037D01*
X148272447Y-74141579D01*
X148244454Y-74000851D01*
X148209000Y-73822611D01*
X148209000Y-73497389D01*
X148272447Y-73178422D01*
X148310876Y-73085647D01*
X148396903Y-72877958D01*
X148577585Y-72607549D01*
X148807549Y-72377585D01*
X149077958Y-72196903D01*
X149378421Y-72072447D01*
X149484744Y-72051298D01*
X149697389Y-72009000D01*
X150022611Y-72009000D01*
X150235256Y-72051298D01*
G37*
G36*
X105785256Y-72051298D02*
G01*
X105891579Y-72072447D01*
X106192042Y-72196903D01*
X106462451Y-72377585D01*
X106692415Y-72607549D01*
X106873097Y-72877958D01*
X106959125Y-73085647D01*
X106997553Y-73178422D01*
X107061000Y-73497389D01*
X107061000Y-73822611D01*
X107025546Y-74000851D01*
X106997553Y-74141579D01*
X106909550Y-74354037D01*
X106888580Y-74404664D01*
X106873097Y-74442042D01*
X106692415Y-74712451D01*
X106462451Y-74942415D01*
X106192042Y-75123097D01*
X105891579Y-75247553D01*
X105785693Y-75268615D01*
X105572611Y-75311000D01*
X105247389Y-75311000D01*
X105034307Y-75268615D01*
X104928421Y-75247553D01*
X104627958Y-75123097D01*
X104357549Y-74942415D01*
X104127585Y-74712451D01*
X103946903Y-74442042D01*
X103931421Y-74404664D01*
X103910450Y-74354037D01*
X103822447Y-74141579D01*
X103794454Y-74000851D01*
X103759000Y-73822611D01*
X103759000Y-73497389D01*
X103822447Y-73178422D01*
X103860876Y-73085647D01*
X103946903Y-72877958D01*
X104127585Y-72607549D01*
X104357549Y-72377585D01*
X104627958Y-72196903D01*
X104928421Y-72072447D01*
X105034744Y-72051298D01*
X105247389Y-72009000D01*
X105572611Y-72009000D01*
X105785256Y-72051298D01*
G37*
G36*
X144561000Y-74711000D02*
G01*
X142459000Y-74711000D01*
X142459000Y-72609000D01*
X144561000Y-72609000D01*
X144561000Y-74711000D01*
G37*
G36*
X130441000Y-74561000D02*
G01*
X128639000Y-74561000D01*
X128639000Y-72759000D01*
X130441000Y-72759000D01*
X130441000Y-74561000D01*
G37*
G36*
X127113512Y-72763927D02*
G01*
X127262812Y-72793624D01*
X127426784Y-72861544D01*
X127574354Y-72960147D01*
X127699853Y-73085646D01*
X127798456Y-73233216D01*
X127866376Y-73397188D01*
X127901000Y-73571259D01*
X127901000Y-73748741D01*
X127866376Y-73922812D01*
X127798456Y-74086784D01*
X127699853Y-74234354D01*
X127574354Y-74359853D01*
X127426784Y-74458456D01*
X127262812Y-74526376D01*
X127113512Y-74556073D01*
X127088742Y-74561000D01*
X126911258Y-74561000D01*
X126886488Y-74556073D01*
X126737188Y-74526376D01*
X126573216Y-74458456D01*
X126425646Y-74359853D01*
X126300147Y-74234354D01*
X126201544Y-74086784D01*
X126133624Y-73922812D01*
X126099000Y-73748741D01*
X126099000Y-73571259D01*
X126133624Y-73397188D01*
X126201544Y-73233216D01*
X126300147Y-73085646D01*
X126425646Y-72960147D01*
X126573216Y-72861544D01*
X126737188Y-72793624D01*
X126886488Y-72763927D01*
X126911258Y-72759000D01*
X127088742Y-72759000D01*
X127113512Y-72763927D01*
G37*
G36*
X111873512Y-72763927D02*
G01*
X112022812Y-72793624D01*
X112186784Y-72861544D01*
X112334354Y-72960147D01*
X112459853Y-73085646D01*
X112558456Y-73233216D01*
X112626376Y-73397188D01*
X112661000Y-73571259D01*
X112661000Y-73748741D01*
X112626376Y-73922812D01*
X112558456Y-74086784D01*
X112459853Y-74234354D01*
X112334354Y-74359853D01*
X112186784Y-74458456D01*
X112022812Y-74526376D01*
X111873512Y-74556073D01*
X111848742Y-74561000D01*
X111671258Y-74561000D01*
X111646488Y-74556073D01*
X111497188Y-74526376D01*
X111333216Y-74458456D01*
X111185646Y-74359853D01*
X111060147Y-74234354D01*
X110961544Y-74086784D01*
X110893624Y-73922812D01*
X110859000Y-73748741D01*
X110859000Y-73571259D01*
X110893624Y-73397188D01*
X110961544Y-73233216D01*
X111060147Y-73085646D01*
X111185646Y-72960147D01*
X111333216Y-72861544D01*
X111497188Y-72793624D01*
X111646488Y-72763927D01*
X111671258Y-72759000D01*
X111848742Y-72759000D01*
X111873512Y-72763927D01*
G37*
G36*
X115201000Y-74561000D02*
G01*
X113399000Y-74561000D01*
X113399000Y-72759000D01*
X115201000Y-72759000D01*
X115201000Y-74561000D01*
G37*
M02*
