G04 #@! TF.GenerationSoftware,KiCad,Pcbnew,5.1.5+dfsg1-2build2*
G04 #@! TF.CreationDate,2020-07-25T19:40:00-04:00*
G04 #@! TF.ProjectId,lipo-charger,6c69706f-2d63-4686-9172-6765722e6b69,rev?*
G04 #@! TF.SameCoordinates,Original*
G04 #@! TF.FileFunction,Soldermask,Top*
G04 #@! TF.FilePolarity,Negative*
%FSLAX46Y46*%
G04 Gerber Fmt 4.6, Leading zero omitted, Abs format (unit mm)*
G04 Created by KiCad (PCBNEW 5.1.5+dfsg1-2build2) date 2020-07-25 19:40:00*
%MOMM*%
%LPD*%
G04 APERTURE LIST*
%ADD10C,0.100000*%
G04 APERTURE END LIST*
D10*
G36*
X121349928Y-92996764D02*
G01*
X121371009Y-93003160D01*
X121390445Y-93013548D01*
X121407476Y-93027524D01*
X121421452Y-93044555D01*
X121431840Y-93063991D01*
X121438236Y-93085072D01*
X121441000Y-93113140D01*
X121441000Y-93576860D01*
X121438236Y-93604928D01*
X121431840Y-93626009D01*
X121421452Y-93645445D01*
X121407476Y-93662476D01*
X121390445Y-93676452D01*
X121371009Y-93686840D01*
X121349928Y-93693236D01*
X121321860Y-93696000D01*
X119808140Y-93696000D01*
X119780072Y-93693236D01*
X119758991Y-93686840D01*
X119739555Y-93676452D01*
X119722524Y-93662476D01*
X119708548Y-93645445D01*
X119698160Y-93626009D01*
X119691764Y-93604928D01*
X119689000Y-93576860D01*
X119689000Y-93113140D01*
X119691764Y-93085072D01*
X119698160Y-93063991D01*
X119708548Y-93044555D01*
X119722524Y-93027524D01*
X119739555Y-93013548D01*
X119758991Y-93003160D01*
X119780072Y-92996764D01*
X119808140Y-92994000D01*
X121321860Y-92994000D01*
X121349928Y-92996764D01*
G37*
G36*
X126599928Y-92996764D02*
G01*
X126621009Y-93003160D01*
X126640445Y-93013548D01*
X126657476Y-93027524D01*
X126671452Y-93044555D01*
X126681840Y-93063991D01*
X126688236Y-93085072D01*
X126691000Y-93113140D01*
X126691000Y-93576860D01*
X126688236Y-93604928D01*
X126681840Y-93626009D01*
X126671452Y-93645445D01*
X126657476Y-93662476D01*
X126640445Y-93676452D01*
X126621009Y-93686840D01*
X126599928Y-93693236D01*
X126571860Y-93696000D01*
X125058140Y-93696000D01*
X125030072Y-93693236D01*
X125008991Y-93686840D01*
X124989555Y-93676452D01*
X124972524Y-93662476D01*
X124958548Y-93645445D01*
X124948160Y-93626009D01*
X124941764Y-93604928D01*
X124939000Y-93576860D01*
X124939000Y-93113140D01*
X124941764Y-93085072D01*
X124948160Y-93063991D01*
X124958548Y-93044555D01*
X124972524Y-93027524D01*
X124989555Y-93013548D01*
X125008991Y-93003160D01*
X125030072Y-92996764D01*
X125058140Y-92994000D01*
X126571860Y-92994000D01*
X126599928Y-92996764D01*
G37*
G36*
X150158393Y-89816009D02*
G01*
X150341579Y-89852447D01*
X150642042Y-89976903D01*
X150912451Y-90157585D01*
X151142415Y-90387549D01*
X151323097Y-90657958D01*
X151409125Y-90865647D01*
X151447553Y-90958422D01*
X151511000Y-91277389D01*
X151511000Y-91602611D01*
X151486854Y-91724000D01*
X151447553Y-91921579D01*
X151323097Y-92222042D01*
X151142415Y-92492451D01*
X150912451Y-92722415D01*
X150642042Y-92903097D01*
X150341579Y-93027553D01*
X150256104Y-93044555D01*
X150022611Y-93091000D01*
X149697389Y-93091000D01*
X149463896Y-93044555D01*
X149378421Y-93027553D01*
X149077958Y-92903097D01*
X148807549Y-92722415D01*
X148577585Y-92492451D01*
X148396903Y-92222042D01*
X148272447Y-91921579D01*
X148233146Y-91724000D01*
X148209000Y-91602611D01*
X148209000Y-91277389D01*
X148272447Y-90958422D01*
X148310876Y-90865647D01*
X148396903Y-90657958D01*
X148577585Y-90387549D01*
X148807549Y-90157585D01*
X149077958Y-89976903D01*
X149378421Y-89852447D01*
X149561607Y-89816009D01*
X149697389Y-89789000D01*
X150022611Y-89789000D01*
X150158393Y-89816009D01*
G37*
G36*
X105708393Y-89816009D02*
G01*
X105891579Y-89852447D01*
X106192042Y-89976903D01*
X106462451Y-90157585D01*
X106692415Y-90387549D01*
X106873097Y-90657958D01*
X106959125Y-90865647D01*
X106997553Y-90958422D01*
X107061000Y-91277389D01*
X107061000Y-91602611D01*
X107036854Y-91724000D01*
X106997553Y-91921579D01*
X106873097Y-92222042D01*
X106692415Y-92492451D01*
X106462451Y-92722415D01*
X106192042Y-92903097D01*
X105891579Y-93027553D01*
X105806104Y-93044555D01*
X105572611Y-93091000D01*
X105247389Y-93091000D01*
X105013896Y-93044555D01*
X104928421Y-93027553D01*
X104627958Y-92903097D01*
X104357549Y-92722415D01*
X104127585Y-92492451D01*
X103946903Y-92222042D01*
X103822447Y-91921579D01*
X103783146Y-91724000D01*
X103759000Y-91602611D01*
X103759000Y-91277389D01*
X103822447Y-90958422D01*
X103860876Y-90865647D01*
X103946903Y-90657958D01*
X104127585Y-90387549D01*
X104357549Y-90157585D01*
X104627958Y-89976903D01*
X104928421Y-89852447D01*
X105111607Y-89816009D01*
X105247389Y-89789000D01*
X105572611Y-89789000D01*
X105708393Y-89816009D01*
G37*
G36*
X130849468Y-91328565D02*
G01*
X130888138Y-91340296D01*
X130923777Y-91359346D01*
X130955017Y-91384983D01*
X130980654Y-91416223D01*
X130999704Y-91451862D01*
X131011435Y-91490532D01*
X131016000Y-91536888D01*
X131016000Y-92613112D01*
X131011435Y-92659468D01*
X130999704Y-92698138D01*
X130980654Y-92733777D01*
X130955017Y-92765017D01*
X130923777Y-92790654D01*
X130888138Y-92809704D01*
X130849468Y-92821435D01*
X130803112Y-92826000D01*
X130151888Y-92826000D01*
X130105532Y-92821435D01*
X130066862Y-92809704D01*
X130031223Y-92790654D01*
X129999983Y-92765017D01*
X129974346Y-92733777D01*
X129955296Y-92698138D01*
X129943565Y-92659468D01*
X129939000Y-92613112D01*
X129939000Y-91536888D01*
X129943565Y-91490532D01*
X129955296Y-91451862D01*
X129974346Y-91416223D01*
X129999983Y-91384983D01*
X130031223Y-91359346D01*
X130066862Y-91340296D01*
X130105532Y-91328565D01*
X130151888Y-91324000D01*
X130803112Y-91324000D01*
X130849468Y-91328565D01*
G37*
G36*
X128974468Y-91328565D02*
G01*
X129013138Y-91340296D01*
X129048777Y-91359346D01*
X129080017Y-91384983D01*
X129105654Y-91416223D01*
X129124704Y-91451862D01*
X129136435Y-91490532D01*
X129141000Y-91536888D01*
X129141000Y-92613112D01*
X129136435Y-92659468D01*
X129124704Y-92698138D01*
X129105654Y-92733777D01*
X129080017Y-92765017D01*
X129048777Y-92790654D01*
X129013138Y-92809704D01*
X128974468Y-92821435D01*
X128928112Y-92826000D01*
X128276888Y-92826000D01*
X128230532Y-92821435D01*
X128191862Y-92809704D01*
X128156223Y-92790654D01*
X128124983Y-92765017D01*
X128099346Y-92733777D01*
X128080296Y-92698138D01*
X128068565Y-92659468D01*
X128064000Y-92613112D01*
X128064000Y-91536888D01*
X128068565Y-91490532D01*
X128080296Y-91451862D01*
X128099346Y-91416223D01*
X128124983Y-91384983D01*
X128156223Y-91359346D01*
X128191862Y-91340296D01*
X128230532Y-91328565D01*
X128276888Y-91324000D01*
X128928112Y-91324000D01*
X128974468Y-91328565D01*
G37*
G36*
X126599928Y-91726764D02*
G01*
X126621009Y-91733160D01*
X126640445Y-91743548D01*
X126657476Y-91757524D01*
X126671452Y-91774555D01*
X126681840Y-91793991D01*
X126688236Y-91815072D01*
X126691000Y-91843140D01*
X126691000Y-92306860D01*
X126688236Y-92334928D01*
X126681840Y-92356009D01*
X126671452Y-92375445D01*
X126657476Y-92392476D01*
X126640445Y-92406452D01*
X126621009Y-92416840D01*
X126599928Y-92423236D01*
X126571860Y-92426000D01*
X125058140Y-92426000D01*
X125030072Y-92423236D01*
X125008991Y-92416840D01*
X124989555Y-92406452D01*
X124972524Y-92392476D01*
X124958548Y-92375445D01*
X124948160Y-92356009D01*
X124941764Y-92334928D01*
X124939000Y-92306860D01*
X124939000Y-91843140D01*
X124941764Y-91815072D01*
X124948160Y-91793991D01*
X124958548Y-91774555D01*
X124972524Y-91757524D01*
X124989555Y-91743548D01*
X125008991Y-91733160D01*
X125030072Y-91726764D01*
X125058140Y-91724000D01*
X126571860Y-91724000D01*
X126599928Y-91726764D01*
G37*
G36*
X121349928Y-91726764D02*
G01*
X121371009Y-91733160D01*
X121390445Y-91743548D01*
X121407476Y-91757524D01*
X121421452Y-91774555D01*
X121431840Y-91793991D01*
X121438236Y-91815072D01*
X121441000Y-91843140D01*
X121441000Y-92306860D01*
X121438236Y-92334928D01*
X121431840Y-92356009D01*
X121421452Y-92375445D01*
X121407476Y-92392476D01*
X121390445Y-92406452D01*
X121371009Y-92416840D01*
X121349928Y-92423236D01*
X121321860Y-92426000D01*
X119808140Y-92426000D01*
X119780072Y-92423236D01*
X119758991Y-92416840D01*
X119739555Y-92406452D01*
X119722524Y-92392476D01*
X119708548Y-92375445D01*
X119698160Y-92356009D01*
X119691764Y-92334928D01*
X119689000Y-92306860D01*
X119689000Y-91843140D01*
X119691764Y-91815072D01*
X119698160Y-91793991D01*
X119708548Y-91774555D01*
X119722524Y-91757524D01*
X119739555Y-91743548D01*
X119758991Y-91733160D01*
X119780072Y-91726764D01*
X119808140Y-91724000D01*
X121321860Y-91724000D01*
X121349928Y-91726764D01*
G37*
G36*
X141083512Y-90543927D02*
G01*
X141232812Y-90573624D01*
X141396784Y-90641544D01*
X141544354Y-90740147D01*
X141669853Y-90865646D01*
X141768456Y-91013216D01*
X141836376Y-91177188D01*
X141871000Y-91351259D01*
X141871000Y-91528741D01*
X141836376Y-91702812D01*
X141768456Y-91866784D01*
X141669853Y-92014354D01*
X141544354Y-92139853D01*
X141396784Y-92238456D01*
X141232812Y-92306376D01*
X141089268Y-92334928D01*
X141058742Y-92341000D01*
X140881258Y-92341000D01*
X140850732Y-92334928D01*
X140707188Y-92306376D01*
X140543216Y-92238456D01*
X140395646Y-92139853D01*
X140270147Y-92014354D01*
X140171544Y-91866784D01*
X140103624Y-91702812D01*
X140069000Y-91528741D01*
X140069000Y-91351259D01*
X140103624Y-91177188D01*
X140171544Y-91013216D01*
X140270147Y-90865646D01*
X140395646Y-90740147D01*
X140543216Y-90641544D01*
X140707188Y-90573624D01*
X140856488Y-90543927D01*
X140881258Y-90539000D01*
X141058742Y-90539000D01*
X141083512Y-90543927D01*
G37*
G36*
X144411000Y-92341000D02*
G01*
X142609000Y-92341000D01*
X142609000Y-90539000D01*
X144411000Y-90539000D01*
X144411000Y-92341000D01*
G37*
G36*
X136791000Y-92341000D02*
G01*
X134989000Y-92341000D01*
X134989000Y-90539000D01*
X136791000Y-90539000D01*
X136791000Y-92341000D01*
G37*
G36*
X133463512Y-90543927D02*
G01*
X133612812Y-90573624D01*
X133776784Y-90641544D01*
X133924354Y-90740147D01*
X134049853Y-90865646D01*
X134148456Y-91013216D01*
X134216376Y-91177188D01*
X134251000Y-91351259D01*
X134251000Y-91528741D01*
X134216376Y-91702812D01*
X134148456Y-91866784D01*
X134049853Y-92014354D01*
X133924354Y-92139853D01*
X133776784Y-92238456D01*
X133612812Y-92306376D01*
X133469268Y-92334928D01*
X133438742Y-92341000D01*
X133261258Y-92341000D01*
X133230732Y-92334928D01*
X133087188Y-92306376D01*
X132923216Y-92238456D01*
X132775646Y-92139853D01*
X132650147Y-92014354D01*
X132551544Y-91866784D01*
X132483624Y-91702812D01*
X132449000Y-91528741D01*
X132449000Y-91351259D01*
X132483624Y-91177188D01*
X132551544Y-91013216D01*
X132650147Y-90865646D01*
X132775646Y-90740147D01*
X132923216Y-90641544D01*
X133087188Y-90573624D01*
X133236488Y-90543927D01*
X133261258Y-90539000D01*
X133438742Y-90539000D01*
X133463512Y-90543927D01*
G37*
G36*
X118149468Y-90693565D02*
G01*
X118188138Y-90705296D01*
X118223777Y-90724346D01*
X118255017Y-90749983D01*
X118280654Y-90781223D01*
X118299704Y-90816862D01*
X118311435Y-90855532D01*
X118316000Y-90901888D01*
X118316000Y-91978112D01*
X118311435Y-92024468D01*
X118299704Y-92063138D01*
X118280654Y-92098777D01*
X118255017Y-92130017D01*
X118223777Y-92155654D01*
X118188138Y-92174704D01*
X118149468Y-92186435D01*
X118103112Y-92191000D01*
X117451888Y-92191000D01*
X117405532Y-92186435D01*
X117366862Y-92174704D01*
X117331223Y-92155654D01*
X117299983Y-92130017D01*
X117274346Y-92098777D01*
X117255296Y-92063138D01*
X117243565Y-92024468D01*
X117239000Y-91978112D01*
X117239000Y-90901888D01*
X117243565Y-90855532D01*
X117255296Y-90816862D01*
X117274346Y-90781223D01*
X117299983Y-90749983D01*
X117331223Y-90724346D01*
X117366862Y-90705296D01*
X117405532Y-90693565D01*
X117451888Y-90689000D01*
X118103112Y-90689000D01*
X118149468Y-90693565D01*
G37*
G36*
X112464468Y-90693565D02*
G01*
X112503138Y-90705296D01*
X112538777Y-90724346D01*
X112570017Y-90749983D01*
X112595654Y-90781223D01*
X112614704Y-90816862D01*
X112626435Y-90855532D01*
X112631000Y-90901888D01*
X112631000Y-91978112D01*
X112626435Y-92024468D01*
X112614704Y-92063138D01*
X112595654Y-92098777D01*
X112570017Y-92130017D01*
X112538777Y-92155654D01*
X112503138Y-92174704D01*
X112464468Y-92186435D01*
X112418112Y-92191000D01*
X111766888Y-92191000D01*
X111720532Y-92186435D01*
X111681862Y-92174704D01*
X111646223Y-92155654D01*
X111614983Y-92130017D01*
X111589346Y-92098777D01*
X111570296Y-92063138D01*
X111558565Y-92024468D01*
X111554000Y-91978112D01*
X111554000Y-90901888D01*
X111558565Y-90855532D01*
X111570296Y-90816862D01*
X111589346Y-90781223D01*
X111614983Y-90749983D01*
X111646223Y-90724346D01*
X111681862Y-90705296D01*
X111720532Y-90693565D01*
X111766888Y-90689000D01*
X112418112Y-90689000D01*
X112464468Y-90693565D01*
G37*
G36*
X114339468Y-90693565D02*
G01*
X114378138Y-90705296D01*
X114413777Y-90724346D01*
X114445017Y-90749983D01*
X114470654Y-90781223D01*
X114489704Y-90816862D01*
X114501435Y-90855532D01*
X114506000Y-90901888D01*
X114506000Y-91978112D01*
X114501435Y-92024468D01*
X114489704Y-92063138D01*
X114470654Y-92098777D01*
X114445017Y-92130017D01*
X114413777Y-92155654D01*
X114378138Y-92174704D01*
X114339468Y-92186435D01*
X114293112Y-92191000D01*
X113641888Y-92191000D01*
X113595532Y-92186435D01*
X113556862Y-92174704D01*
X113521223Y-92155654D01*
X113489983Y-92130017D01*
X113464346Y-92098777D01*
X113445296Y-92063138D01*
X113433565Y-92024468D01*
X113429000Y-91978112D01*
X113429000Y-90901888D01*
X113433565Y-90855532D01*
X113445296Y-90816862D01*
X113464346Y-90781223D01*
X113489983Y-90749983D01*
X113521223Y-90724346D01*
X113556862Y-90705296D01*
X113595532Y-90693565D01*
X113641888Y-90689000D01*
X114293112Y-90689000D01*
X114339468Y-90693565D01*
G37*
G36*
X116274468Y-90693565D02*
G01*
X116313138Y-90705296D01*
X116348777Y-90724346D01*
X116380017Y-90749983D01*
X116405654Y-90781223D01*
X116424704Y-90816862D01*
X116436435Y-90855532D01*
X116441000Y-90901888D01*
X116441000Y-91978112D01*
X116436435Y-92024468D01*
X116424704Y-92063138D01*
X116405654Y-92098777D01*
X116380017Y-92130017D01*
X116348777Y-92155654D01*
X116313138Y-92174704D01*
X116274468Y-92186435D01*
X116228112Y-92191000D01*
X115576888Y-92191000D01*
X115530532Y-92186435D01*
X115491862Y-92174704D01*
X115456223Y-92155654D01*
X115424983Y-92130017D01*
X115399346Y-92098777D01*
X115380296Y-92063138D01*
X115368565Y-92024468D01*
X115364000Y-91978112D01*
X115364000Y-90901888D01*
X115368565Y-90855532D01*
X115380296Y-90816862D01*
X115399346Y-90781223D01*
X115424983Y-90749983D01*
X115456223Y-90724346D01*
X115491862Y-90705296D01*
X115530532Y-90693565D01*
X115576888Y-90689000D01*
X116228112Y-90689000D01*
X116274468Y-90693565D01*
G37*
G36*
X126599928Y-90456764D02*
G01*
X126621009Y-90463160D01*
X126640445Y-90473548D01*
X126657476Y-90487524D01*
X126671452Y-90504555D01*
X126681840Y-90523991D01*
X126688236Y-90545072D01*
X126691000Y-90573140D01*
X126691000Y-91036860D01*
X126688236Y-91064928D01*
X126681840Y-91086009D01*
X126671452Y-91105445D01*
X126657476Y-91122476D01*
X126640445Y-91136452D01*
X126621009Y-91146840D01*
X126599928Y-91153236D01*
X126571860Y-91156000D01*
X125058140Y-91156000D01*
X125030072Y-91153236D01*
X125008991Y-91146840D01*
X124989555Y-91136452D01*
X124972524Y-91122476D01*
X124958548Y-91105445D01*
X124948160Y-91086009D01*
X124941764Y-91064928D01*
X124939000Y-91036860D01*
X124939000Y-90573140D01*
X124941764Y-90545072D01*
X124948160Y-90523991D01*
X124958548Y-90504555D01*
X124972524Y-90487524D01*
X124989555Y-90473548D01*
X125008991Y-90463160D01*
X125030072Y-90456764D01*
X125058140Y-90454000D01*
X126571860Y-90454000D01*
X126599928Y-90456764D01*
G37*
G36*
X121349928Y-90456764D02*
G01*
X121371009Y-90463160D01*
X121390445Y-90473548D01*
X121407476Y-90487524D01*
X121421452Y-90504555D01*
X121431840Y-90523991D01*
X121438236Y-90545072D01*
X121441000Y-90573140D01*
X121441000Y-91036860D01*
X121438236Y-91064928D01*
X121431840Y-91086009D01*
X121421452Y-91105445D01*
X121407476Y-91122476D01*
X121390445Y-91136452D01*
X121371009Y-91146840D01*
X121349928Y-91153236D01*
X121321860Y-91156000D01*
X119808140Y-91156000D01*
X119780072Y-91153236D01*
X119758991Y-91146840D01*
X119739555Y-91136452D01*
X119722524Y-91122476D01*
X119708548Y-91105445D01*
X119698160Y-91086009D01*
X119691764Y-91064928D01*
X119689000Y-91036860D01*
X119689000Y-90573140D01*
X119691764Y-90545072D01*
X119698160Y-90523991D01*
X119708548Y-90504555D01*
X119722524Y-90487524D01*
X119739555Y-90473548D01*
X119758991Y-90463160D01*
X119780072Y-90456764D01*
X119808140Y-90454000D01*
X121321860Y-90454000D01*
X121349928Y-90456764D01*
G37*
G36*
X126599928Y-89186764D02*
G01*
X126621009Y-89193160D01*
X126640445Y-89203548D01*
X126657476Y-89217524D01*
X126671452Y-89234555D01*
X126681840Y-89253991D01*
X126688236Y-89275072D01*
X126691000Y-89303140D01*
X126691000Y-89766860D01*
X126688236Y-89794928D01*
X126681840Y-89816009D01*
X126671452Y-89835445D01*
X126657476Y-89852476D01*
X126640445Y-89866452D01*
X126621009Y-89876840D01*
X126599928Y-89883236D01*
X126571860Y-89886000D01*
X125058140Y-89886000D01*
X125030072Y-89883236D01*
X125008991Y-89876840D01*
X124989555Y-89866452D01*
X124972524Y-89852476D01*
X124958548Y-89835445D01*
X124948160Y-89816009D01*
X124941764Y-89794928D01*
X124939000Y-89766860D01*
X124939000Y-89303140D01*
X124941764Y-89275072D01*
X124948160Y-89253991D01*
X124958548Y-89234555D01*
X124972524Y-89217524D01*
X124989555Y-89203548D01*
X125008991Y-89193160D01*
X125030072Y-89186764D01*
X125058140Y-89184000D01*
X126571860Y-89184000D01*
X126599928Y-89186764D01*
G37*
G36*
X121349928Y-89186764D02*
G01*
X121371009Y-89193160D01*
X121390445Y-89203548D01*
X121407476Y-89217524D01*
X121421452Y-89234555D01*
X121431840Y-89253991D01*
X121438236Y-89275072D01*
X121441000Y-89303140D01*
X121441000Y-89766860D01*
X121438236Y-89794928D01*
X121431840Y-89816009D01*
X121421452Y-89835445D01*
X121407476Y-89852476D01*
X121390445Y-89866452D01*
X121371009Y-89876840D01*
X121349928Y-89883236D01*
X121321860Y-89886000D01*
X119808140Y-89886000D01*
X119780072Y-89883236D01*
X119758991Y-89876840D01*
X119739555Y-89866452D01*
X119722524Y-89852476D01*
X119708548Y-89835445D01*
X119698160Y-89816009D01*
X119691764Y-89794928D01*
X119689000Y-89766860D01*
X119689000Y-89303140D01*
X119691764Y-89275072D01*
X119698160Y-89253991D01*
X119708548Y-89234555D01*
X119722524Y-89217524D01*
X119739555Y-89203548D01*
X119758991Y-89193160D01*
X119780072Y-89186764D01*
X119808140Y-89184000D01*
X121321860Y-89184000D01*
X121349928Y-89186764D01*
G37*
G36*
X118149468Y-88153565D02*
G01*
X118188138Y-88165296D01*
X118223777Y-88184346D01*
X118255017Y-88209983D01*
X118280654Y-88241223D01*
X118299704Y-88276862D01*
X118311435Y-88315532D01*
X118316000Y-88361888D01*
X118316000Y-89438112D01*
X118311435Y-89484468D01*
X118299704Y-89523138D01*
X118280654Y-89558777D01*
X118255017Y-89590017D01*
X118223777Y-89615654D01*
X118188138Y-89634704D01*
X118149468Y-89646435D01*
X118103112Y-89651000D01*
X117451888Y-89651000D01*
X117405532Y-89646435D01*
X117366862Y-89634704D01*
X117331223Y-89615654D01*
X117299983Y-89590017D01*
X117274346Y-89558777D01*
X117255296Y-89523138D01*
X117243565Y-89484468D01*
X117239000Y-89438112D01*
X117239000Y-88361888D01*
X117243565Y-88315532D01*
X117255296Y-88276862D01*
X117274346Y-88241223D01*
X117299983Y-88209983D01*
X117331223Y-88184346D01*
X117366862Y-88165296D01*
X117405532Y-88153565D01*
X117451888Y-88149000D01*
X118103112Y-88149000D01*
X118149468Y-88153565D01*
G37*
G36*
X112464468Y-88153565D02*
G01*
X112503138Y-88165296D01*
X112538777Y-88184346D01*
X112570017Y-88209983D01*
X112595654Y-88241223D01*
X112614704Y-88276862D01*
X112626435Y-88315532D01*
X112631000Y-88361888D01*
X112631000Y-89438112D01*
X112626435Y-89484468D01*
X112614704Y-89523138D01*
X112595654Y-89558777D01*
X112570017Y-89590017D01*
X112538777Y-89615654D01*
X112503138Y-89634704D01*
X112464468Y-89646435D01*
X112418112Y-89651000D01*
X111766888Y-89651000D01*
X111720532Y-89646435D01*
X111681862Y-89634704D01*
X111646223Y-89615654D01*
X111614983Y-89590017D01*
X111589346Y-89558777D01*
X111570296Y-89523138D01*
X111558565Y-89484468D01*
X111554000Y-89438112D01*
X111554000Y-88361888D01*
X111558565Y-88315532D01*
X111570296Y-88276862D01*
X111589346Y-88241223D01*
X111614983Y-88209983D01*
X111646223Y-88184346D01*
X111681862Y-88165296D01*
X111720532Y-88153565D01*
X111766888Y-88149000D01*
X112418112Y-88149000D01*
X112464468Y-88153565D01*
G37*
G36*
X116274468Y-88153565D02*
G01*
X116313138Y-88165296D01*
X116348777Y-88184346D01*
X116380017Y-88209983D01*
X116405654Y-88241223D01*
X116424704Y-88276862D01*
X116436435Y-88315532D01*
X116441000Y-88361888D01*
X116441000Y-89438112D01*
X116436435Y-89484468D01*
X116424704Y-89523138D01*
X116405654Y-89558777D01*
X116380017Y-89590017D01*
X116348777Y-89615654D01*
X116313138Y-89634704D01*
X116274468Y-89646435D01*
X116228112Y-89651000D01*
X115576888Y-89651000D01*
X115530532Y-89646435D01*
X115491862Y-89634704D01*
X115456223Y-89615654D01*
X115424983Y-89590017D01*
X115399346Y-89558777D01*
X115380296Y-89523138D01*
X115368565Y-89484468D01*
X115364000Y-89438112D01*
X115364000Y-88361888D01*
X115368565Y-88315532D01*
X115380296Y-88276862D01*
X115399346Y-88241223D01*
X115424983Y-88209983D01*
X115456223Y-88184346D01*
X115491862Y-88165296D01*
X115530532Y-88153565D01*
X115576888Y-88149000D01*
X116228112Y-88149000D01*
X116274468Y-88153565D01*
G37*
G36*
X114339468Y-88153565D02*
G01*
X114378138Y-88165296D01*
X114413777Y-88184346D01*
X114445017Y-88209983D01*
X114470654Y-88241223D01*
X114489704Y-88276862D01*
X114501435Y-88315532D01*
X114506000Y-88361888D01*
X114506000Y-89438112D01*
X114501435Y-89484468D01*
X114489704Y-89523138D01*
X114470654Y-89558777D01*
X114445017Y-89590017D01*
X114413777Y-89615654D01*
X114378138Y-89634704D01*
X114339468Y-89646435D01*
X114293112Y-89651000D01*
X113641888Y-89651000D01*
X113595532Y-89646435D01*
X113556862Y-89634704D01*
X113521223Y-89615654D01*
X113489983Y-89590017D01*
X113464346Y-89558777D01*
X113445296Y-89523138D01*
X113433565Y-89484468D01*
X113429000Y-89438112D01*
X113429000Y-88361888D01*
X113433565Y-88315532D01*
X113445296Y-88276862D01*
X113464346Y-88241223D01*
X113489983Y-88209983D01*
X113521223Y-88184346D01*
X113556862Y-88165296D01*
X113595532Y-88153565D01*
X113641888Y-88149000D01*
X114293112Y-88149000D01*
X114339468Y-88153565D01*
G37*
G36*
X130849468Y-87518565D02*
G01*
X130888138Y-87530296D01*
X130923777Y-87549346D01*
X130955017Y-87574983D01*
X130980654Y-87606223D01*
X130999704Y-87641862D01*
X131011435Y-87680532D01*
X131016000Y-87726888D01*
X131016000Y-88803112D01*
X131011435Y-88849468D01*
X130999704Y-88888138D01*
X130980654Y-88923777D01*
X130955017Y-88955017D01*
X130923777Y-88980654D01*
X130888138Y-88999704D01*
X130849468Y-89011435D01*
X130803112Y-89016000D01*
X130151888Y-89016000D01*
X130105532Y-89011435D01*
X130066862Y-88999704D01*
X130031223Y-88980654D01*
X129999983Y-88955017D01*
X129974346Y-88923777D01*
X129955296Y-88888138D01*
X129943565Y-88849468D01*
X129939000Y-88803112D01*
X129939000Y-87726888D01*
X129943565Y-87680532D01*
X129955296Y-87641862D01*
X129974346Y-87606223D01*
X129999983Y-87574983D01*
X130031223Y-87549346D01*
X130066862Y-87530296D01*
X130105532Y-87518565D01*
X130151888Y-87514000D01*
X130803112Y-87514000D01*
X130849468Y-87518565D01*
G37*
G36*
X128974468Y-87518565D02*
G01*
X129013138Y-87530296D01*
X129048777Y-87549346D01*
X129080017Y-87574983D01*
X129105654Y-87606223D01*
X129124704Y-87641862D01*
X129136435Y-87680532D01*
X129141000Y-87726888D01*
X129141000Y-88803112D01*
X129136435Y-88849468D01*
X129124704Y-88888138D01*
X129105654Y-88923777D01*
X129080017Y-88955017D01*
X129048777Y-88980654D01*
X129013138Y-88999704D01*
X128974468Y-89011435D01*
X128928112Y-89016000D01*
X128276888Y-89016000D01*
X128230532Y-89011435D01*
X128191862Y-88999704D01*
X128156223Y-88980654D01*
X128124983Y-88955017D01*
X128099346Y-88923777D01*
X128080296Y-88888138D01*
X128068565Y-88849468D01*
X128064000Y-88803112D01*
X128064000Y-87726888D01*
X128068565Y-87680532D01*
X128080296Y-87641862D01*
X128099346Y-87606223D01*
X128124983Y-87574983D01*
X128156223Y-87549346D01*
X128191862Y-87530296D01*
X128230532Y-87518565D01*
X128276888Y-87514000D01*
X128928112Y-87514000D01*
X128974468Y-87518565D01*
G37*
G36*
X140268800Y-88038600D02*
G01*
X138166800Y-88038600D01*
X138166800Y-86436600D01*
X140268800Y-86436600D01*
X140268800Y-88038600D01*
G37*
G36*
X133968800Y-86888600D02*
G01*
X131866800Y-86888600D01*
X131866800Y-82986600D01*
X133968800Y-82986600D01*
X133968800Y-86888600D01*
G37*
G36*
X103903500Y-86011886D02*
G01*
X103904102Y-86024138D01*
X103906649Y-86050000D01*
X103904102Y-86075862D01*
X103903500Y-86088114D01*
X103903500Y-86161406D01*
X103894543Y-86178164D01*
X103890415Y-86189701D01*
X103864632Y-86274693D01*
X103856854Y-86300336D01*
X103796406Y-86413425D01*
X103715054Y-86512554D01*
X103615925Y-86593906D01*
X103502836Y-86654354D01*
X103470904Y-86664040D01*
X103380118Y-86691580D01*
X103316355Y-86697860D01*
X103284474Y-86701000D01*
X102520526Y-86701000D01*
X102488645Y-86697860D01*
X102424882Y-86691580D01*
X102334096Y-86664040D01*
X102302164Y-86654354D01*
X102189075Y-86593906D01*
X102089946Y-86512554D01*
X102008594Y-86413425D01*
X101948146Y-86300336D01*
X101940368Y-86274693D01*
X101914587Y-86189708D01*
X101905213Y-86167075D01*
X101901500Y-86161518D01*
X101901500Y-86088114D01*
X101900898Y-86075862D01*
X101898351Y-86050000D01*
X101900898Y-86024138D01*
X101901500Y-86011886D01*
X101901500Y-84799000D01*
X103903500Y-84799000D01*
X103903500Y-86011886D01*
G37*
G36*
X142824468Y-85493565D02*
G01*
X142863138Y-85505296D01*
X142898777Y-85524346D01*
X142930017Y-85549983D01*
X142955654Y-85581223D01*
X142974704Y-85616862D01*
X142986435Y-85655532D01*
X142991000Y-85701888D01*
X142991000Y-86353112D01*
X142986435Y-86399468D01*
X142974704Y-86438138D01*
X142955654Y-86473777D01*
X142930017Y-86505017D01*
X142898777Y-86530654D01*
X142863138Y-86549704D01*
X142824468Y-86561435D01*
X142778112Y-86566000D01*
X141701888Y-86566000D01*
X141655532Y-86561435D01*
X141616862Y-86549704D01*
X141581223Y-86530654D01*
X141549983Y-86505017D01*
X141524346Y-86473777D01*
X141505296Y-86438138D01*
X141493565Y-86399468D01*
X141489000Y-86353112D01*
X141489000Y-85701888D01*
X141493565Y-85655532D01*
X141505296Y-85616862D01*
X141524346Y-85581223D01*
X141549983Y-85549983D01*
X141581223Y-85524346D01*
X141616862Y-85505296D01*
X141655532Y-85493565D01*
X141701888Y-85489000D01*
X142778112Y-85489000D01*
X142824468Y-85493565D01*
G37*
G36*
X146634468Y-85493565D02*
G01*
X146673138Y-85505296D01*
X146708777Y-85524346D01*
X146740017Y-85549983D01*
X146765654Y-85581223D01*
X146784704Y-85616862D01*
X146796435Y-85655532D01*
X146801000Y-85701888D01*
X146801000Y-86353112D01*
X146796435Y-86399468D01*
X146784704Y-86438138D01*
X146765654Y-86473777D01*
X146740017Y-86505017D01*
X146708777Y-86530654D01*
X146673138Y-86549704D01*
X146634468Y-86561435D01*
X146588112Y-86566000D01*
X145511888Y-86566000D01*
X145465532Y-86561435D01*
X145426862Y-86549704D01*
X145391223Y-86530654D01*
X145359983Y-86505017D01*
X145334346Y-86473777D01*
X145315296Y-86438138D01*
X145303565Y-86399468D01*
X145299000Y-86353112D01*
X145299000Y-85701888D01*
X145303565Y-85655532D01*
X145315296Y-85616862D01*
X145334346Y-85581223D01*
X145359983Y-85549983D01*
X145391223Y-85524346D01*
X145426862Y-85505296D01*
X145465532Y-85493565D01*
X145511888Y-85489000D01*
X146588112Y-85489000D01*
X146634468Y-85493565D01*
G37*
G36*
X119361000Y-86276000D02*
G01*
X116859000Y-86276000D01*
X116859000Y-84724000D01*
X119361000Y-84724000D01*
X119361000Y-86276000D01*
G37*
G36*
X105828848Y-79303820D02*
G01*
X105828850Y-79303821D01*
X105828851Y-79303821D01*
X105970074Y-79362317D01*
X105970077Y-79362319D01*
X106097169Y-79447239D01*
X106205261Y-79555331D01*
X106282805Y-79671384D01*
X106290183Y-79682426D01*
X106335155Y-79791000D01*
X106348680Y-79823652D01*
X106378500Y-79973569D01*
X106378500Y-80126431D01*
X106360684Y-80216000D01*
X106348679Y-80276351D01*
X106290183Y-80417574D01*
X106290181Y-80417577D01*
X106205261Y-80544669D01*
X106097169Y-80652761D01*
X106012440Y-80709375D01*
X105970074Y-80737683D01*
X105919772Y-80758519D01*
X105898164Y-80770068D01*
X105879222Y-80785614D01*
X105863677Y-80804556D01*
X105852126Y-80826166D01*
X105845013Y-80849615D01*
X105842611Y-80874001D01*
X105845013Y-80898387D01*
X105852126Y-80921836D01*
X105863677Y-80943447D01*
X105879223Y-80962389D01*
X105898165Y-80977934D01*
X105919775Y-80989485D01*
X105943224Y-80996598D01*
X105967610Y-80999000D01*
X106328500Y-80999000D01*
X106328500Y-84101000D01*
X105967610Y-84101000D01*
X105943224Y-84103402D01*
X105919775Y-84110515D01*
X105898164Y-84122066D01*
X105879222Y-84137611D01*
X105863677Y-84156553D01*
X105852126Y-84178164D01*
X105845013Y-84201613D01*
X105842611Y-84225999D01*
X105845013Y-84250385D01*
X105852126Y-84273834D01*
X105863677Y-84295445D01*
X105879222Y-84314387D01*
X105898164Y-84329932D01*
X105919772Y-84341481D01*
X105970074Y-84362317D01*
X105970075Y-84362318D01*
X106097169Y-84447239D01*
X106205261Y-84555331D01*
X106282218Y-84670505D01*
X106290183Y-84682426D01*
X106307403Y-84724000D01*
X106348680Y-84823652D01*
X106378500Y-84973569D01*
X106378500Y-85126431D01*
X106374608Y-85146000D01*
X106348679Y-85276351D01*
X106290183Y-85417574D01*
X106290181Y-85417577D01*
X106205261Y-85544669D01*
X106097169Y-85652761D01*
X106046564Y-85686574D01*
X105970074Y-85737683D01*
X105828851Y-85796179D01*
X105828850Y-85796179D01*
X105828848Y-85796180D01*
X105678931Y-85826000D01*
X105526069Y-85826000D01*
X105376152Y-85796180D01*
X105376150Y-85796179D01*
X105376149Y-85796179D01*
X105234926Y-85737683D01*
X105158436Y-85686574D01*
X105107831Y-85652761D01*
X104999739Y-85544669D01*
X104914819Y-85417577D01*
X104914817Y-85417574D01*
X104856321Y-85276351D01*
X104830393Y-85146000D01*
X104826500Y-85126431D01*
X104826500Y-84973569D01*
X104856320Y-84823652D01*
X104897597Y-84724000D01*
X104914817Y-84682426D01*
X104922782Y-84670505D01*
X104999739Y-84555331D01*
X105107831Y-84447239D01*
X105234925Y-84362318D01*
X105234926Y-84362317D01*
X105285228Y-84341481D01*
X105306836Y-84329932D01*
X105325778Y-84314386D01*
X105341323Y-84295444D01*
X105352874Y-84273834D01*
X105359987Y-84250385D01*
X105362389Y-84225999D01*
X105359987Y-84201613D01*
X105352874Y-84178164D01*
X105341323Y-84156553D01*
X105325777Y-84137611D01*
X105306835Y-84122066D01*
X105285225Y-84110515D01*
X105261776Y-84103402D01*
X105237390Y-84101000D01*
X104876500Y-84101000D01*
X104876500Y-80999000D01*
X105237390Y-80999000D01*
X105261776Y-80996598D01*
X105285225Y-80989485D01*
X105306836Y-80977934D01*
X105325778Y-80962389D01*
X105341323Y-80943447D01*
X105352874Y-80921836D01*
X105359987Y-80898387D01*
X105362389Y-80874001D01*
X105359987Y-80849615D01*
X105352874Y-80826166D01*
X105341323Y-80804555D01*
X105325778Y-80785613D01*
X105306836Y-80770068D01*
X105285228Y-80758519D01*
X105234926Y-80737683D01*
X105192560Y-80709375D01*
X105107831Y-80652761D01*
X104999739Y-80544669D01*
X104914819Y-80417577D01*
X104914817Y-80417574D01*
X104856321Y-80276351D01*
X104844317Y-80216000D01*
X104826500Y-80126431D01*
X104826500Y-79973569D01*
X104856320Y-79823652D01*
X104869845Y-79791000D01*
X104914817Y-79682426D01*
X104922195Y-79671384D01*
X104999739Y-79555331D01*
X105107831Y-79447239D01*
X105234923Y-79362319D01*
X105234926Y-79362317D01*
X105376149Y-79303821D01*
X105376150Y-79303821D01*
X105376152Y-79303820D01*
X105526069Y-79274000D01*
X105678931Y-79274000D01*
X105828848Y-79303820D01*
G37*
G36*
X114431000Y-85751000D02*
G01*
X111629000Y-85751000D01*
X111629000Y-84149000D01*
X114431000Y-84149000D01*
X114431000Y-85751000D01*
G37*
G36*
X140268800Y-85738600D02*
G01*
X138166800Y-85738600D01*
X138166800Y-84136600D01*
X140268800Y-84136600D01*
X140268800Y-85738600D01*
G37*
G36*
X128681000Y-85146000D02*
G01*
X127519000Y-85146000D01*
X127519000Y-82494000D01*
X128681000Y-82494000D01*
X128681000Y-85146000D01*
G37*
G36*
X126481000Y-85146000D02*
G01*
X125319000Y-85146000D01*
X125319000Y-82494000D01*
X126481000Y-82494000D01*
X126481000Y-85146000D01*
G37*
G36*
X149973512Y-82923927D02*
G01*
X150122812Y-82953624D01*
X150286784Y-83021544D01*
X150434354Y-83120147D01*
X150559853Y-83245646D01*
X150658456Y-83393216D01*
X150726376Y-83557188D01*
X150761000Y-83731259D01*
X150761000Y-83908741D01*
X150726376Y-84082812D01*
X150658456Y-84246784D01*
X150559853Y-84394354D01*
X150434354Y-84519853D01*
X150286784Y-84618456D01*
X150122812Y-84686376D01*
X149973512Y-84716073D01*
X149948742Y-84721000D01*
X149771258Y-84721000D01*
X149746488Y-84716073D01*
X149597188Y-84686376D01*
X149433216Y-84618456D01*
X149285646Y-84519853D01*
X149160147Y-84394354D01*
X149061544Y-84246784D01*
X148993624Y-84082812D01*
X148959000Y-83908741D01*
X148959000Y-83731259D01*
X148993624Y-83557188D01*
X149061544Y-83393216D01*
X149160147Y-83245646D01*
X149285646Y-83120147D01*
X149433216Y-83021544D01*
X149597188Y-82953624D01*
X149746488Y-82923927D01*
X149771258Y-82919000D01*
X149948742Y-82919000D01*
X149973512Y-82923927D01*
G37*
G36*
X146634468Y-83618565D02*
G01*
X146673138Y-83630296D01*
X146708777Y-83649346D01*
X146740017Y-83674983D01*
X146765654Y-83706223D01*
X146784704Y-83741862D01*
X146796435Y-83780532D01*
X146801000Y-83826888D01*
X146801000Y-84478112D01*
X146796435Y-84524468D01*
X146784704Y-84563138D01*
X146765654Y-84598777D01*
X146740017Y-84630017D01*
X146708777Y-84655654D01*
X146673138Y-84674704D01*
X146634468Y-84686435D01*
X146588112Y-84691000D01*
X145511888Y-84691000D01*
X145465532Y-84686435D01*
X145426862Y-84674704D01*
X145391223Y-84655654D01*
X145359983Y-84630017D01*
X145334346Y-84598777D01*
X145315296Y-84563138D01*
X145303565Y-84524468D01*
X145299000Y-84478112D01*
X145299000Y-83826888D01*
X145303565Y-83780532D01*
X145315296Y-83741862D01*
X145334346Y-83706223D01*
X145359983Y-83674983D01*
X145391223Y-83649346D01*
X145426862Y-83630296D01*
X145465532Y-83618565D01*
X145511888Y-83614000D01*
X146588112Y-83614000D01*
X146634468Y-83618565D01*
G37*
G36*
X142824468Y-83618565D02*
G01*
X142863138Y-83630296D01*
X142898777Y-83649346D01*
X142930017Y-83674983D01*
X142955654Y-83706223D01*
X142974704Y-83741862D01*
X142986435Y-83780532D01*
X142991000Y-83826888D01*
X142991000Y-84478112D01*
X142986435Y-84524468D01*
X142974704Y-84563138D01*
X142955654Y-84598777D01*
X142930017Y-84630017D01*
X142898777Y-84655654D01*
X142863138Y-84674704D01*
X142824468Y-84686435D01*
X142778112Y-84691000D01*
X141701888Y-84691000D01*
X141655532Y-84686435D01*
X141616862Y-84674704D01*
X141581223Y-84655654D01*
X141549983Y-84630017D01*
X141524346Y-84598777D01*
X141505296Y-84563138D01*
X141493565Y-84524468D01*
X141489000Y-84478112D01*
X141489000Y-83826888D01*
X141493565Y-83780532D01*
X141505296Y-83741862D01*
X141524346Y-83706223D01*
X141549983Y-83674983D01*
X141581223Y-83649346D01*
X141616862Y-83630296D01*
X141655532Y-83618565D01*
X141701888Y-83614000D01*
X142778112Y-83614000D01*
X142824468Y-83618565D01*
G37*
G36*
X103903500Y-84351000D02*
G01*
X101901500Y-84351000D01*
X101901500Y-82749000D01*
X103903500Y-82749000D01*
X103903500Y-84351000D01*
G37*
G36*
X122504468Y-82953565D02*
G01*
X122543138Y-82965296D01*
X122578777Y-82984346D01*
X122610017Y-83009983D01*
X122635654Y-83041223D01*
X122654704Y-83076862D01*
X122666435Y-83115532D01*
X122671000Y-83161888D01*
X122671000Y-83813112D01*
X122666435Y-83859468D01*
X122654704Y-83898138D01*
X122635654Y-83933777D01*
X122610017Y-83965017D01*
X122578777Y-83990654D01*
X122543138Y-84009704D01*
X122504468Y-84021435D01*
X122458112Y-84026000D01*
X121381888Y-84026000D01*
X121335532Y-84021435D01*
X121296862Y-84009704D01*
X121261223Y-83990654D01*
X121229983Y-83965017D01*
X121204346Y-83933777D01*
X121185296Y-83898138D01*
X121173565Y-83859468D01*
X121169000Y-83813112D01*
X121169000Y-83161888D01*
X121173565Y-83115532D01*
X121185296Y-83076862D01*
X121204346Y-83041223D01*
X121229983Y-83009983D01*
X121261223Y-82984346D01*
X121296862Y-82965296D01*
X121335532Y-82953565D01*
X121381888Y-82949000D01*
X122458112Y-82949000D01*
X122504468Y-82953565D01*
G37*
G36*
X140268800Y-83438600D02*
G01*
X138166800Y-83438600D01*
X138166800Y-81836600D01*
X140268800Y-81836600D01*
X140268800Y-83438600D01*
G37*
G36*
X103903500Y-82351000D02*
G01*
X101901500Y-82351000D01*
X101901500Y-80749000D01*
X103903500Y-80749000D01*
X103903500Y-82351000D01*
G37*
G36*
X150761000Y-82181000D02*
G01*
X148959000Y-82181000D01*
X148959000Y-80379000D01*
X150761000Y-80379000D01*
X150761000Y-82181000D01*
G37*
G36*
X122504468Y-81078565D02*
G01*
X122543138Y-81090296D01*
X122578777Y-81109346D01*
X122610017Y-81134983D01*
X122635654Y-81166223D01*
X122654704Y-81201862D01*
X122666435Y-81240532D01*
X122671000Y-81286888D01*
X122671000Y-81938112D01*
X122666435Y-81984468D01*
X122654704Y-82023138D01*
X122635654Y-82058777D01*
X122610017Y-82090017D01*
X122578777Y-82115654D01*
X122543138Y-82134704D01*
X122504468Y-82146435D01*
X122458112Y-82151000D01*
X121381888Y-82151000D01*
X121335532Y-82146435D01*
X121296862Y-82134704D01*
X121261223Y-82115654D01*
X121229983Y-82090017D01*
X121204346Y-82058777D01*
X121185296Y-82023138D01*
X121173565Y-81984468D01*
X121169000Y-81938112D01*
X121169000Y-81286888D01*
X121173565Y-81240532D01*
X121185296Y-81201862D01*
X121204346Y-81166223D01*
X121229983Y-81134983D01*
X121261223Y-81109346D01*
X121296862Y-81090296D01*
X121335532Y-81078565D01*
X121381888Y-81074000D01*
X122458112Y-81074000D01*
X122504468Y-81078565D01*
G37*
G36*
X114431000Y-80951000D02*
G01*
X111629000Y-80951000D01*
X111629000Y-79349000D01*
X114431000Y-79349000D01*
X114431000Y-80951000D01*
G37*
G36*
X119361000Y-80376000D02*
G01*
X116859000Y-80376000D01*
X116859000Y-78824000D01*
X119361000Y-78824000D01*
X119361000Y-80376000D01*
G37*
G36*
X103316355Y-78402140D02*
G01*
X103380118Y-78408420D01*
X103462581Y-78433435D01*
X103502836Y-78445646D01*
X103615925Y-78506094D01*
X103715054Y-78587446D01*
X103796406Y-78686575D01*
X103856854Y-78799664D01*
X103856855Y-78799668D01*
X103890413Y-78910292D01*
X103899787Y-78932925D01*
X103903500Y-78938482D01*
X103903500Y-79011886D01*
X103904102Y-79024138D01*
X103906649Y-79050000D01*
X103904102Y-79075862D01*
X103903500Y-79088114D01*
X103903500Y-80301000D01*
X101901500Y-80301000D01*
X101901500Y-79088114D01*
X101900898Y-79075862D01*
X101898351Y-79050000D01*
X101900898Y-79024138D01*
X101901500Y-79011886D01*
X101901500Y-78938594D01*
X101910457Y-78921836D01*
X101914585Y-78910299D01*
X101948145Y-78799668D01*
X101948146Y-78799664D01*
X102008594Y-78686575D01*
X102089946Y-78587446D01*
X102189075Y-78506094D01*
X102302164Y-78445646D01*
X102342419Y-78433435D01*
X102424882Y-78408420D01*
X102488645Y-78402140D01*
X102520526Y-78399000D01*
X103284474Y-78399000D01*
X103316355Y-78402140D01*
G37*
G36*
X109804468Y-79143565D02*
G01*
X109843138Y-79155296D01*
X109878777Y-79174346D01*
X109910017Y-79199983D01*
X109935654Y-79231223D01*
X109954704Y-79266862D01*
X109966435Y-79305532D01*
X109971000Y-79351888D01*
X109971000Y-80003112D01*
X109966435Y-80049468D01*
X109954704Y-80088138D01*
X109935654Y-80123777D01*
X109910017Y-80155017D01*
X109878777Y-80180654D01*
X109843138Y-80199704D01*
X109804468Y-80211435D01*
X109758112Y-80216000D01*
X108681888Y-80216000D01*
X108635532Y-80211435D01*
X108596862Y-80199704D01*
X108561223Y-80180654D01*
X108529983Y-80155017D01*
X108504346Y-80123777D01*
X108485296Y-80088138D01*
X108473565Y-80049468D01*
X108469000Y-80003112D01*
X108469000Y-79351888D01*
X108473565Y-79305532D01*
X108485296Y-79266862D01*
X108504346Y-79231223D01*
X108529983Y-79199983D01*
X108561223Y-79174346D01*
X108596862Y-79155296D01*
X108635532Y-79143565D01*
X108681888Y-79139000D01*
X109758112Y-79139000D01*
X109804468Y-79143565D01*
G37*
G36*
X134291000Y-80141000D02*
G01*
X132689000Y-80141000D01*
X132689000Y-77339000D01*
X134291000Y-77339000D01*
X134291000Y-80141000D01*
G37*
G36*
X139091000Y-80141000D02*
G01*
X137489000Y-80141000D01*
X137489000Y-77339000D01*
X139091000Y-77339000D01*
X139091000Y-80141000D01*
G37*
G36*
X143816564Y-77729389D02*
G01*
X144007833Y-77808615D01*
X144007835Y-77808616D01*
X144179973Y-77923635D01*
X144326365Y-78070027D01*
X144421989Y-78213138D01*
X144441385Y-78242167D01*
X144520611Y-78433436D01*
X144561000Y-78636484D01*
X144561000Y-78843516D01*
X144520611Y-79046564D01*
X144448047Y-79221750D01*
X144441384Y-79237835D01*
X144326365Y-79409973D01*
X144179973Y-79556365D01*
X144007835Y-79671384D01*
X144007834Y-79671385D01*
X144007833Y-79671385D01*
X143816564Y-79750611D01*
X143613516Y-79791000D01*
X143406484Y-79791000D01*
X143203436Y-79750611D01*
X143012167Y-79671385D01*
X143012166Y-79671385D01*
X143012165Y-79671384D01*
X142840027Y-79556365D01*
X142693635Y-79409973D01*
X142578616Y-79237835D01*
X142571953Y-79221750D01*
X142499389Y-79046564D01*
X142459000Y-78843516D01*
X142459000Y-78636484D01*
X142499389Y-78433436D01*
X142578615Y-78242167D01*
X142598012Y-78213138D01*
X142693635Y-78070027D01*
X142840027Y-77923635D01*
X143012165Y-77808616D01*
X143012167Y-77808615D01*
X143203436Y-77729389D01*
X143406484Y-77689000D01*
X143613516Y-77689000D01*
X143816564Y-77729389D01*
G37*
G36*
X127704468Y-77993565D02*
G01*
X127743138Y-78005296D01*
X127778777Y-78024346D01*
X127810017Y-78049983D01*
X127835654Y-78081223D01*
X127854704Y-78116862D01*
X127866435Y-78155532D01*
X127871000Y-78201888D01*
X127871000Y-79278112D01*
X127866435Y-79324468D01*
X127854704Y-79363138D01*
X127835654Y-79398777D01*
X127810017Y-79430017D01*
X127778777Y-79455654D01*
X127743138Y-79474704D01*
X127704468Y-79486435D01*
X127658112Y-79491000D01*
X127006888Y-79491000D01*
X126960532Y-79486435D01*
X126921862Y-79474704D01*
X126886223Y-79455654D01*
X126854983Y-79430017D01*
X126829346Y-79398777D01*
X126810296Y-79363138D01*
X126798565Y-79324468D01*
X126794000Y-79278112D01*
X126794000Y-78201888D01*
X126798565Y-78155532D01*
X126810296Y-78116862D01*
X126829346Y-78081223D01*
X126854983Y-78049983D01*
X126886223Y-78024346D01*
X126921862Y-78005296D01*
X126960532Y-77993565D01*
X127006888Y-77989000D01*
X127658112Y-77989000D01*
X127704468Y-77993565D01*
G37*
G36*
X125769468Y-77993565D02*
G01*
X125808138Y-78005296D01*
X125843777Y-78024346D01*
X125875017Y-78049983D01*
X125900654Y-78081223D01*
X125919704Y-78116862D01*
X125931435Y-78155532D01*
X125936000Y-78201888D01*
X125936000Y-79278112D01*
X125931435Y-79324468D01*
X125919704Y-79363138D01*
X125900654Y-79398777D01*
X125875017Y-79430017D01*
X125843777Y-79455654D01*
X125808138Y-79474704D01*
X125769468Y-79486435D01*
X125723112Y-79491000D01*
X125071888Y-79491000D01*
X125025532Y-79486435D01*
X124986862Y-79474704D01*
X124951223Y-79455654D01*
X124919983Y-79430017D01*
X124894346Y-79398777D01*
X124875296Y-79363138D01*
X124863565Y-79324468D01*
X124859000Y-79278112D01*
X124859000Y-78201888D01*
X124863565Y-78155532D01*
X124875296Y-78116862D01*
X124894346Y-78081223D01*
X124919983Y-78049983D01*
X124951223Y-78024346D01*
X124986862Y-78005296D01*
X125025532Y-77993565D01*
X125071888Y-77989000D01*
X125723112Y-77989000D01*
X125769468Y-77993565D01*
G37*
G36*
X129579468Y-77993565D02*
G01*
X129618138Y-78005296D01*
X129653777Y-78024346D01*
X129685017Y-78049983D01*
X129710654Y-78081223D01*
X129729704Y-78116862D01*
X129741435Y-78155532D01*
X129746000Y-78201888D01*
X129746000Y-79278112D01*
X129741435Y-79324468D01*
X129729704Y-79363138D01*
X129710654Y-79398777D01*
X129685017Y-79430017D01*
X129653777Y-79455654D01*
X129618138Y-79474704D01*
X129579468Y-79486435D01*
X129533112Y-79491000D01*
X128881888Y-79491000D01*
X128835532Y-79486435D01*
X128796862Y-79474704D01*
X128761223Y-79455654D01*
X128729983Y-79430017D01*
X128704346Y-79398777D01*
X128685296Y-79363138D01*
X128673565Y-79324468D01*
X128669000Y-79278112D01*
X128669000Y-78201888D01*
X128673565Y-78155532D01*
X128685296Y-78116862D01*
X128704346Y-78081223D01*
X128729983Y-78049983D01*
X128761223Y-78024346D01*
X128796862Y-78005296D01*
X128835532Y-77993565D01*
X128881888Y-77989000D01*
X129533112Y-77989000D01*
X129579468Y-77993565D01*
G37*
G36*
X123894468Y-77993565D02*
G01*
X123933138Y-78005296D01*
X123968777Y-78024346D01*
X124000017Y-78049983D01*
X124025654Y-78081223D01*
X124044704Y-78116862D01*
X124056435Y-78155532D01*
X124061000Y-78201888D01*
X124061000Y-79278112D01*
X124056435Y-79324468D01*
X124044704Y-79363138D01*
X124025654Y-79398777D01*
X124000017Y-79430017D01*
X123968777Y-79455654D01*
X123933138Y-79474704D01*
X123894468Y-79486435D01*
X123848112Y-79491000D01*
X123196888Y-79491000D01*
X123150532Y-79486435D01*
X123111862Y-79474704D01*
X123076223Y-79455654D01*
X123044983Y-79430017D01*
X123019346Y-79398777D01*
X123000296Y-79363138D01*
X122988565Y-79324468D01*
X122984000Y-79278112D01*
X122984000Y-78201888D01*
X122988565Y-78155532D01*
X123000296Y-78116862D01*
X123019346Y-78081223D01*
X123044983Y-78049983D01*
X123076223Y-78024346D01*
X123111862Y-78005296D01*
X123150532Y-77993565D01*
X123196888Y-77989000D01*
X123848112Y-77989000D01*
X123894468Y-77993565D01*
G37*
G36*
X109804468Y-77268565D02*
G01*
X109843138Y-77280296D01*
X109878777Y-77299346D01*
X109910017Y-77324983D01*
X109935654Y-77356223D01*
X109954704Y-77391862D01*
X109966435Y-77430532D01*
X109971000Y-77476888D01*
X109971000Y-78128112D01*
X109966435Y-78174468D01*
X109954704Y-78213138D01*
X109935654Y-78248777D01*
X109910017Y-78280017D01*
X109878777Y-78305654D01*
X109843138Y-78324704D01*
X109804468Y-78336435D01*
X109758112Y-78341000D01*
X108681888Y-78341000D01*
X108635532Y-78336435D01*
X108596862Y-78324704D01*
X108561223Y-78305654D01*
X108529983Y-78280017D01*
X108504346Y-78248777D01*
X108485296Y-78213138D01*
X108473565Y-78174468D01*
X108469000Y-78128112D01*
X108469000Y-77476888D01*
X108473565Y-77430532D01*
X108485296Y-77391862D01*
X108504346Y-77356223D01*
X108529983Y-77324983D01*
X108561223Y-77299346D01*
X108596862Y-77280296D01*
X108635532Y-77268565D01*
X108681888Y-77264000D01*
X109758112Y-77264000D01*
X109804468Y-77268565D01*
G37*
G36*
X143816564Y-75189389D02*
G01*
X144007833Y-75268615D01*
X144007835Y-75268616D01*
X144179973Y-75383635D01*
X144326365Y-75530027D01*
X144432289Y-75688553D01*
X144441385Y-75702167D01*
X144520611Y-75893436D01*
X144561000Y-76096484D01*
X144561000Y-76303516D01*
X144520611Y-76506564D01*
X144441385Y-76697833D01*
X144441384Y-76697835D01*
X144326365Y-76869973D01*
X144179973Y-77016365D01*
X144007835Y-77131384D01*
X144007834Y-77131385D01*
X144007833Y-77131385D01*
X143816564Y-77210611D01*
X143613516Y-77251000D01*
X143406484Y-77251000D01*
X143203436Y-77210611D01*
X143012167Y-77131385D01*
X143012166Y-77131385D01*
X143012165Y-77131384D01*
X142840027Y-77016365D01*
X142693635Y-76869973D01*
X142578616Y-76697835D01*
X142578615Y-76697833D01*
X142499389Y-76506564D01*
X142459000Y-76303516D01*
X142459000Y-76096484D01*
X142499389Y-75893436D01*
X142578615Y-75702167D01*
X142587712Y-75688553D01*
X142693635Y-75530027D01*
X142840027Y-75383635D01*
X143012165Y-75268616D01*
X143012167Y-75268615D01*
X143203436Y-75189389D01*
X143406484Y-75149000D01*
X143613516Y-75149000D01*
X143816564Y-75189389D01*
G37*
G36*
X139299928Y-75216764D02*
G01*
X139321009Y-75223160D01*
X139340445Y-75233548D01*
X139357476Y-75247524D01*
X139371452Y-75264555D01*
X139381840Y-75283991D01*
X139388236Y-75305072D01*
X139391000Y-75333140D01*
X139391000Y-75796860D01*
X139388236Y-75824928D01*
X139381840Y-75846009D01*
X139371452Y-75865445D01*
X139357476Y-75882476D01*
X139340445Y-75896452D01*
X139321009Y-75906840D01*
X139299928Y-75913236D01*
X139271860Y-75916000D01*
X137458140Y-75916000D01*
X137430072Y-75913236D01*
X137408991Y-75906840D01*
X137389555Y-75896452D01*
X137372524Y-75882476D01*
X137358548Y-75865445D01*
X137348160Y-75846009D01*
X137341764Y-75824928D01*
X137339000Y-75796860D01*
X137339000Y-75333140D01*
X137341764Y-75305072D01*
X137348160Y-75283991D01*
X137358548Y-75264555D01*
X137372524Y-75247524D01*
X137389555Y-75233548D01*
X137408991Y-75223160D01*
X137430072Y-75216764D01*
X137458140Y-75214000D01*
X139271860Y-75214000D01*
X139299928Y-75216764D01*
G37*
G36*
X134349928Y-75216764D02*
G01*
X134371009Y-75223160D01*
X134390445Y-75233548D01*
X134407476Y-75247524D01*
X134421452Y-75264555D01*
X134431840Y-75283991D01*
X134438236Y-75305072D01*
X134441000Y-75333140D01*
X134441000Y-75796860D01*
X134438236Y-75824928D01*
X134431840Y-75846009D01*
X134421452Y-75865445D01*
X134407476Y-75882476D01*
X134390445Y-75896452D01*
X134371009Y-75906840D01*
X134349928Y-75913236D01*
X134321860Y-75916000D01*
X132508140Y-75916000D01*
X132480072Y-75913236D01*
X132458991Y-75906840D01*
X132439555Y-75896452D01*
X132422524Y-75882476D01*
X132408548Y-75865445D01*
X132398160Y-75846009D01*
X132391764Y-75824928D01*
X132389000Y-75796860D01*
X132389000Y-75333140D01*
X132391764Y-75305072D01*
X132398160Y-75283991D01*
X132408548Y-75264555D01*
X132422524Y-75247524D01*
X132439555Y-75233548D01*
X132458991Y-75223160D01*
X132480072Y-75216764D01*
X132508140Y-75214000D01*
X134321860Y-75214000D01*
X134349928Y-75216764D01*
G37*
G36*
X120047618Y-74013420D02*
G01*
X120128400Y-74037925D01*
X120170336Y-74050646D01*
X120283425Y-74111094D01*
X120382554Y-74192446D01*
X120463906Y-74291575D01*
X120524354Y-74404664D01*
X120524355Y-74404668D01*
X120561580Y-74527382D01*
X120571000Y-74623027D01*
X120571000Y-75236973D01*
X120561580Y-75332618D01*
X120554711Y-75355262D01*
X120524354Y-75455336D01*
X120463906Y-75568425D01*
X120382554Y-75667553D01*
X120283424Y-75748906D01*
X120170335Y-75809354D01*
X120138403Y-75819040D01*
X120047617Y-75846580D01*
X119920000Y-75859149D01*
X119792382Y-75846580D01*
X119701596Y-75819040D01*
X119669664Y-75809354D01*
X119556575Y-75748906D01*
X119457447Y-75667554D01*
X119376094Y-75568424D01*
X119315646Y-75455335D01*
X119305960Y-75423403D01*
X119278420Y-75332617D01*
X119270039Y-75247524D01*
X119269000Y-75236973D01*
X119269000Y-74623026D01*
X119278420Y-74527384D01*
X119278420Y-74527382D01*
X119315645Y-74404668D01*
X119315645Y-74404667D01*
X119347957Y-74344217D01*
X119376095Y-74291574D01*
X119389493Y-74275249D01*
X119457447Y-74192446D01*
X119556576Y-74111094D01*
X119669665Y-74050646D01*
X119711601Y-74037925D01*
X119792383Y-74013420D01*
X119920000Y-74000851D01*
X120047618Y-74013420D01*
G37*
G36*
X122411242Y-74008404D02*
G01*
X122448337Y-74019657D01*
X122482515Y-74037925D01*
X122512481Y-74062519D01*
X122537075Y-74092485D01*
X122555343Y-74126663D01*
X122566596Y-74163758D01*
X122571000Y-74208474D01*
X122571000Y-75651526D01*
X122566596Y-75696242D01*
X122555343Y-75733337D01*
X122537075Y-75767515D01*
X122512481Y-75797481D01*
X122482515Y-75822075D01*
X122448337Y-75840343D01*
X122411242Y-75851596D01*
X122366526Y-75856000D01*
X121473474Y-75856000D01*
X121428758Y-75851596D01*
X121391663Y-75840343D01*
X121357485Y-75822075D01*
X121327519Y-75797481D01*
X121302925Y-75767515D01*
X121284657Y-75733337D01*
X121273404Y-75696242D01*
X121269000Y-75651526D01*
X121269000Y-74208474D01*
X121273404Y-74163758D01*
X121284657Y-74126663D01*
X121302925Y-74092485D01*
X121327519Y-74062519D01*
X121357485Y-74037925D01*
X121391663Y-74019657D01*
X121428758Y-74008404D01*
X121473474Y-74004000D01*
X122366526Y-74004000D01*
X122411242Y-74008404D01*
G37*
G36*
X150158393Y-72036009D02*
G01*
X150341579Y-72072447D01*
X150642042Y-72196903D01*
X150912451Y-72377585D01*
X151142415Y-72607549D01*
X151323097Y-72877958D01*
X151409125Y-73085647D01*
X151447553Y-73178422D01*
X151511000Y-73497389D01*
X151511000Y-73822611D01*
X151486854Y-73944000D01*
X151447553Y-74141579D01*
X151359550Y-74354037D01*
X151338580Y-74404664D01*
X151323097Y-74442042D01*
X151142415Y-74712451D01*
X150912451Y-74942415D01*
X150642042Y-75123097D01*
X150341579Y-75247553D01*
X150256104Y-75264555D01*
X150022611Y-75311000D01*
X149697389Y-75311000D01*
X149463896Y-75264555D01*
X149378421Y-75247553D01*
X149077958Y-75123097D01*
X148807549Y-74942415D01*
X148577585Y-74712451D01*
X148396903Y-74442042D01*
X148381421Y-74404664D01*
X148360450Y-74354037D01*
X148272447Y-74141579D01*
X148233146Y-73944000D01*
X148209000Y-73822611D01*
X148209000Y-73497389D01*
X148272447Y-73178422D01*
X148310876Y-73085647D01*
X148396903Y-72877958D01*
X148577585Y-72607549D01*
X148807549Y-72377585D01*
X149077958Y-72196903D01*
X149378421Y-72072447D01*
X149561607Y-72036009D01*
X149697389Y-72009000D01*
X150022611Y-72009000D01*
X150158393Y-72036009D01*
G37*
G36*
X105708393Y-72036009D02*
G01*
X105891579Y-72072447D01*
X106192042Y-72196903D01*
X106462451Y-72377585D01*
X106692415Y-72607549D01*
X106873097Y-72877958D01*
X106959125Y-73085647D01*
X106997553Y-73178422D01*
X107061000Y-73497389D01*
X107061000Y-73822611D01*
X107036854Y-73944000D01*
X106997553Y-74141579D01*
X106909550Y-74354037D01*
X106888580Y-74404664D01*
X106873097Y-74442042D01*
X106692415Y-74712451D01*
X106462451Y-74942415D01*
X106192042Y-75123097D01*
X105891579Y-75247553D01*
X105806104Y-75264555D01*
X105572611Y-75311000D01*
X105247389Y-75311000D01*
X105013896Y-75264555D01*
X104928421Y-75247553D01*
X104627958Y-75123097D01*
X104357549Y-74942415D01*
X104127585Y-74712451D01*
X103946903Y-74442042D01*
X103931421Y-74404664D01*
X103910450Y-74354037D01*
X103822447Y-74141579D01*
X103783146Y-73944000D01*
X103759000Y-73822611D01*
X103759000Y-73497389D01*
X103822447Y-73178422D01*
X103860876Y-73085647D01*
X103946903Y-72877958D01*
X104127585Y-72607549D01*
X104357549Y-72377585D01*
X104627958Y-72196903D01*
X104928421Y-72072447D01*
X105111607Y-72036009D01*
X105247389Y-72009000D01*
X105572611Y-72009000D01*
X105708393Y-72036009D01*
G37*
G36*
X144561000Y-74711000D02*
G01*
X142459000Y-74711000D01*
X142459000Y-72609000D01*
X144561000Y-72609000D01*
X144561000Y-74711000D01*
G37*
G36*
X134349928Y-73946764D02*
G01*
X134371009Y-73953160D01*
X134390445Y-73963548D01*
X134407476Y-73977524D01*
X134421452Y-73994555D01*
X134431840Y-74013991D01*
X134438236Y-74035072D01*
X134441000Y-74063140D01*
X134441000Y-74526860D01*
X134438236Y-74554928D01*
X134431840Y-74576009D01*
X134421452Y-74595445D01*
X134407476Y-74612476D01*
X134390445Y-74626452D01*
X134371009Y-74636840D01*
X134349928Y-74643236D01*
X134321860Y-74646000D01*
X132508140Y-74646000D01*
X132480072Y-74643236D01*
X132458991Y-74636840D01*
X132439555Y-74626452D01*
X132422524Y-74612476D01*
X132408548Y-74595445D01*
X132398160Y-74576009D01*
X132391764Y-74554928D01*
X132389000Y-74526860D01*
X132389000Y-74063140D01*
X132391764Y-74035072D01*
X132398160Y-74013991D01*
X132408548Y-73994555D01*
X132422524Y-73977524D01*
X132439555Y-73963548D01*
X132458991Y-73953160D01*
X132480072Y-73946764D01*
X132508140Y-73944000D01*
X134321860Y-73944000D01*
X134349928Y-73946764D01*
G37*
G36*
X139299928Y-73946764D02*
G01*
X139321009Y-73953160D01*
X139340445Y-73963548D01*
X139357476Y-73977524D01*
X139371452Y-73994555D01*
X139381840Y-74013991D01*
X139388236Y-74035072D01*
X139391000Y-74063140D01*
X139391000Y-74526860D01*
X139388236Y-74554928D01*
X139381840Y-74576009D01*
X139371452Y-74595445D01*
X139357476Y-74612476D01*
X139340445Y-74626452D01*
X139321009Y-74636840D01*
X139299928Y-74643236D01*
X139271860Y-74646000D01*
X137458140Y-74646000D01*
X137430072Y-74643236D01*
X137408991Y-74636840D01*
X137389555Y-74626452D01*
X137372524Y-74612476D01*
X137358548Y-74595445D01*
X137348160Y-74576009D01*
X137341764Y-74554928D01*
X137339000Y-74526860D01*
X137339000Y-74063140D01*
X137341764Y-74035072D01*
X137348160Y-74013991D01*
X137358548Y-73994555D01*
X137372524Y-73977524D01*
X137389555Y-73963548D01*
X137408991Y-73953160D01*
X137430072Y-73946764D01*
X137458140Y-73944000D01*
X139271860Y-73944000D01*
X139299928Y-73946764D01*
G37*
G36*
X130441000Y-74561000D02*
G01*
X128639000Y-74561000D01*
X128639000Y-72759000D01*
X130441000Y-72759000D01*
X130441000Y-74561000D01*
G37*
G36*
X127113512Y-72763927D02*
G01*
X127262812Y-72793624D01*
X127426784Y-72861544D01*
X127574354Y-72960147D01*
X127699853Y-73085646D01*
X127798456Y-73233216D01*
X127866376Y-73397188D01*
X127901000Y-73571259D01*
X127901000Y-73748741D01*
X127866376Y-73922812D01*
X127798456Y-74086784D01*
X127699853Y-74234354D01*
X127574354Y-74359853D01*
X127426784Y-74458456D01*
X127262812Y-74526376D01*
X127119268Y-74554928D01*
X127088742Y-74561000D01*
X126911258Y-74561000D01*
X126880732Y-74554928D01*
X126737188Y-74526376D01*
X126573216Y-74458456D01*
X126425646Y-74359853D01*
X126300147Y-74234354D01*
X126201544Y-74086784D01*
X126133624Y-73922812D01*
X126099000Y-73748741D01*
X126099000Y-73571259D01*
X126133624Y-73397188D01*
X126201544Y-73233216D01*
X126300147Y-73085646D01*
X126425646Y-72960147D01*
X126573216Y-72861544D01*
X126737188Y-72793624D01*
X126886488Y-72763927D01*
X126911258Y-72759000D01*
X127088742Y-72759000D01*
X127113512Y-72763927D01*
G37*
G36*
X115201000Y-74561000D02*
G01*
X113399000Y-74561000D01*
X113399000Y-72759000D01*
X115201000Y-72759000D01*
X115201000Y-74561000D01*
G37*
G36*
X111873512Y-72763927D02*
G01*
X112022812Y-72793624D01*
X112186784Y-72861544D01*
X112334354Y-72960147D01*
X112459853Y-73085646D01*
X112558456Y-73233216D01*
X112626376Y-73397188D01*
X112661000Y-73571259D01*
X112661000Y-73748741D01*
X112626376Y-73922812D01*
X112558456Y-74086784D01*
X112459853Y-74234354D01*
X112334354Y-74359853D01*
X112186784Y-74458456D01*
X112022812Y-74526376D01*
X111879268Y-74554928D01*
X111848742Y-74561000D01*
X111671258Y-74561000D01*
X111640732Y-74554928D01*
X111497188Y-74526376D01*
X111333216Y-74458456D01*
X111185646Y-74359853D01*
X111060147Y-74234354D01*
X110961544Y-74086784D01*
X110893624Y-73922812D01*
X110859000Y-73748741D01*
X110859000Y-73571259D01*
X110893624Y-73397188D01*
X110961544Y-73233216D01*
X111060147Y-73085646D01*
X111185646Y-72960147D01*
X111333216Y-72861544D01*
X111497188Y-72793624D01*
X111646488Y-72763927D01*
X111671258Y-72759000D01*
X111848742Y-72759000D01*
X111873512Y-72763927D01*
G37*
G36*
X134349928Y-72676764D02*
G01*
X134371009Y-72683160D01*
X134390445Y-72693548D01*
X134407476Y-72707524D01*
X134421452Y-72724555D01*
X134431840Y-72743991D01*
X134438236Y-72765072D01*
X134441000Y-72793140D01*
X134441000Y-73256860D01*
X134438236Y-73284928D01*
X134431840Y-73306009D01*
X134421452Y-73325445D01*
X134407476Y-73342476D01*
X134390445Y-73356452D01*
X134371009Y-73366840D01*
X134349928Y-73373236D01*
X134321860Y-73376000D01*
X132508140Y-73376000D01*
X132480072Y-73373236D01*
X132458991Y-73366840D01*
X132439555Y-73356452D01*
X132422524Y-73342476D01*
X132408548Y-73325445D01*
X132398160Y-73306009D01*
X132391764Y-73284928D01*
X132389000Y-73256860D01*
X132389000Y-72793140D01*
X132391764Y-72765072D01*
X132398160Y-72743991D01*
X132408548Y-72724555D01*
X132422524Y-72707524D01*
X132439555Y-72693548D01*
X132458991Y-72683160D01*
X132480072Y-72676764D01*
X132508140Y-72674000D01*
X134321860Y-72674000D01*
X134349928Y-72676764D01*
G37*
G36*
X139299928Y-72676764D02*
G01*
X139321009Y-72683160D01*
X139340445Y-72693548D01*
X139357476Y-72707524D01*
X139371452Y-72724555D01*
X139381840Y-72743991D01*
X139388236Y-72765072D01*
X139391000Y-72793140D01*
X139391000Y-73256860D01*
X139388236Y-73284928D01*
X139381840Y-73306009D01*
X139371452Y-73325445D01*
X139357476Y-73342476D01*
X139340445Y-73356452D01*
X139321009Y-73366840D01*
X139299928Y-73373236D01*
X139271860Y-73376000D01*
X137458140Y-73376000D01*
X137430072Y-73373236D01*
X137408991Y-73366840D01*
X137389555Y-73356452D01*
X137372524Y-73342476D01*
X137358548Y-73325445D01*
X137348160Y-73306009D01*
X137341764Y-73284928D01*
X137339000Y-73256860D01*
X137339000Y-72793140D01*
X137341764Y-72765072D01*
X137348160Y-72743991D01*
X137358548Y-72724555D01*
X137372524Y-72707524D01*
X137389555Y-72693548D01*
X137408991Y-72683160D01*
X137430072Y-72676764D01*
X137458140Y-72674000D01*
X139271860Y-72674000D01*
X139299928Y-72676764D01*
G37*
G36*
X134349928Y-71406764D02*
G01*
X134371009Y-71413160D01*
X134390445Y-71423548D01*
X134407476Y-71437524D01*
X134421452Y-71454555D01*
X134431840Y-71473991D01*
X134438236Y-71495072D01*
X134441000Y-71523140D01*
X134441000Y-71986860D01*
X134438236Y-72014928D01*
X134431840Y-72036009D01*
X134421452Y-72055445D01*
X134407476Y-72072476D01*
X134390445Y-72086452D01*
X134371009Y-72096840D01*
X134349928Y-72103236D01*
X134321860Y-72106000D01*
X132508140Y-72106000D01*
X132480072Y-72103236D01*
X132458991Y-72096840D01*
X132439555Y-72086452D01*
X132422524Y-72072476D01*
X132408548Y-72055445D01*
X132398160Y-72036009D01*
X132391764Y-72014928D01*
X132389000Y-71986860D01*
X132389000Y-71523140D01*
X132391764Y-71495072D01*
X132398160Y-71473991D01*
X132408548Y-71454555D01*
X132422524Y-71437524D01*
X132439555Y-71423548D01*
X132458991Y-71413160D01*
X132480072Y-71406764D01*
X132508140Y-71404000D01*
X134321860Y-71404000D01*
X134349928Y-71406764D01*
G37*
G36*
X139299928Y-71406764D02*
G01*
X139321009Y-71413160D01*
X139340445Y-71423548D01*
X139357476Y-71437524D01*
X139371452Y-71454555D01*
X139381840Y-71473991D01*
X139388236Y-71495072D01*
X139391000Y-71523140D01*
X139391000Y-71986860D01*
X139388236Y-72014928D01*
X139381840Y-72036009D01*
X139371452Y-72055445D01*
X139357476Y-72072476D01*
X139340445Y-72086452D01*
X139321009Y-72096840D01*
X139299928Y-72103236D01*
X139271860Y-72106000D01*
X137458140Y-72106000D01*
X137430072Y-72103236D01*
X137408991Y-72096840D01*
X137389555Y-72086452D01*
X137372524Y-72072476D01*
X137358548Y-72055445D01*
X137348160Y-72036009D01*
X137341764Y-72014928D01*
X137339000Y-71986860D01*
X137339000Y-71523140D01*
X137341764Y-71495072D01*
X137348160Y-71473991D01*
X137358548Y-71454555D01*
X137372524Y-71437524D01*
X137389555Y-71423548D01*
X137408991Y-71413160D01*
X137430072Y-71406764D01*
X137458140Y-71404000D01*
X139271860Y-71404000D01*
X139299928Y-71406764D01*
G37*
M02*
