G04 #@! TF.GenerationSoftware,KiCad,Pcbnew,5.1.5+dfsg1-2build2*
G04 #@! TF.CreationDate,2020-07-25T19:40:00-04:00*
G04 #@! TF.ProjectId,lipo-charger,6c69706f-2d63-4686-9172-6765722e6b69,rev?*
G04 #@! TF.SameCoordinates,Original*
G04 #@! TF.FileFunction,Paste,Top*
G04 #@! TF.FilePolarity,Positive*
%FSLAX46Y46*%
G04 Gerber Fmt 4.6, Leading zero omitted, Abs format (unit mm)*
G04 Created by KiCad (PCBNEW 5.1.5+dfsg1-2build2) date 2020-07-25 19:40:00*
%MOMM*%
%LPD*%
G04 APERTURE LIST*
%ADD10C,0.100000*%
%ADD11R,1.900000X1.500000*%
%ADD12R,1.350000X0.400000*%
%ADD13R,1.060000X0.650000*%
%ADD14R,0.450000X1.450000*%
%ADD15R,2.700000X1.500000*%
%ADD16R,1.500000X2.700000*%
%ADD17R,2.000000X3.800000*%
%ADD18R,2.000000X1.500000*%
G04 APERTURE END LIST*
D10*
G36*
X126504703Y-93045722D02*
G01*
X126519264Y-93047882D01*
X126533543Y-93051459D01*
X126547403Y-93056418D01*
X126560710Y-93062712D01*
X126573336Y-93070280D01*
X126585159Y-93079048D01*
X126596066Y-93088934D01*
X126605952Y-93099841D01*
X126614720Y-93111664D01*
X126622288Y-93124290D01*
X126628582Y-93137597D01*
X126633541Y-93151457D01*
X126637118Y-93165736D01*
X126639278Y-93180297D01*
X126640000Y-93195000D01*
X126640000Y-93495000D01*
X126639278Y-93509703D01*
X126637118Y-93524264D01*
X126633541Y-93538543D01*
X126628582Y-93552403D01*
X126622288Y-93565710D01*
X126614720Y-93578336D01*
X126605952Y-93590159D01*
X126596066Y-93601066D01*
X126585159Y-93610952D01*
X126573336Y-93619720D01*
X126560710Y-93627288D01*
X126547403Y-93633582D01*
X126533543Y-93638541D01*
X126519264Y-93642118D01*
X126504703Y-93644278D01*
X126490000Y-93645000D01*
X125140000Y-93645000D01*
X125125297Y-93644278D01*
X125110736Y-93642118D01*
X125096457Y-93638541D01*
X125082597Y-93633582D01*
X125069290Y-93627288D01*
X125056664Y-93619720D01*
X125044841Y-93610952D01*
X125033934Y-93601066D01*
X125024048Y-93590159D01*
X125015280Y-93578336D01*
X125007712Y-93565710D01*
X125001418Y-93552403D01*
X124996459Y-93538543D01*
X124992882Y-93524264D01*
X124990722Y-93509703D01*
X124990000Y-93495000D01*
X124990000Y-93195000D01*
X124990722Y-93180297D01*
X124992882Y-93165736D01*
X124996459Y-93151457D01*
X125001418Y-93137597D01*
X125007712Y-93124290D01*
X125015280Y-93111664D01*
X125024048Y-93099841D01*
X125033934Y-93088934D01*
X125044841Y-93079048D01*
X125056664Y-93070280D01*
X125069290Y-93062712D01*
X125082597Y-93056418D01*
X125096457Y-93051459D01*
X125110736Y-93047882D01*
X125125297Y-93045722D01*
X125140000Y-93045000D01*
X126490000Y-93045000D01*
X126504703Y-93045722D01*
G37*
G36*
X126504703Y-91775722D02*
G01*
X126519264Y-91777882D01*
X126533543Y-91781459D01*
X126547403Y-91786418D01*
X126560710Y-91792712D01*
X126573336Y-91800280D01*
X126585159Y-91809048D01*
X126596066Y-91818934D01*
X126605952Y-91829841D01*
X126614720Y-91841664D01*
X126622288Y-91854290D01*
X126628582Y-91867597D01*
X126633541Y-91881457D01*
X126637118Y-91895736D01*
X126639278Y-91910297D01*
X126640000Y-91925000D01*
X126640000Y-92225000D01*
X126639278Y-92239703D01*
X126637118Y-92254264D01*
X126633541Y-92268543D01*
X126628582Y-92282403D01*
X126622288Y-92295710D01*
X126614720Y-92308336D01*
X126605952Y-92320159D01*
X126596066Y-92331066D01*
X126585159Y-92340952D01*
X126573336Y-92349720D01*
X126560710Y-92357288D01*
X126547403Y-92363582D01*
X126533543Y-92368541D01*
X126519264Y-92372118D01*
X126504703Y-92374278D01*
X126490000Y-92375000D01*
X125140000Y-92375000D01*
X125125297Y-92374278D01*
X125110736Y-92372118D01*
X125096457Y-92368541D01*
X125082597Y-92363582D01*
X125069290Y-92357288D01*
X125056664Y-92349720D01*
X125044841Y-92340952D01*
X125033934Y-92331066D01*
X125024048Y-92320159D01*
X125015280Y-92308336D01*
X125007712Y-92295710D01*
X125001418Y-92282403D01*
X124996459Y-92268543D01*
X124992882Y-92254264D01*
X124990722Y-92239703D01*
X124990000Y-92225000D01*
X124990000Y-91925000D01*
X124990722Y-91910297D01*
X124992882Y-91895736D01*
X124996459Y-91881457D01*
X125001418Y-91867597D01*
X125007712Y-91854290D01*
X125015280Y-91841664D01*
X125024048Y-91829841D01*
X125033934Y-91818934D01*
X125044841Y-91809048D01*
X125056664Y-91800280D01*
X125069290Y-91792712D01*
X125082597Y-91786418D01*
X125096457Y-91781459D01*
X125110736Y-91777882D01*
X125125297Y-91775722D01*
X125140000Y-91775000D01*
X126490000Y-91775000D01*
X126504703Y-91775722D01*
G37*
G36*
X126504703Y-90505722D02*
G01*
X126519264Y-90507882D01*
X126533543Y-90511459D01*
X126547403Y-90516418D01*
X126560710Y-90522712D01*
X126573336Y-90530280D01*
X126585159Y-90539048D01*
X126596066Y-90548934D01*
X126605952Y-90559841D01*
X126614720Y-90571664D01*
X126622288Y-90584290D01*
X126628582Y-90597597D01*
X126633541Y-90611457D01*
X126637118Y-90625736D01*
X126639278Y-90640297D01*
X126640000Y-90655000D01*
X126640000Y-90955000D01*
X126639278Y-90969703D01*
X126637118Y-90984264D01*
X126633541Y-90998543D01*
X126628582Y-91012403D01*
X126622288Y-91025710D01*
X126614720Y-91038336D01*
X126605952Y-91050159D01*
X126596066Y-91061066D01*
X126585159Y-91070952D01*
X126573336Y-91079720D01*
X126560710Y-91087288D01*
X126547403Y-91093582D01*
X126533543Y-91098541D01*
X126519264Y-91102118D01*
X126504703Y-91104278D01*
X126490000Y-91105000D01*
X125140000Y-91105000D01*
X125125297Y-91104278D01*
X125110736Y-91102118D01*
X125096457Y-91098541D01*
X125082597Y-91093582D01*
X125069290Y-91087288D01*
X125056664Y-91079720D01*
X125044841Y-91070952D01*
X125033934Y-91061066D01*
X125024048Y-91050159D01*
X125015280Y-91038336D01*
X125007712Y-91025710D01*
X125001418Y-91012403D01*
X124996459Y-90998543D01*
X124992882Y-90984264D01*
X124990722Y-90969703D01*
X124990000Y-90955000D01*
X124990000Y-90655000D01*
X124990722Y-90640297D01*
X124992882Y-90625736D01*
X124996459Y-90611457D01*
X125001418Y-90597597D01*
X125007712Y-90584290D01*
X125015280Y-90571664D01*
X125024048Y-90559841D01*
X125033934Y-90548934D01*
X125044841Y-90539048D01*
X125056664Y-90530280D01*
X125069290Y-90522712D01*
X125082597Y-90516418D01*
X125096457Y-90511459D01*
X125110736Y-90507882D01*
X125125297Y-90505722D01*
X125140000Y-90505000D01*
X126490000Y-90505000D01*
X126504703Y-90505722D01*
G37*
G36*
X126504703Y-89235722D02*
G01*
X126519264Y-89237882D01*
X126533543Y-89241459D01*
X126547403Y-89246418D01*
X126560710Y-89252712D01*
X126573336Y-89260280D01*
X126585159Y-89269048D01*
X126596066Y-89278934D01*
X126605952Y-89289841D01*
X126614720Y-89301664D01*
X126622288Y-89314290D01*
X126628582Y-89327597D01*
X126633541Y-89341457D01*
X126637118Y-89355736D01*
X126639278Y-89370297D01*
X126640000Y-89385000D01*
X126640000Y-89685000D01*
X126639278Y-89699703D01*
X126637118Y-89714264D01*
X126633541Y-89728543D01*
X126628582Y-89742403D01*
X126622288Y-89755710D01*
X126614720Y-89768336D01*
X126605952Y-89780159D01*
X126596066Y-89791066D01*
X126585159Y-89800952D01*
X126573336Y-89809720D01*
X126560710Y-89817288D01*
X126547403Y-89823582D01*
X126533543Y-89828541D01*
X126519264Y-89832118D01*
X126504703Y-89834278D01*
X126490000Y-89835000D01*
X125140000Y-89835000D01*
X125125297Y-89834278D01*
X125110736Y-89832118D01*
X125096457Y-89828541D01*
X125082597Y-89823582D01*
X125069290Y-89817288D01*
X125056664Y-89809720D01*
X125044841Y-89800952D01*
X125033934Y-89791066D01*
X125024048Y-89780159D01*
X125015280Y-89768336D01*
X125007712Y-89755710D01*
X125001418Y-89742403D01*
X124996459Y-89728543D01*
X124992882Y-89714264D01*
X124990722Y-89699703D01*
X124990000Y-89685000D01*
X124990000Y-89385000D01*
X124990722Y-89370297D01*
X124992882Y-89355736D01*
X124996459Y-89341457D01*
X125001418Y-89327597D01*
X125007712Y-89314290D01*
X125015280Y-89301664D01*
X125024048Y-89289841D01*
X125033934Y-89278934D01*
X125044841Y-89269048D01*
X125056664Y-89260280D01*
X125069290Y-89252712D01*
X125082597Y-89246418D01*
X125096457Y-89241459D01*
X125110736Y-89237882D01*
X125125297Y-89235722D01*
X125140000Y-89235000D01*
X126490000Y-89235000D01*
X126504703Y-89235722D01*
G37*
G36*
X121254703Y-89235722D02*
G01*
X121269264Y-89237882D01*
X121283543Y-89241459D01*
X121297403Y-89246418D01*
X121310710Y-89252712D01*
X121323336Y-89260280D01*
X121335159Y-89269048D01*
X121346066Y-89278934D01*
X121355952Y-89289841D01*
X121364720Y-89301664D01*
X121372288Y-89314290D01*
X121378582Y-89327597D01*
X121383541Y-89341457D01*
X121387118Y-89355736D01*
X121389278Y-89370297D01*
X121390000Y-89385000D01*
X121390000Y-89685000D01*
X121389278Y-89699703D01*
X121387118Y-89714264D01*
X121383541Y-89728543D01*
X121378582Y-89742403D01*
X121372288Y-89755710D01*
X121364720Y-89768336D01*
X121355952Y-89780159D01*
X121346066Y-89791066D01*
X121335159Y-89800952D01*
X121323336Y-89809720D01*
X121310710Y-89817288D01*
X121297403Y-89823582D01*
X121283543Y-89828541D01*
X121269264Y-89832118D01*
X121254703Y-89834278D01*
X121240000Y-89835000D01*
X119890000Y-89835000D01*
X119875297Y-89834278D01*
X119860736Y-89832118D01*
X119846457Y-89828541D01*
X119832597Y-89823582D01*
X119819290Y-89817288D01*
X119806664Y-89809720D01*
X119794841Y-89800952D01*
X119783934Y-89791066D01*
X119774048Y-89780159D01*
X119765280Y-89768336D01*
X119757712Y-89755710D01*
X119751418Y-89742403D01*
X119746459Y-89728543D01*
X119742882Y-89714264D01*
X119740722Y-89699703D01*
X119740000Y-89685000D01*
X119740000Y-89385000D01*
X119740722Y-89370297D01*
X119742882Y-89355736D01*
X119746459Y-89341457D01*
X119751418Y-89327597D01*
X119757712Y-89314290D01*
X119765280Y-89301664D01*
X119774048Y-89289841D01*
X119783934Y-89278934D01*
X119794841Y-89269048D01*
X119806664Y-89260280D01*
X119819290Y-89252712D01*
X119832597Y-89246418D01*
X119846457Y-89241459D01*
X119860736Y-89237882D01*
X119875297Y-89235722D01*
X119890000Y-89235000D01*
X121240000Y-89235000D01*
X121254703Y-89235722D01*
G37*
G36*
X121254703Y-90505722D02*
G01*
X121269264Y-90507882D01*
X121283543Y-90511459D01*
X121297403Y-90516418D01*
X121310710Y-90522712D01*
X121323336Y-90530280D01*
X121335159Y-90539048D01*
X121346066Y-90548934D01*
X121355952Y-90559841D01*
X121364720Y-90571664D01*
X121372288Y-90584290D01*
X121378582Y-90597597D01*
X121383541Y-90611457D01*
X121387118Y-90625736D01*
X121389278Y-90640297D01*
X121390000Y-90655000D01*
X121390000Y-90955000D01*
X121389278Y-90969703D01*
X121387118Y-90984264D01*
X121383541Y-90998543D01*
X121378582Y-91012403D01*
X121372288Y-91025710D01*
X121364720Y-91038336D01*
X121355952Y-91050159D01*
X121346066Y-91061066D01*
X121335159Y-91070952D01*
X121323336Y-91079720D01*
X121310710Y-91087288D01*
X121297403Y-91093582D01*
X121283543Y-91098541D01*
X121269264Y-91102118D01*
X121254703Y-91104278D01*
X121240000Y-91105000D01*
X119890000Y-91105000D01*
X119875297Y-91104278D01*
X119860736Y-91102118D01*
X119846457Y-91098541D01*
X119832597Y-91093582D01*
X119819290Y-91087288D01*
X119806664Y-91079720D01*
X119794841Y-91070952D01*
X119783934Y-91061066D01*
X119774048Y-91050159D01*
X119765280Y-91038336D01*
X119757712Y-91025710D01*
X119751418Y-91012403D01*
X119746459Y-90998543D01*
X119742882Y-90984264D01*
X119740722Y-90969703D01*
X119740000Y-90955000D01*
X119740000Y-90655000D01*
X119740722Y-90640297D01*
X119742882Y-90625736D01*
X119746459Y-90611457D01*
X119751418Y-90597597D01*
X119757712Y-90584290D01*
X119765280Y-90571664D01*
X119774048Y-90559841D01*
X119783934Y-90548934D01*
X119794841Y-90539048D01*
X119806664Y-90530280D01*
X119819290Y-90522712D01*
X119832597Y-90516418D01*
X119846457Y-90511459D01*
X119860736Y-90507882D01*
X119875297Y-90505722D01*
X119890000Y-90505000D01*
X121240000Y-90505000D01*
X121254703Y-90505722D01*
G37*
G36*
X121254703Y-91775722D02*
G01*
X121269264Y-91777882D01*
X121283543Y-91781459D01*
X121297403Y-91786418D01*
X121310710Y-91792712D01*
X121323336Y-91800280D01*
X121335159Y-91809048D01*
X121346066Y-91818934D01*
X121355952Y-91829841D01*
X121364720Y-91841664D01*
X121372288Y-91854290D01*
X121378582Y-91867597D01*
X121383541Y-91881457D01*
X121387118Y-91895736D01*
X121389278Y-91910297D01*
X121390000Y-91925000D01*
X121390000Y-92225000D01*
X121389278Y-92239703D01*
X121387118Y-92254264D01*
X121383541Y-92268543D01*
X121378582Y-92282403D01*
X121372288Y-92295710D01*
X121364720Y-92308336D01*
X121355952Y-92320159D01*
X121346066Y-92331066D01*
X121335159Y-92340952D01*
X121323336Y-92349720D01*
X121310710Y-92357288D01*
X121297403Y-92363582D01*
X121283543Y-92368541D01*
X121269264Y-92372118D01*
X121254703Y-92374278D01*
X121240000Y-92375000D01*
X119890000Y-92375000D01*
X119875297Y-92374278D01*
X119860736Y-92372118D01*
X119846457Y-92368541D01*
X119832597Y-92363582D01*
X119819290Y-92357288D01*
X119806664Y-92349720D01*
X119794841Y-92340952D01*
X119783934Y-92331066D01*
X119774048Y-92320159D01*
X119765280Y-92308336D01*
X119757712Y-92295710D01*
X119751418Y-92282403D01*
X119746459Y-92268543D01*
X119742882Y-92254264D01*
X119740722Y-92239703D01*
X119740000Y-92225000D01*
X119740000Y-91925000D01*
X119740722Y-91910297D01*
X119742882Y-91895736D01*
X119746459Y-91881457D01*
X119751418Y-91867597D01*
X119757712Y-91854290D01*
X119765280Y-91841664D01*
X119774048Y-91829841D01*
X119783934Y-91818934D01*
X119794841Y-91809048D01*
X119806664Y-91800280D01*
X119819290Y-91792712D01*
X119832597Y-91786418D01*
X119846457Y-91781459D01*
X119860736Y-91777882D01*
X119875297Y-91775722D01*
X119890000Y-91775000D01*
X121240000Y-91775000D01*
X121254703Y-91775722D01*
G37*
G36*
X121254703Y-93045722D02*
G01*
X121269264Y-93047882D01*
X121283543Y-93051459D01*
X121297403Y-93056418D01*
X121310710Y-93062712D01*
X121323336Y-93070280D01*
X121335159Y-93079048D01*
X121346066Y-93088934D01*
X121355952Y-93099841D01*
X121364720Y-93111664D01*
X121372288Y-93124290D01*
X121378582Y-93137597D01*
X121383541Y-93151457D01*
X121387118Y-93165736D01*
X121389278Y-93180297D01*
X121390000Y-93195000D01*
X121390000Y-93495000D01*
X121389278Y-93509703D01*
X121387118Y-93524264D01*
X121383541Y-93538543D01*
X121378582Y-93552403D01*
X121372288Y-93565710D01*
X121364720Y-93578336D01*
X121355952Y-93590159D01*
X121346066Y-93601066D01*
X121335159Y-93610952D01*
X121323336Y-93619720D01*
X121310710Y-93627288D01*
X121297403Y-93633582D01*
X121283543Y-93638541D01*
X121269264Y-93642118D01*
X121254703Y-93644278D01*
X121240000Y-93645000D01*
X119890000Y-93645000D01*
X119875297Y-93644278D01*
X119860736Y-93642118D01*
X119846457Y-93638541D01*
X119832597Y-93633582D01*
X119819290Y-93627288D01*
X119806664Y-93619720D01*
X119794841Y-93610952D01*
X119783934Y-93601066D01*
X119774048Y-93590159D01*
X119765280Y-93578336D01*
X119757712Y-93565710D01*
X119751418Y-93552403D01*
X119746459Y-93538543D01*
X119742882Y-93524264D01*
X119740722Y-93509703D01*
X119740000Y-93495000D01*
X119740000Y-93195000D01*
X119740722Y-93180297D01*
X119742882Y-93165736D01*
X119746459Y-93151457D01*
X119751418Y-93137597D01*
X119757712Y-93124290D01*
X119765280Y-93111664D01*
X119774048Y-93099841D01*
X119783934Y-93088934D01*
X119794841Y-93079048D01*
X119806664Y-93070280D01*
X119819290Y-93062712D01*
X119832597Y-93056418D01*
X119846457Y-93051459D01*
X119860736Y-93047882D01*
X119875297Y-93045722D01*
X119890000Y-93045000D01*
X121240000Y-93045000D01*
X121254703Y-93045722D01*
G37*
G36*
X109700142Y-77316174D02*
G01*
X109723803Y-77319684D01*
X109747007Y-77325496D01*
X109769529Y-77333554D01*
X109791153Y-77343782D01*
X109811670Y-77356079D01*
X109830883Y-77370329D01*
X109848607Y-77386393D01*
X109864671Y-77404117D01*
X109878921Y-77423330D01*
X109891218Y-77443847D01*
X109901446Y-77465471D01*
X109909504Y-77487993D01*
X109915316Y-77511197D01*
X109918826Y-77534858D01*
X109920000Y-77558750D01*
X109920000Y-78046250D01*
X109918826Y-78070142D01*
X109915316Y-78093803D01*
X109909504Y-78117007D01*
X109901446Y-78139529D01*
X109891218Y-78161153D01*
X109878921Y-78181670D01*
X109864671Y-78200883D01*
X109848607Y-78218607D01*
X109830883Y-78234671D01*
X109811670Y-78248921D01*
X109791153Y-78261218D01*
X109769529Y-78271446D01*
X109747007Y-78279504D01*
X109723803Y-78285316D01*
X109700142Y-78288826D01*
X109676250Y-78290000D01*
X108763750Y-78290000D01*
X108739858Y-78288826D01*
X108716197Y-78285316D01*
X108692993Y-78279504D01*
X108670471Y-78271446D01*
X108648847Y-78261218D01*
X108628330Y-78248921D01*
X108609117Y-78234671D01*
X108591393Y-78218607D01*
X108575329Y-78200883D01*
X108561079Y-78181670D01*
X108548782Y-78161153D01*
X108538554Y-78139529D01*
X108530496Y-78117007D01*
X108524684Y-78093803D01*
X108521174Y-78070142D01*
X108520000Y-78046250D01*
X108520000Y-77558750D01*
X108521174Y-77534858D01*
X108524684Y-77511197D01*
X108530496Y-77487993D01*
X108538554Y-77465471D01*
X108548782Y-77443847D01*
X108561079Y-77423330D01*
X108575329Y-77404117D01*
X108591393Y-77386393D01*
X108609117Y-77370329D01*
X108628330Y-77356079D01*
X108648847Y-77343782D01*
X108670471Y-77333554D01*
X108692993Y-77325496D01*
X108716197Y-77319684D01*
X108739858Y-77316174D01*
X108763750Y-77315000D01*
X109676250Y-77315000D01*
X109700142Y-77316174D01*
G37*
G36*
X109700142Y-79191174D02*
G01*
X109723803Y-79194684D01*
X109747007Y-79200496D01*
X109769529Y-79208554D01*
X109791153Y-79218782D01*
X109811670Y-79231079D01*
X109830883Y-79245329D01*
X109848607Y-79261393D01*
X109864671Y-79279117D01*
X109878921Y-79298330D01*
X109891218Y-79318847D01*
X109901446Y-79340471D01*
X109909504Y-79362993D01*
X109915316Y-79386197D01*
X109918826Y-79409858D01*
X109920000Y-79433750D01*
X109920000Y-79921250D01*
X109918826Y-79945142D01*
X109915316Y-79968803D01*
X109909504Y-79992007D01*
X109901446Y-80014529D01*
X109891218Y-80036153D01*
X109878921Y-80056670D01*
X109864671Y-80075883D01*
X109848607Y-80093607D01*
X109830883Y-80109671D01*
X109811670Y-80123921D01*
X109791153Y-80136218D01*
X109769529Y-80146446D01*
X109747007Y-80154504D01*
X109723803Y-80160316D01*
X109700142Y-80163826D01*
X109676250Y-80165000D01*
X108763750Y-80165000D01*
X108739858Y-80163826D01*
X108716197Y-80160316D01*
X108692993Y-80154504D01*
X108670471Y-80146446D01*
X108648847Y-80136218D01*
X108628330Y-80123921D01*
X108609117Y-80109671D01*
X108591393Y-80093607D01*
X108575329Y-80075883D01*
X108561079Y-80056670D01*
X108548782Y-80036153D01*
X108538554Y-80014529D01*
X108530496Y-79992007D01*
X108524684Y-79968803D01*
X108521174Y-79945142D01*
X108520000Y-79921250D01*
X108520000Y-79433750D01*
X108521174Y-79409858D01*
X108524684Y-79386197D01*
X108530496Y-79362993D01*
X108538554Y-79340471D01*
X108548782Y-79318847D01*
X108561079Y-79298330D01*
X108575329Y-79279117D01*
X108591393Y-79261393D01*
X108609117Y-79245329D01*
X108628330Y-79231079D01*
X108648847Y-79218782D01*
X108670471Y-79208554D01*
X108692993Y-79200496D01*
X108716197Y-79194684D01*
X108739858Y-79191174D01*
X108763750Y-79190000D01*
X109676250Y-79190000D01*
X109700142Y-79191174D01*
G37*
G36*
X142720142Y-83666174D02*
G01*
X142743803Y-83669684D01*
X142767007Y-83675496D01*
X142789529Y-83683554D01*
X142811153Y-83693782D01*
X142831670Y-83706079D01*
X142850883Y-83720329D01*
X142868607Y-83736393D01*
X142884671Y-83754117D01*
X142898921Y-83773330D01*
X142911218Y-83793847D01*
X142921446Y-83815471D01*
X142929504Y-83837993D01*
X142935316Y-83861197D01*
X142938826Y-83884858D01*
X142940000Y-83908750D01*
X142940000Y-84396250D01*
X142938826Y-84420142D01*
X142935316Y-84443803D01*
X142929504Y-84467007D01*
X142921446Y-84489529D01*
X142911218Y-84511153D01*
X142898921Y-84531670D01*
X142884671Y-84550883D01*
X142868607Y-84568607D01*
X142850883Y-84584671D01*
X142831670Y-84598921D01*
X142811153Y-84611218D01*
X142789529Y-84621446D01*
X142767007Y-84629504D01*
X142743803Y-84635316D01*
X142720142Y-84638826D01*
X142696250Y-84640000D01*
X141783750Y-84640000D01*
X141759858Y-84638826D01*
X141736197Y-84635316D01*
X141712993Y-84629504D01*
X141690471Y-84621446D01*
X141668847Y-84611218D01*
X141648330Y-84598921D01*
X141629117Y-84584671D01*
X141611393Y-84568607D01*
X141595329Y-84550883D01*
X141581079Y-84531670D01*
X141568782Y-84511153D01*
X141558554Y-84489529D01*
X141550496Y-84467007D01*
X141544684Y-84443803D01*
X141541174Y-84420142D01*
X141540000Y-84396250D01*
X141540000Y-83908750D01*
X141541174Y-83884858D01*
X141544684Y-83861197D01*
X141550496Y-83837993D01*
X141558554Y-83815471D01*
X141568782Y-83793847D01*
X141581079Y-83773330D01*
X141595329Y-83754117D01*
X141611393Y-83736393D01*
X141629117Y-83720329D01*
X141648330Y-83706079D01*
X141668847Y-83693782D01*
X141690471Y-83683554D01*
X141712993Y-83675496D01*
X141736197Y-83669684D01*
X141759858Y-83666174D01*
X141783750Y-83665000D01*
X142696250Y-83665000D01*
X142720142Y-83666174D01*
G37*
G36*
X142720142Y-85541174D02*
G01*
X142743803Y-85544684D01*
X142767007Y-85550496D01*
X142789529Y-85558554D01*
X142811153Y-85568782D01*
X142831670Y-85581079D01*
X142850883Y-85595329D01*
X142868607Y-85611393D01*
X142884671Y-85629117D01*
X142898921Y-85648330D01*
X142911218Y-85668847D01*
X142921446Y-85690471D01*
X142929504Y-85712993D01*
X142935316Y-85736197D01*
X142938826Y-85759858D01*
X142940000Y-85783750D01*
X142940000Y-86271250D01*
X142938826Y-86295142D01*
X142935316Y-86318803D01*
X142929504Y-86342007D01*
X142921446Y-86364529D01*
X142911218Y-86386153D01*
X142898921Y-86406670D01*
X142884671Y-86425883D01*
X142868607Y-86443607D01*
X142850883Y-86459671D01*
X142831670Y-86473921D01*
X142811153Y-86486218D01*
X142789529Y-86496446D01*
X142767007Y-86504504D01*
X142743803Y-86510316D01*
X142720142Y-86513826D01*
X142696250Y-86515000D01*
X141783750Y-86515000D01*
X141759858Y-86513826D01*
X141736197Y-86510316D01*
X141712993Y-86504504D01*
X141690471Y-86496446D01*
X141668847Y-86486218D01*
X141648330Y-86473921D01*
X141629117Y-86459671D01*
X141611393Y-86443607D01*
X141595329Y-86425883D01*
X141581079Y-86406670D01*
X141568782Y-86386153D01*
X141558554Y-86364529D01*
X141550496Y-86342007D01*
X141544684Y-86318803D01*
X141541174Y-86295142D01*
X141540000Y-86271250D01*
X141540000Y-85783750D01*
X141541174Y-85759858D01*
X141544684Y-85736197D01*
X141550496Y-85712993D01*
X141558554Y-85690471D01*
X141568782Y-85668847D01*
X141581079Y-85648330D01*
X141595329Y-85629117D01*
X141611393Y-85611393D01*
X141629117Y-85595329D01*
X141648330Y-85581079D01*
X141668847Y-85568782D01*
X141690471Y-85558554D01*
X141712993Y-85550496D01*
X141736197Y-85544684D01*
X141759858Y-85541174D01*
X141783750Y-85540000D01*
X142696250Y-85540000D01*
X142720142Y-85541174D01*
G37*
G36*
X125665142Y-78041174D02*
G01*
X125688803Y-78044684D01*
X125712007Y-78050496D01*
X125734529Y-78058554D01*
X125756153Y-78068782D01*
X125776670Y-78081079D01*
X125795883Y-78095329D01*
X125813607Y-78111393D01*
X125829671Y-78129117D01*
X125843921Y-78148330D01*
X125856218Y-78168847D01*
X125866446Y-78190471D01*
X125874504Y-78212993D01*
X125880316Y-78236197D01*
X125883826Y-78259858D01*
X125885000Y-78283750D01*
X125885000Y-79196250D01*
X125883826Y-79220142D01*
X125880316Y-79243803D01*
X125874504Y-79267007D01*
X125866446Y-79289529D01*
X125856218Y-79311153D01*
X125843921Y-79331670D01*
X125829671Y-79350883D01*
X125813607Y-79368607D01*
X125795883Y-79384671D01*
X125776670Y-79398921D01*
X125756153Y-79411218D01*
X125734529Y-79421446D01*
X125712007Y-79429504D01*
X125688803Y-79435316D01*
X125665142Y-79438826D01*
X125641250Y-79440000D01*
X125153750Y-79440000D01*
X125129858Y-79438826D01*
X125106197Y-79435316D01*
X125082993Y-79429504D01*
X125060471Y-79421446D01*
X125038847Y-79411218D01*
X125018330Y-79398921D01*
X124999117Y-79384671D01*
X124981393Y-79368607D01*
X124965329Y-79350883D01*
X124951079Y-79331670D01*
X124938782Y-79311153D01*
X124928554Y-79289529D01*
X124920496Y-79267007D01*
X124914684Y-79243803D01*
X124911174Y-79220142D01*
X124910000Y-79196250D01*
X124910000Y-78283750D01*
X124911174Y-78259858D01*
X124914684Y-78236197D01*
X124920496Y-78212993D01*
X124928554Y-78190471D01*
X124938782Y-78168847D01*
X124951079Y-78148330D01*
X124965329Y-78129117D01*
X124981393Y-78111393D01*
X124999117Y-78095329D01*
X125018330Y-78081079D01*
X125038847Y-78068782D01*
X125060471Y-78058554D01*
X125082993Y-78050496D01*
X125106197Y-78044684D01*
X125129858Y-78041174D01*
X125153750Y-78040000D01*
X125641250Y-78040000D01*
X125665142Y-78041174D01*
G37*
G36*
X123790142Y-78041174D02*
G01*
X123813803Y-78044684D01*
X123837007Y-78050496D01*
X123859529Y-78058554D01*
X123881153Y-78068782D01*
X123901670Y-78081079D01*
X123920883Y-78095329D01*
X123938607Y-78111393D01*
X123954671Y-78129117D01*
X123968921Y-78148330D01*
X123981218Y-78168847D01*
X123991446Y-78190471D01*
X123999504Y-78212993D01*
X124005316Y-78236197D01*
X124008826Y-78259858D01*
X124010000Y-78283750D01*
X124010000Y-79196250D01*
X124008826Y-79220142D01*
X124005316Y-79243803D01*
X123999504Y-79267007D01*
X123991446Y-79289529D01*
X123981218Y-79311153D01*
X123968921Y-79331670D01*
X123954671Y-79350883D01*
X123938607Y-79368607D01*
X123920883Y-79384671D01*
X123901670Y-79398921D01*
X123881153Y-79411218D01*
X123859529Y-79421446D01*
X123837007Y-79429504D01*
X123813803Y-79435316D01*
X123790142Y-79438826D01*
X123766250Y-79440000D01*
X123278750Y-79440000D01*
X123254858Y-79438826D01*
X123231197Y-79435316D01*
X123207993Y-79429504D01*
X123185471Y-79421446D01*
X123163847Y-79411218D01*
X123143330Y-79398921D01*
X123124117Y-79384671D01*
X123106393Y-79368607D01*
X123090329Y-79350883D01*
X123076079Y-79331670D01*
X123063782Y-79311153D01*
X123053554Y-79289529D01*
X123045496Y-79267007D01*
X123039684Y-79243803D01*
X123036174Y-79220142D01*
X123035000Y-79196250D01*
X123035000Y-78283750D01*
X123036174Y-78259858D01*
X123039684Y-78236197D01*
X123045496Y-78212993D01*
X123053554Y-78190471D01*
X123063782Y-78168847D01*
X123076079Y-78148330D01*
X123090329Y-78129117D01*
X123106393Y-78111393D01*
X123124117Y-78095329D01*
X123143330Y-78081079D01*
X123163847Y-78068782D01*
X123185471Y-78058554D01*
X123207993Y-78050496D01*
X123231197Y-78044684D01*
X123254858Y-78041174D01*
X123278750Y-78040000D01*
X123766250Y-78040000D01*
X123790142Y-78041174D01*
G37*
G36*
X146530142Y-85541174D02*
G01*
X146553803Y-85544684D01*
X146577007Y-85550496D01*
X146599529Y-85558554D01*
X146621153Y-85568782D01*
X146641670Y-85581079D01*
X146660883Y-85595329D01*
X146678607Y-85611393D01*
X146694671Y-85629117D01*
X146708921Y-85648330D01*
X146721218Y-85668847D01*
X146731446Y-85690471D01*
X146739504Y-85712993D01*
X146745316Y-85736197D01*
X146748826Y-85759858D01*
X146750000Y-85783750D01*
X146750000Y-86271250D01*
X146748826Y-86295142D01*
X146745316Y-86318803D01*
X146739504Y-86342007D01*
X146731446Y-86364529D01*
X146721218Y-86386153D01*
X146708921Y-86406670D01*
X146694671Y-86425883D01*
X146678607Y-86443607D01*
X146660883Y-86459671D01*
X146641670Y-86473921D01*
X146621153Y-86486218D01*
X146599529Y-86496446D01*
X146577007Y-86504504D01*
X146553803Y-86510316D01*
X146530142Y-86513826D01*
X146506250Y-86515000D01*
X145593750Y-86515000D01*
X145569858Y-86513826D01*
X145546197Y-86510316D01*
X145522993Y-86504504D01*
X145500471Y-86496446D01*
X145478847Y-86486218D01*
X145458330Y-86473921D01*
X145439117Y-86459671D01*
X145421393Y-86443607D01*
X145405329Y-86425883D01*
X145391079Y-86406670D01*
X145378782Y-86386153D01*
X145368554Y-86364529D01*
X145360496Y-86342007D01*
X145354684Y-86318803D01*
X145351174Y-86295142D01*
X145350000Y-86271250D01*
X145350000Y-85783750D01*
X145351174Y-85759858D01*
X145354684Y-85736197D01*
X145360496Y-85712993D01*
X145368554Y-85690471D01*
X145378782Y-85668847D01*
X145391079Y-85648330D01*
X145405329Y-85629117D01*
X145421393Y-85611393D01*
X145439117Y-85595329D01*
X145458330Y-85581079D01*
X145478847Y-85568782D01*
X145500471Y-85558554D01*
X145522993Y-85550496D01*
X145546197Y-85544684D01*
X145569858Y-85541174D01*
X145593750Y-85540000D01*
X146506250Y-85540000D01*
X146530142Y-85541174D01*
G37*
G36*
X146530142Y-83666174D02*
G01*
X146553803Y-83669684D01*
X146577007Y-83675496D01*
X146599529Y-83683554D01*
X146621153Y-83693782D01*
X146641670Y-83706079D01*
X146660883Y-83720329D01*
X146678607Y-83736393D01*
X146694671Y-83754117D01*
X146708921Y-83773330D01*
X146721218Y-83793847D01*
X146731446Y-83815471D01*
X146739504Y-83837993D01*
X146745316Y-83861197D01*
X146748826Y-83884858D01*
X146750000Y-83908750D01*
X146750000Y-84396250D01*
X146748826Y-84420142D01*
X146745316Y-84443803D01*
X146739504Y-84467007D01*
X146731446Y-84489529D01*
X146721218Y-84511153D01*
X146708921Y-84531670D01*
X146694671Y-84550883D01*
X146678607Y-84568607D01*
X146660883Y-84584671D01*
X146641670Y-84598921D01*
X146621153Y-84611218D01*
X146599529Y-84621446D01*
X146577007Y-84629504D01*
X146553803Y-84635316D01*
X146530142Y-84638826D01*
X146506250Y-84640000D01*
X145593750Y-84640000D01*
X145569858Y-84638826D01*
X145546197Y-84635316D01*
X145522993Y-84629504D01*
X145500471Y-84621446D01*
X145478847Y-84611218D01*
X145458330Y-84598921D01*
X145439117Y-84584671D01*
X145421393Y-84568607D01*
X145405329Y-84550883D01*
X145391079Y-84531670D01*
X145378782Y-84511153D01*
X145368554Y-84489529D01*
X145360496Y-84467007D01*
X145354684Y-84443803D01*
X145351174Y-84420142D01*
X145350000Y-84396250D01*
X145350000Y-83908750D01*
X145351174Y-83884858D01*
X145354684Y-83861197D01*
X145360496Y-83837993D01*
X145368554Y-83815471D01*
X145378782Y-83793847D01*
X145391079Y-83773330D01*
X145405329Y-83754117D01*
X145421393Y-83736393D01*
X145439117Y-83720329D01*
X145458330Y-83706079D01*
X145478847Y-83693782D01*
X145500471Y-83683554D01*
X145522993Y-83675496D01*
X145546197Y-83669684D01*
X145569858Y-83666174D01*
X145593750Y-83665000D01*
X146506250Y-83665000D01*
X146530142Y-83666174D01*
G37*
G36*
X118045142Y-88201174D02*
G01*
X118068803Y-88204684D01*
X118092007Y-88210496D01*
X118114529Y-88218554D01*
X118136153Y-88228782D01*
X118156670Y-88241079D01*
X118175883Y-88255329D01*
X118193607Y-88271393D01*
X118209671Y-88289117D01*
X118223921Y-88308330D01*
X118236218Y-88328847D01*
X118246446Y-88350471D01*
X118254504Y-88372993D01*
X118260316Y-88396197D01*
X118263826Y-88419858D01*
X118265000Y-88443750D01*
X118265000Y-89356250D01*
X118263826Y-89380142D01*
X118260316Y-89403803D01*
X118254504Y-89427007D01*
X118246446Y-89449529D01*
X118236218Y-89471153D01*
X118223921Y-89491670D01*
X118209671Y-89510883D01*
X118193607Y-89528607D01*
X118175883Y-89544671D01*
X118156670Y-89558921D01*
X118136153Y-89571218D01*
X118114529Y-89581446D01*
X118092007Y-89589504D01*
X118068803Y-89595316D01*
X118045142Y-89598826D01*
X118021250Y-89600000D01*
X117533750Y-89600000D01*
X117509858Y-89598826D01*
X117486197Y-89595316D01*
X117462993Y-89589504D01*
X117440471Y-89581446D01*
X117418847Y-89571218D01*
X117398330Y-89558921D01*
X117379117Y-89544671D01*
X117361393Y-89528607D01*
X117345329Y-89510883D01*
X117331079Y-89491670D01*
X117318782Y-89471153D01*
X117308554Y-89449529D01*
X117300496Y-89427007D01*
X117294684Y-89403803D01*
X117291174Y-89380142D01*
X117290000Y-89356250D01*
X117290000Y-88443750D01*
X117291174Y-88419858D01*
X117294684Y-88396197D01*
X117300496Y-88372993D01*
X117308554Y-88350471D01*
X117318782Y-88328847D01*
X117331079Y-88308330D01*
X117345329Y-88289117D01*
X117361393Y-88271393D01*
X117379117Y-88255329D01*
X117398330Y-88241079D01*
X117418847Y-88228782D01*
X117440471Y-88218554D01*
X117462993Y-88210496D01*
X117486197Y-88204684D01*
X117509858Y-88201174D01*
X117533750Y-88200000D01*
X118021250Y-88200000D01*
X118045142Y-88201174D01*
G37*
G36*
X116170142Y-88201174D02*
G01*
X116193803Y-88204684D01*
X116217007Y-88210496D01*
X116239529Y-88218554D01*
X116261153Y-88228782D01*
X116281670Y-88241079D01*
X116300883Y-88255329D01*
X116318607Y-88271393D01*
X116334671Y-88289117D01*
X116348921Y-88308330D01*
X116361218Y-88328847D01*
X116371446Y-88350471D01*
X116379504Y-88372993D01*
X116385316Y-88396197D01*
X116388826Y-88419858D01*
X116390000Y-88443750D01*
X116390000Y-89356250D01*
X116388826Y-89380142D01*
X116385316Y-89403803D01*
X116379504Y-89427007D01*
X116371446Y-89449529D01*
X116361218Y-89471153D01*
X116348921Y-89491670D01*
X116334671Y-89510883D01*
X116318607Y-89528607D01*
X116300883Y-89544671D01*
X116281670Y-89558921D01*
X116261153Y-89571218D01*
X116239529Y-89581446D01*
X116217007Y-89589504D01*
X116193803Y-89595316D01*
X116170142Y-89598826D01*
X116146250Y-89600000D01*
X115658750Y-89600000D01*
X115634858Y-89598826D01*
X115611197Y-89595316D01*
X115587993Y-89589504D01*
X115565471Y-89581446D01*
X115543847Y-89571218D01*
X115523330Y-89558921D01*
X115504117Y-89544671D01*
X115486393Y-89528607D01*
X115470329Y-89510883D01*
X115456079Y-89491670D01*
X115443782Y-89471153D01*
X115433554Y-89449529D01*
X115425496Y-89427007D01*
X115419684Y-89403803D01*
X115416174Y-89380142D01*
X115415000Y-89356250D01*
X115415000Y-88443750D01*
X115416174Y-88419858D01*
X115419684Y-88396197D01*
X115425496Y-88372993D01*
X115433554Y-88350471D01*
X115443782Y-88328847D01*
X115456079Y-88308330D01*
X115470329Y-88289117D01*
X115486393Y-88271393D01*
X115504117Y-88255329D01*
X115523330Y-88241079D01*
X115543847Y-88228782D01*
X115565471Y-88218554D01*
X115587993Y-88210496D01*
X115611197Y-88204684D01*
X115634858Y-88201174D01*
X115658750Y-88200000D01*
X116146250Y-88200000D01*
X116170142Y-88201174D01*
G37*
G36*
X116170142Y-90741174D02*
G01*
X116193803Y-90744684D01*
X116217007Y-90750496D01*
X116239529Y-90758554D01*
X116261153Y-90768782D01*
X116281670Y-90781079D01*
X116300883Y-90795329D01*
X116318607Y-90811393D01*
X116334671Y-90829117D01*
X116348921Y-90848330D01*
X116361218Y-90868847D01*
X116371446Y-90890471D01*
X116379504Y-90912993D01*
X116385316Y-90936197D01*
X116388826Y-90959858D01*
X116390000Y-90983750D01*
X116390000Y-91896250D01*
X116388826Y-91920142D01*
X116385316Y-91943803D01*
X116379504Y-91967007D01*
X116371446Y-91989529D01*
X116361218Y-92011153D01*
X116348921Y-92031670D01*
X116334671Y-92050883D01*
X116318607Y-92068607D01*
X116300883Y-92084671D01*
X116281670Y-92098921D01*
X116261153Y-92111218D01*
X116239529Y-92121446D01*
X116217007Y-92129504D01*
X116193803Y-92135316D01*
X116170142Y-92138826D01*
X116146250Y-92140000D01*
X115658750Y-92140000D01*
X115634858Y-92138826D01*
X115611197Y-92135316D01*
X115587993Y-92129504D01*
X115565471Y-92121446D01*
X115543847Y-92111218D01*
X115523330Y-92098921D01*
X115504117Y-92084671D01*
X115486393Y-92068607D01*
X115470329Y-92050883D01*
X115456079Y-92031670D01*
X115443782Y-92011153D01*
X115433554Y-91989529D01*
X115425496Y-91967007D01*
X115419684Y-91943803D01*
X115416174Y-91920142D01*
X115415000Y-91896250D01*
X115415000Y-90983750D01*
X115416174Y-90959858D01*
X115419684Y-90936197D01*
X115425496Y-90912993D01*
X115433554Y-90890471D01*
X115443782Y-90868847D01*
X115456079Y-90848330D01*
X115470329Y-90829117D01*
X115486393Y-90811393D01*
X115504117Y-90795329D01*
X115523330Y-90781079D01*
X115543847Y-90768782D01*
X115565471Y-90758554D01*
X115587993Y-90750496D01*
X115611197Y-90744684D01*
X115634858Y-90741174D01*
X115658750Y-90740000D01*
X116146250Y-90740000D01*
X116170142Y-90741174D01*
G37*
G36*
X118045142Y-90741174D02*
G01*
X118068803Y-90744684D01*
X118092007Y-90750496D01*
X118114529Y-90758554D01*
X118136153Y-90768782D01*
X118156670Y-90781079D01*
X118175883Y-90795329D01*
X118193607Y-90811393D01*
X118209671Y-90829117D01*
X118223921Y-90848330D01*
X118236218Y-90868847D01*
X118246446Y-90890471D01*
X118254504Y-90912993D01*
X118260316Y-90936197D01*
X118263826Y-90959858D01*
X118265000Y-90983750D01*
X118265000Y-91896250D01*
X118263826Y-91920142D01*
X118260316Y-91943803D01*
X118254504Y-91967007D01*
X118246446Y-91989529D01*
X118236218Y-92011153D01*
X118223921Y-92031670D01*
X118209671Y-92050883D01*
X118193607Y-92068607D01*
X118175883Y-92084671D01*
X118156670Y-92098921D01*
X118136153Y-92111218D01*
X118114529Y-92121446D01*
X118092007Y-92129504D01*
X118068803Y-92135316D01*
X118045142Y-92138826D01*
X118021250Y-92140000D01*
X117533750Y-92140000D01*
X117509858Y-92138826D01*
X117486197Y-92135316D01*
X117462993Y-92129504D01*
X117440471Y-92121446D01*
X117418847Y-92111218D01*
X117398330Y-92098921D01*
X117379117Y-92084671D01*
X117361393Y-92068607D01*
X117345329Y-92050883D01*
X117331079Y-92031670D01*
X117318782Y-92011153D01*
X117308554Y-91989529D01*
X117300496Y-91967007D01*
X117294684Y-91943803D01*
X117291174Y-91920142D01*
X117290000Y-91896250D01*
X117290000Y-90983750D01*
X117291174Y-90959858D01*
X117294684Y-90936197D01*
X117300496Y-90912993D01*
X117308554Y-90890471D01*
X117318782Y-90868847D01*
X117331079Y-90848330D01*
X117345329Y-90829117D01*
X117361393Y-90811393D01*
X117379117Y-90795329D01*
X117398330Y-90781079D01*
X117418847Y-90768782D01*
X117440471Y-90758554D01*
X117462993Y-90750496D01*
X117486197Y-90744684D01*
X117509858Y-90741174D01*
X117533750Y-90740000D01*
X118021250Y-90740000D01*
X118045142Y-90741174D01*
G37*
D11*
X102902500Y-83550000D03*
D12*
X105602500Y-81900000D03*
X105602500Y-81250000D03*
X105602500Y-83850000D03*
X105602500Y-83200000D03*
X105602500Y-82550000D03*
D11*
X102902500Y-81550000D03*
D10*
G36*
X112360142Y-90741174D02*
G01*
X112383803Y-90744684D01*
X112407007Y-90750496D01*
X112429529Y-90758554D01*
X112451153Y-90768782D01*
X112471670Y-90781079D01*
X112490883Y-90795329D01*
X112508607Y-90811393D01*
X112524671Y-90829117D01*
X112538921Y-90848330D01*
X112551218Y-90868847D01*
X112561446Y-90890471D01*
X112569504Y-90912993D01*
X112575316Y-90936197D01*
X112578826Y-90959858D01*
X112580000Y-90983750D01*
X112580000Y-91896250D01*
X112578826Y-91920142D01*
X112575316Y-91943803D01*
X112569504Y-91967007D01*
X112561446Y-91989529D01*
X112551218Y-92011153D01*
X112538921Y-92031670D01*
X112524671Y-92050883D01*
X112508607Y-92068607D01*
X112490883Y-92084671D01*
X112471670Y-92098921D01*
X112451153Y-92111218D01*
X112429529Y-92121446D01*
X112407007Y-92129504D01*
X112383803Y-92135316D01*
X112360142Y-92138826D01*
X112336250Y-92140000D01*
X111848750Y-92140000D01*
X111824858Y-92138826D01*
X111801197Y-92135316D01*
X111777993Y-92129504D01*
X111755471Y-92121446D01*
X111733847Y-92111218D01*
X111713330Y-92098921D01*
X111694117Y-92084671D01*
X111676393Y-92068607D01*
X111660329Y-92050883D01*
X111646079Y-92031670D01*
X111633782Y-92011153D01*
X111623554Y-91989529D01*
X111615496Y-91967007D01*
X111609684Y-91943803D01*
X111606174Y-91920142D01*
X111605000Y-91896250D01*
X111605000Y-90983750D01*
X111606174Y-90959858D01*
X111609684Y-90936197D01*
X111615496Y-90912993D01*
X111623554Y-90890471D01*
X111633782Y-90868847D01*
X111646079Y-90848330D01*
X111660329Y-90829117D01*
X111676393Y-90811393D01*
X111694117Y-90795329D01*
X111713330Y-90781079D01*
X111733847Y-90768782D01*
X111755471Y-90758554D01*
X111777993Y-90750496D01*
X111801197Y-90744684D01*
X111824858Y-90741174D01*
X111848750Y-90740000D01*
X112336250Y-90740000D01*
X112360142Y-90741174D01*
G37*
G36*
X114235142Y-90741174D02*
G01*
X114258803Y-90744684D01*
X114282007Y-90750496D01*
X114304529Y-90758554D01*
X114326153Y-90768782D01*
X114346670Y-90781079D01*
X114365883Y-90795329D01*
X114383607Y-90811393D01*
X114399671Y-90829117D01*
X114413921Y-90848330D01*
X114426218Y-90868847D01*
X114436446Y-90890471D01*
X114444504Y-90912993D01*
X114450316Y-90936197D01*
X114453826Y-90959858D01*
X114455000Y-90983750D01*
X114455000Y-91896250D01*
X114453826Y-91920142D01*
X114450316Y-91943803D01*
X114444504Y-91967007D01*
X114436446Y-91989529D01*
X114426218Y-92011153D01*
X114413921Y-92031670D01*
X114399671Y-92050883D01*
X114383607Y-92068607D01*
X114365883Y-92084671D01*
X114346670Y-92098921D01*
X114326153Y-92111218D01*
X114304529Y-92121446D01*
X114282007Y-92129504D01*
X114258803Y-92135316D01*
X114235142Y-92138826D01*
X114211250Y-92140000D01*
X113723750Y-92140000D01*
X113699858Y-92138826D01*
X113676197Y-92135316D01*
X113652993Y-92129504D01*
X113630471Y-92121446D01*
X113608847Y-92111218D01*
X113588330Y-92098921D01*
X113569117Y-92084671D01*
X113551393Y-92068607D01*
X113535329Y-92050883D01*
X113521079Y-92031670D01*
X113508782Y-92011153D01*
X113498554Y-91989529D01*
X113490496Y-91967007D01*
X113484684Y-91943803D01*
X113481174Y-91920142D01*
X113480000Y-91896250D01*
X113480000Y-90983750D01*
X113481174Y-90959858D01*
X113484684Y-90936197D01*
X113490496Y-90912993D01*
X113498554Y-90890471D01*
X113508782Y-90868847D01*
X113521079Y-90848330D01*
X113535329Y-90829117D01*
X113551393Y-90811393D01*
X113569117Y-90795329D01*
X113588330Y-90781079D01*
X113608847Y-90768782D01*
X113630471Y-90758554D01*
X113652993Y-90750496D01*
X113676197Y-90744684D01*
X113699858Y-90741174D01*
X113723750Y-90740000D01*
X114211250Y-90740000D01*
X114235142Y-90741174D01*
G37*
G36*
X128870142Y-91376174D02*
G01*
X128893803Y-91379684D01*
X128917007Y-91385496D01*
X128939529Y-91393554D01*
X128961153Y-91403782D01*
X128981670Y-91416079D01*
X129000883Y-91430329D01*
X129018607Y-91446393D01*
X129034671Y-91464117D01*
X129048921Y-91483330D01*
X129061218Y-91503847D01*
X129071446Y-91525471D01*
X129079504Y-91547993D01*
X129085316Y-91571197D01*
X129088826Y-91594858D01*
X129090000Y-91618750D01*
X129090000Y-92531250D01*
X129088826Y-92555142D01*
X129085316Y-92578803D01*
X129079504Y-92602007D01*
X129071446Y-92624529D01*
X129061218Y-92646153D01*
X129048921Y-92666670D01*
X129034671Y-92685883D01*
X129018607Y-92703607D01*
X129000883Y-92719671D01*
X128981670Y-92733921D01*
X128961153Y-92746218D01*
X128939529Y-92756446D01*
X128917007Y-92764504D01*
X128893803Y-92770316D01*
X128870142Y-92773826D01*
X128846250Y-92775000D01*
X128358750Y-92775000D01*
X128334858Y-92773826D01*
X128311197Y-92770316D01*
X128287993Y-92764504D01*
X128265471Y-92756446D01*
X128243847Y-92746218D01*
X128223330Y-92733921D01*
X128204117Y-92719671D01*
X128186393Y-92703607D01*
X128170329Y-92685883D01*
X128156079Y-92666670D01*
X128143782Y-92646153D01*
X128133554Y-92624529D01*
X128125496Y-92602007D01*
X128119684Y-92578803D01*
X128116174Y-92555142D01*
X128115000Y-92531250D01*
X128115000Y-91618750D01*
X128116174Y-91594858D01*
X128119684Y-91571197D01*
X128125496Y-91547993D01*
X128133554Y-91525471D01*
X128143782Y-91503847D01*
X128156079Y-91483330D01*
X128170329Y-91464117D01*
X128186393Y-91446393D01*
X128204117Y-91430329D01*
X128223330Y-91416079D01*
X128243847Y-91403782D01*
X128265471Y-91393554D01*
X128287993Y-91385496D01*
X128311197Y-91379684D01*
X128334858Y-91376174D01*
X128358750Y-91375000D01*
X128846250Y-91375000D01*
X128870142Y-91376174D01*
G37*
G36*
X130745142Y-91376174D02*
G01*
X130768803Y-91379684D01*
X130792007Y-91385496D01*
X130814529Y-91393554D01*
X130836153Y-91403782D01*
X130856670Y-91416079D01*
X130875883Y-91430329D01*
X130893607Y-91446393D01*
X130909671Y-91464117D01*
X130923921Y-91483330D01*
X130936218Y-91503847D01*
X130946446Y-91525471D01*
X130954504Y-91547993D01*
X130960316Y-91571197D01*
X130963826Y-91594858D01*
X130965000Y-91618750D01*
X130965000Y-92531250D01*
X130963826Y-92555142D01*
X130960316Y-92578803D01*
X130954504Y-92602007D01*
X130946446Y-92624529D01*
X130936218Y-92646153D01*
X130923921Y-92666670D01*
X130909671Y-92685883D01*
X130893607Y-92703607D01*
X130875883Y-92719671D01*
X130856670Y-92733921D01*
X130836153Y-92746218D01*
X130814529Y-92756446D01*
X130792007Y-92764504D01*
X130768803Y-92770316D01*
X130745142Y-92773826D01*
X130721250Y-92775000D01*
X130233750Y-92775000D01*
X130209858Y-92773826D01*
X130186197Y-92770316D01*
X130162993Y-92764504D01*
X130140471Y-92756446D01*
X130118847Y-92746218D01*
X130098330Y-92733921D01*
X130079117Y-92719671D01*
X130061393Y-92703607D01*
X130045329Y-92685883D01*
X130031079Y-92666670D01*
X130018782Y-92646153D01*
X130008554Y-92624529D01*
X130000496Y-92602007D01*
X129994684Y-92578803D01*
X129991174Y-92555142D01*
X129990000Y-92531250D01*
X129990000Y-91618750D01*
X129991174Y-91594858D01*
X129994684Y-91571197D01*
X130000496Y-91547993D01*
X130008554Y-91525471D01*
X130018782Y-91503847D01*
X130031079Y-91483330D01*
X130045329Y-91464117D01*
X130061393Y-91446393D01*
X130079117Y-91430329D01*
X130098330Y-91416079D01*
X130118847Y-91403782D01*
X130140471Y-91393554D01*
X130162993Y-91385496D01*
X130186197Y-91379684D01*
X130209858Y-91376174D01*
X130233750Y-91375000D01*
X130721250Y-91375000D01*
X130745142Y-91376174D01*
G37*
G36*
X122400142Y-83001174D02*
G01*
X122423803Y-83004684D01*
X122447007Y-83010496D01*
X122469529Y-83018554D01*
X122491153Y-83028782D01*
X122511670Y-83041079D01*
X122530883Y-83055329D01*
X122548607Y-83071393D01*
X122564671Y-83089117D01*
X122578921Y-83108330D01*
X122591218Y-83128847D01*
X122601446Y-83150471D01*
X122609504Y-83172993D01*
X122615316Y-83196197D01*
X122618826Y-83219858D01*
X122620000Y-83243750D01*
X122620000Y-83731250D01*
X122618826Y-83755142D01*
X122615316Y-83778803D01*
X122609504Y-83802007D01*
X122601446Y-83824529D01*
X122591218Y-83846153D01*
X122578921Y-83866670D01*
X122564671Y-83885883D01*
X122548607Y-83903607D01*
X122530883Y-83919671D01*
X122511670Y-83933921D01*
X122491153Y-83946218D01*
X122469529Y-83956446D01*
X122447007Y-83964504D01*
X122423803Y-83970316D01*
X122400142Y-83973826D01*
X122376250Y-83975000D01*
X121463750Y-83975000D01*
X121439858Y-83973826D01*
X121416197Y-83970316D01*
X121392993Y-83964504D01*
X121370471Y-83956446D01*
X121348847Y-83946218D01*
X121328330Y-83933921D01*
X121309117Y-83919671D01*
X121291393Y-83903607D01*
X121275329Y-83885883D01*
X121261079Y-83866670D01*
X121248782Y-83846153D01*
X121238554Y-83824529D01*
X121230496Y-83802007D01*
X121224684Y-83778803D01*
X121221174Y-83755142D01*
X121220000Y-83731250D01*
X121220000Y-83243750D01*
X121221174Y-83219858D01*
X121224684Y-83196197D01*
X121230496Y-83172993D01*
X121238554Y-83150471D01*
X121248782Y-83128847D01*
X121261079Y-83108330D01*
X121275329Y-83089117D01*
X121291393Y-83071393D01*
X121309117Y-83055329D01*
X121328330Y-83041079D01*
X121348847Y-83028782D01*
X121370471Y-83018554D01*
X121392993Y-83010496D01*
X121416197Y-83004684D01*
X121439858Y-83001174D01*
X121463750Y-83000000D01*
X122376250Y-83000000D01*
X122400142Y-83001174D01*
G37*
G36*
X122400142Y-81126174D02*
G01*
X122423803Y-81129684D01*
X122447007Y-81135496D01*
X122469529Y-81143554D01*
X122491153Y-81153782D01*
X122511670Y-81166079D01*
X122530883Y-81180329D01*
X122548607Y-81196393D01*
X122564671Y-81214117D01*
X122578921Y-81233330D01*
X122591218Y-81253847D01*
X122601446Y-81275471D01*
X122609504Y-81297993D01*
X122615316Y-81321197D01*
X122618826Y-81344858D01*
X122620000Y-81368750D01*
X122620000Y-81856250D01*
X122618826Y-81880142D01*
X122615316Y-81903803D01*
X122609504Y-81927007D01*
X122601446Y-81949529D01*
X122591218Y-81971153D01*
X122578921Y-81991670D01*
X122564671Y-82010883D01*
X122548607Y-82028607D01*
X122530883Y-82044671D01*
X122511670Y-82058921D01*
X122491153Y-82071218D01*
X122469529Y-82081446D01*
X122447007Y-82089504D01*
X122423803Y-82095316D01*
X122400142Y-82098826D01*
X122376250Y-82100000D01*
X121463750Y-82100000D01*
X121439858Y-82098826D01*
X121416197Y-82095316D01*
X121392993Y-82089504D01*
X121370471Y-82081446D01*
X121348847Y-82071218D01*
X121328330Y-82058921D01*
X121309117Y-82044671D01*
X121291393Y-82028607D01*
X121275329Y-82010883D01*
X121261079Y-81991670D01*
X121248782Y-81971153D01*
X121238554Y-81949529D01*
X121230496Y-81927007D01*
X121224684Y-81903803D01*
X121221174Y-81880142D01*
X121220000Y-81856250D01*
X121220000Y-81368750D01*
X121221174Y-81344858D01*
X121224684Y-81321197D01*
X121230496Y-81297993D01*
X121238554Y-81275471D01*
X121248782Y-81253847D01*
X121261079Y-81233330D01*
X121275329Y-81214117D01*
X121291393Y-81196393D01*
X121309117Y-81180329D01*
X121328330Y-81166079D01*
X121348847Y-81153782D01*
X121370471Y-81143554D01*
X121392993Y-81135496D01*
X121416197Y-81129684D01*
X121439858Y-81126174D01*
X121463750Y-81125000D01*
X122376250Y-81125000D01*
X122400142Y-81126174D01*
G37*
G36*
X130745142Y-87566174D02*
G01*
X130768803Y-87569684D01*
X130792007Y-87575496D01*
X130814529Y-87583554D01*
X130836153Y-87593782D01*
X130856670Y-87606079D01*
X130875883Y-87620329D01*
X130893607Y-87636393D01*
X130909671Y-87654117D01*
X130923921Y-87673330D01*
X130936218Y-87693847D01*
X130946446Y-87715471D01*
X130954504Y-87737993D01*
X130960316Y-87761197D01*
X130963826Y-87784858D01*
X130965000Y-87808750D01*
X130965000Y-88721250D01*
X130963826Y-88745142D01*
X130960316Y-88768803D01*
X130954504Y-88792007D01*
X130946446Y-88814529D01*
X130936218Y-88836153D01*
X130923921Y-88856670D01*
X130909671Y-88875883D01*
X130893607Y-88893607D01*
X130875883Y-88909671D01*
X130856670Y-88923921D01*
X130836153Y-88936218D01*
X130814529Y-88946446D01*
X130792007Y-88954504D01*
X130768803Y-88960316D01*
X130745142Y-88963826D01*
X130721250Y-88965000D01*
X130233750Y-88965000D01*
X130209858Y-88963826D01*
X130186197Y-88960316D01*
X130162993Y-88954504D01*
X130140471Y-88946446D01*
X130118847Y-88936218D01*
X130098330Y-88923921D01*
X130079117Y-88909671D01*
X130061393Y-88893607D01*
X130045329Y-88875883D01*
X130031079Y-88856670D01*
X130018782Y-88836153D01*
X130008554Y-88814529D01*
X130000496Y-88792007D01*
X129994684Y-88768803D01*
X129991174Y-88745142D01*
X129990000Y-88721250D01*
X129990000Y-87808750D01*
X129991174Y-87784858D01*
X129994684Y-87761197D01*
X130000496Y-87737993D01*
X130008554Y-87715471D01*
X130018782Y-87693847D01*
X130031079Y-87673330D01*
X130045329Y-87654117D01*
X130061393Y-87636393D01*
X130079117Y-87620329D01*
X130098330Y-87606079D01*
X130118847Y-87593782D01*
X130140471Y-87583554D01*
X130162993Y-87575496D01*
X130186197Y-87569684D01*
X130209858Y-87566174D01*
X130233750Y-87565000D01*
X130721250Y-87565000D01*
X130745142Y-87566174D01*
G37*
G36*
X128870142Y-87566174D02*
G01*
X128893803Y-87569684D01*
X128917007Y-87575496D01*
X128939529Y-87583554D01*
X128961153Y-87593782D01*
X128981670Y-87606079D01*
X129000883Y-87620329D01*
X129018607Y-87636393D01*
X129034671Y-87654117D01*
X129048921Y-87673330D01*
X129061218Y-87693847D01*
X129071446Y-87715471D01*
X129079504Y-87737993D01*
X129085316Y-87761197D01*
X129088826Y-87784858D01*
X129090000Y-87808750D01*
X129090000Y-88721250D01*
X129088826Y-88745142D01*
X129085316Y-88768803D01*
X129079504Y-88792007D01*
X129071446Y-88814529D01*
X129061218Y-88836153D01*
X129048921Y-88856670D01*
X129034671Y-88875883D01*
X129018607Y-88893607D01*
X129000883Y-88909671D01*
X128981670Y-88923921D01*
X128961153Y-88936218D01*
X128939529Y-88946446D01*
X128917007Y-88954504D01*
X128893803Y-88960316D01*
X128870142Y-88963826D01*
X128846250Y-88965000D01*
X128358750Y-88965000D01*
X128334858Y-88963826D01*
X128311197Y-88960316D01*
X128287993Y-88954504D01*
X128265471Y-88946446D01*
X128243847Y-88936218D01*
X128223330Y-88923921D01*
X128204117Y-88909671D01*
X128186393Y-88893607D01*
X128170329Y-88875883D01*
X128156079Y-88856670D01*
X128143782Y-88836153D01*
X128133554Y-88814529D01*
X128125496Y-88792007D01*
X128119684Y-88768803D01*
X128116174Y-88745142D01*
X128115000Y-88721250D01*
X128115000Y-87808750D01*
X128116174Y-87784858D01*
X128119684Y-87761197D01*
X128125496Y-87737993D01*
X128133554Y-87715471D01*
X128143782Y-87693847D01*
X128156079Y-87673330D01*
X128170329Y-87654117D01*
X128186393Y-87636393D01*
X128204117Y-87620329D01*
X128223330Y-87606079D01*
X128243847Y-87593782D01*
X128265471Y-87583554D01*
X128287993Y-87575496D01*
X128311197Y-87569684D01*
X128334858Y-87566174D01*
X128358750Y-87565000D01*
X128846250Y-87565000D01*
X128870142Y-87566174D01*
G37*
G36*
X129475142Y-78041174D02*
G01*
X129498803Y-78044684D01*
X129522007Y-78050496D01*
X129544529Y-78058554D01*
X129566153Y-78068782D01*
X129586670Y-78081079D01*
X129605883Y-78095329D01*
X129623607Y-78111393D01*
X129639671Y-78129117D01*
X129653921Y-78148330D01*
X129666218Y-78168847D01*
X129676446Y-78190471D01*
X129684504Y-78212993D01*
X129690316Y-78236197D01*
X129693826Y-78259858D01*
X129695000Y-78283750D01*
X129695000Y-79196250D01*
X129693826Y-79220142D01*
X129690316Y-79243803D01*
X129684504Y-79267007D01*
X129676446Y-79289529D01*
X129666218Y-79311153D01*
X129653921Y-79331670D01*
X129639671Y-79350883D01*
X129623607Y-79368607D01*
X129605883Y-79384671D01*
X129586670Y-79398921D01*
X129566153Y-79411218D01*
X129544529Y-79421446D01*
X129522007Y-79429504D01*
X129498803Y-79435316D01*
X129475142Y-79438826D01*
X129451250Y-79440000D01*
X128963750Y-79440000D01*
X128939858Y-79438826D01*
X128916197Y-79435316D01*
X128892993Y-79429504D01*
X128870471Y-79421446D01*
X128848847Y-79411218D01*
X128828330Y-79398921D01*
X128809117Y-79384671D01*
X128791393Y-79368607D01*
X128775329Y-79350883D01*
X128761079Y-79331670D01*
X128748782Y-79311153D01*
X128738554Y-79289529D01*
X128730496Y-79267007D01*
X128724684Y-79243803D01*
X128721174Y-79220142D01*
X128720000Y-79196250D01*
X128720000Y-78283750D01*
X128721174Y-78259858D01*
X128724684Y-78236197D01*
X128730496Y-78212993D01*
X128738554Y-78190471D01*
X128748782Y-78168847D01*
X128761079Y-78148330D01*
X128775329Y-78129117D01*
X128791393Y-78111393D01*
X128809117Y-78095329D01*
X128828330Y-78081079D01*
X128848847Y-78068782D01*
X128870471Y-78058554D01*
X128892993Y-78050496D01*
X128916197Y-78044684D01*
X128939858Y-78041174D01*
X128963750Y-78040000D01*
X129451250Y-78040000D01*
X129475142Y-78041174D01*
G37*
G36*
X127600142Y-78041174D02*
G01*
X127623803Y-78044684D01*
X127647007Y-78050496D01*
X127669529Y-78058554D01*
X127691153Y-78068782D01*
X127711670Y-78081079D01*
X127730883Y-78095329D01*
X127748607Y-78111393D01*
X127764671Y-78129117D01*
X127778921Y-78148330D01*
X127791218Y-78168847D01*
X127801446Y-78190471D01*
X127809504Y-78212993D01*
X127815316Y-78236197D01*
X127818826Y-78259858D01*
X127820000Y-78283750D01*
X127820000Y-79196250D01*
X127818826Y-79220142D01*
X127815316Y-79243803D01*
X127809504Y-79267007D01*
X127801446Y-79289529D01*
X127791218Y-79311153D01*
X127778921Y-79331670D01*
X127764671Y-79350883D01*
X127748607Y-79368607D01*
X127730883Y-79384671D01*
X127711670Y-79398921D01*
X127691153Y-79411218D01*
X127669529Y-79421446D01*
X127647007Y-79429504D01*
X127623803Y-79435316D01*
X127600142Y-79438826D01*
X127576250Y-79440000D01*
X127088750Y-79440000D01*
X127064858Y-79438826D01*
X127041197Y-79435316D01*
X127017993Y-79429504D01*
X126995471Y-79421446D01*
X126973847Y-79411218D01*
X126953330Y-79398921D01*
X126934117Y-79384671D01*
X126916393Y-79368607D01*
X126900329Y-79350883D01*
X126886079Y-79331670D01*
X126873782Y-79311153D01*
X126863554Y-79289529D01*
X126855496Y-79267007D01*
X126849684Y-79243803D01*
X126846174Y-79220142D01*
X126845000Y-79196250D01*
X126845000Y-78283750D01*
X126846174Y-78259858D01*
X126849684Y-78236197D01*
X126855496Y-78212993D01*
X126863554Y-78190471D01*
X126873782Y-78168847D01*
X126886079Y-78148330D01*
X126900329Y-78129117D01*
X126916393Y-78111393D01*
X126934117Y-78095329D01*
X126953330Y-78081079D01*
X126973847Y-78068782D01*
X126995471Y-78058554D01*
X127017993Y-78050496D01*
X127041197Y-78044684D01*
X127064858Y-78041174D01*
X127088750Y-78040000D01*
X127576250Y-78040000D01*
X127600142Y-78041174D01*
G37*
D13*
X125900000Y-82870000D03*
X125900000Y-83820000D03*
X125900000Y-84770000D03*
X128100000Y-84770000D03*
X128100000Y-82870000D03*
X128100000Y-83820000D03*
D14*
X117135000Y-85500000D03*
X117785000Y-85500000D03*
X118435000Y-85500000D03*
X119085000Y-85500000D03*
X119085000Y-79600000D03*
X118435000Y-79600000D03*
X117785000Y-79600000D03*
X117135000Y-79600000D03*
D10*
G36*
X112360142Y-88201174D02*
G01*
X112383803Y-88204684D01*
X112407007Y-88210496D01*
X112429529Y-88218554D01*
X112451153Y-88228782D01*
X112471670Y-88241079D01*
X112490883Y-88255329D01*
X112508607Y-88271393D01*
X112524671Y-88289117D01*
X112538921Y-88308330D01*
X112551218Y-88328847D01*
X112561446Y-88350471D01*
X112569504Y-88372993D01*
X112575316Y-88396197D01*
X112578826Y-88419858D01*
X112580000Y-88443750D01*
X112580000Y-89356250D01*
X112578826Y-89380142D01*
X112575316Y-89403803D01*
X112569504Y-89427007D01*
X112561446Y-89449529D01*
X112551218Y-89471153D01*
X112538921Y-89491670D01*
X112524671Y-89510883D01*
X112508607Y-89528607D01*
X112490883Y-89544671D01*
X112471670Y-89558921D01*
X112451153Y-89571218D01*
X112429529Y-89581446D01*
X112407007Y-89589504D01*
X112383803Y-89595316D01*
X112360142Y-89598826D01*
X112336250Y-89600000D01*
X111848750Y-89600000D01*
X111824858Y-89598826D01*
X111801197Y-89595316D01*
X111777993Y-89589504D01*
X111755471Y-89581446D01*
X111733847Y-89571218D01*
X111713330Y-89558921D01*
X111694117Y-89544671D01*
X111676393Y-89528607D01*
X111660329Y-89510883D01*
X111646079Y-89491670D01*
X111633782Y-89471153D01*
X111623554Y-89449529D01*
X111615496Y-89427007D01*
X111609684Y-89403803D01*
X111606174Y-89380142D01*
X111605000Y-89356250D01*
X111605000Y-88443750D01*
X111606174Y-88419858D01*
X111609684Y-88396197D01*
X111615496Y-88372993D01*
X111623554Y-88350471D01*
X111633782Y-88328847D01*
X111646079Y-88308330D01*
X111660329Y-88289117D01*
X111676393Y-88271393D01*
X111694117Y-88255329D01*
X111713330Y-88241079D01*
X111733847Y-88228782D01*
X111755471Y-88218554D01*
X111777993Y-88210496D01*
X111801197Y-88204684D01*
X111824858Y-88201174D01*
X111848750Y-88200000D01*
X112336250Y-88200000D01*
X112360142Y-88201174D01*
G37*
G36*
X114235142Y-88201174D02*
G01*
X114258803Y-88204684D01*
X114282007Y-88210496D01*
X114304529Y-88218554D01*
X114326153Y-88228782D01*
X114346670Y-88241079D01*
X114365883Y-88255329D01*
X114383607Y-88271393D01*
X114399671Y-88289117D01*
X114413921Y-88308330D01*
X114426218Y-88328847D01*
X114436446Y-88350471D01*
X114444504Y-88372993D01*
X114450316Y-88396197D01*
X114453826Y-88419858D01*
X114455000Y-88443750D01*
X114455000Y-89356250D01*
X114453826Y-89380142D01*
X114450316Y-89403803D01*
X114444504Y-89427007D01*
X114436446Y-89449529D01*
X114426218Y-89471153D01*
X114413921Y-89491670D01*
X114399671Y-89510883D01*
X114383607Y-89528607D01*
X114365883Y-89544671D01*
X114346670Y-89558921D01*
X114326153Y-89571218D01*
X114304529Y-89581446D01*
X114282007Y-89589504D01*
X114258803Y-89595316D01*
X114235142Y-89598826D01*
X114211250Y-89600000D01*
X113723750Y-89600000D01*
X113699858Y-89598826D01*
X113676197Y-89595316D01*
X113652993Y-89589504D01*
X113630471Y-89581446D01*
X113608847Y-89571218D01*
X113588330Y-89558921D01*
X113569117Y-89544671D01*
X113551393Y-89528607D01*
X113535329Y-89510883D01*
X113521079Y-89491670D01*
X113508782Y-89471153D01*
X113498554Y-89449529D01*
X113490496Y-89427007D01*
X113484684Y-89403803D01*
X113481174Y-89380142D01*
X113480000Y-89356250D01*
X113480000Y-88443750D01*
X113481174Y-88419858D01*
X113484684Y-88396197D01*
X113490496Y-88372993D01*
X113498554Y-88350471D01*
X113508782Y-88328847D01*
X113521079Y-88308330D01*
X113535329Y-88289117D01*
X113551393Y-88271393D01*
X113569117Y-88255329D01*
X113588330Y-88241079D01*
X113608847Y-88228782D01*
X113630471Y-88218554D01*
X113652993Y-88210496D01*
X113676197Y-88204684D01*
X113699858Y-88201174D01*
X113723750Y-88200000D01*
X114211250Y-88200000D01*
X114235142Y-88201174D01*
G37*
D15*
X113030000Y-80150000D03*
X113030000Y-84950000D03*
D16*
X138290000Y-78740000D03*
X133490000Y-78740000D03*
D10*
G36*
X134254703Y-71455722D02*
G01*
X134269264Y-71457882D01*
X134283543Y-71461459D01*
X134297403Y-71466418D01*
X134310710Y-71472712D01*
X134323336Y-71480280D01*
X134335159Y-71489048D01*
X134346066Y-71498934D01*
X134355952Y-71509841D01*
X134364720Y-71521664D01*
X134372288Y-71534290D01*
X134378582Y-71547597D01*
X134383541Y-71561457D01*
X134387118Y-71575736D01*
X134389278Y-71590297D01*
X134390000Y-71605000D01*
X134390000Y-71905000D01*
X134389278Y-71919703D01*
X134387118Y-71934264D01*
X134383541Y-71948543D01*
X134378582Y-71962403D01*
X134372288Y-71975710D01*
X134364720Y-71988336D01*
X134355952Y-72000159D01*
X134346066Y-72011066D01*
X134335159Y-72020952D01*
X134323336Y-72029720D01*
X134310710Y-72037288D01*
X134297403Y-72043582D01*
X134283543Y-72048541D01*
X134269264Y-72052118D01*
X134254703Y-72054278D01*
X134240000Y-72055000D01*
X132590000Y-72055000D01*
X132575297Y-72054278D01*
X132560736Y-72052118D01*
X132546457Y-72048541D01*
X132532597Y-72043582D01*
X132519290Y-72037288D01*
X132506664Y-72029720D01*
X132494841Y-72020952D01*
X132483934Y-72011066D01*
X132474048Y-72000159D01*
X132465280Y-71988336D01*
X132457712Y-71975710D01*
X132451418Y-71962403D01*
X132446459Y-71948543D01*
X132442882Y-71934264D01*
X132440722Y-71919703D01*
X132440000Y-71905000D01*
X132440000Y-71605000D01*
X132440722Y-71590297D01*
X132442882Y-71575736D01*
X132446459Y-71561457D01*
X132451418Y-71547597D01*
X132457712Y-71534290D01*
X132465280Y-71521664D01*
X132474048Y-71509841D01*
X132483934Y-71498934D01*
X132494841Y-71489048D01*
X132506664Y-71480280D01*
X132519290Y-71472712D01*
X132532597Y-71466418D01*
X132546457Y-71461459D01*
X132560736Y-71457882D01*
X132575297Y-71455722D01*
X132590000Y-71455000D01*
X134240000Y-71455000D01*
X134254703Y-71455722D01*
G37*
G36*
X134254703Y-72725722D02*
G01*
X134269264Y-72727882D01*
X134283543Y-72731459D01*
X134297403Y-72736418D01*
X134310710Y-72742712D01*
X134323336Y-72750280D01*
X134335159Y-72759048D01*
X134346066Y-72768934D01*
X134355952Y-72779841D01*
X134364720Y-72791664D01*
X134372288Y-72804290D01*
X134378582Y-72817597D01*
X134383541Y-72831457D01*
X134387118Y-72845736D01*
X134389278Y-72860297D01*
X134390000Y-72875000D01*
X134390000Y-73175000D01*
X134389278Y-73189703D01*
X134387118Y-73204264D01*
X134383541Y-73218543D01*
X134378582Y-73232403D01*
X134372288Y-73245710D01*
X134364720Y-73258336D01*
X134355952Y-73270159D01*
X134346066Y-73281066D01*
X134335159Y-73290952D01*
X134323336Y-73299720D01*
X134310710Y-73307288D01*
X134297403Y-73313582D01*
X134283543Y-73318541D01*
X134269264Y-73322118D01*
X134254703Y-73324278D01*
X134240000Y-73325000D01*
X132590000Y-73325000D01*
X132575297Y-73324278D01*
X132560736Y-73322118D01*
X132546457Y-73318541D01*
X132532597Y-73313582D01*
X132519290Y-73307288D01*
X132506664Y-73299720D01*
X132494841Y-73290952D01*
X132483934Y-73281066D01*
X132474048Y-73270159D01*
X132465280Y-73258336D01*
X132457712Y-73245710D01*
X132451418Y-73232403D01*
X132446459Y-73218543D01*
X132442882Y-73204264D01*
X132440722Y-73189703D01*
X132440000Y-73175000D01*
X132440000Y-72875000D01*
X132440722Y-72860297D01*
X132442882Y-72845736D01*
X132446459Y-72831457D01*
X132451418Y-72817597D01*
X132457712Y-72804290D01*
X132465280Y-72791664D01*
X132474048Y-72779841D01*
X132483934Y-72768934D01*
X132494841Y-72759048D01*
X132506664Y-72750280D01*
X132519290Y-72742712D01*
X132532597Y-72736418D01*
X132546457Y-72731459D01*
X132560736Y-72727882D01*
X132575297Y-72725722D01*
X132590000Y-72725000D01*
X134240000Y-72725000D01*
X134254703Y-72725722D01*
G37*
G36*
X134254703Y-73995722D02*
G01*
X134269264Y-73997882D01*
X134283543Y-74001459D01*
X134297403Y-74006418D01*
X134310710Y-74012712D01*
X134323336Y-74020280D01*
X134335159Y-74029048D01*
X134346066Y-74038934D01*
X134355952Y-74049841D01*
X134364720Y-74061664D01*
X134372288Y-74074290D01*
X134378582Y-74087597D01*
X134383541Y-74101457D01*
X134387118Y-74115736D01*
X134389278Y-74130297D01*
X134390000Y-74145000D01*
X134390000Y-74445000D01*
X134389278Y-74459703D01*
X134387118Y-74474264D01*
X134383541Y-74488543D01*
X134378582Y-74502403D01*
X134372288Y-74515710D01*
X134364720Y-74528336D01*
X134355952Y-74540159D01*
X134346066Y-74551066D01*
X134335159Y-74560952D01*
X134323336Y-74569720D01*
X134310710Y-74577288D01*
X134297403Y-74583582D01*
X134283543Y-74588541D01*
X134269264Y-74592118D01*
X134254703Y-74594278D01*
X134240000Y-74595000D01*
X132590000Y-74595000D01*
X132575297Y-74594278D01*
X132560736Y-74592118D01*
X132546457Y-74588541D01*
X132532597Y-74583582D01*
X132519290Y-74577288D01*
X132506664Y-74569720D01*
X132494841Y-74560952D01*
X132483934Y-74551066D01*
X132474048Y-74540159D01*
X132465280Y-74528336D01*
X132457712Y-74515710D01*
X132451418Y-74502403D01*
X132446459Y-74488543D01*
X132442882Y-74474264D01*
X132440722Y-74459703D01*
X132440000Y-74445000D01*
X132440000Y-74145000D01*
X132440722Y-74130297D01*
X132442882Y-74115736D01*
X132446459Y-74101457D01*
X132451418Y-74087597D01*
X132457712Y-74074290D01*
X132465280Y-74061664D01*
X132474048Y-74049841D01*
X132483934Y-74038934D01*
X132494841Y-74029048D01*
X132506664Y-74020280D01*
X132519290Y-74012712D01*
X132532597Y-74006418D01*
X132546457Y-74001459D01*
X132560736Y-73997882D01*
X132575297Y-73995722D01*
X132590000Y-73995000D01*
X134240000Y-73995000D01*
X134254703Y-73995722D01*
G37*
G36*
X134254703Y-75265722D02*
G01*
X134269264Y-75267882D01*
X134283543Y-75271459D01*
X134297403Y-75276418D01*
X134310710Y-75282712D01*
X134323336Y-75290280D01*
X134335159Y-75299048D01*
X134346066Y-75308934D01*
X134355952Y-75319841D01*
X134364720Y-75331664D01*
X134372288Y-75344290D01*
X134378582Y-75357597D01*
X134383541Y-75371457D01*
X134387118Y-75385736D01*
X134389278Y-75400297D01*
X134390000Y-75415000D01*
X134390000Y-75715000D01*
X134389278Y-75729703D01*
X134387118Y-75744264D01*
X134383541Y-75758543D01*
X134378582Y-75772403D01*
X134372288Y-75785710D01*
X134364720Y-75798336D01*
X134355952Y-75810159D01*
X134346066Y-75821066D01*
X134335159Y-75830952D01*
X134323336Y-75839720D01*
X134310710Y-75847288D01*
X134297403Y-75853582D01*
X134283543Y-75858541D01*
X134269264Y-75862118D01*
X134254703Y-75864278D01*
X134240000Y-75865000D01*
X132590000Y-75865000D01*
X132575297Y-75864278D01*
X132560736Y-75862118D01*
X132546457Y-75858541D01*
X132532597Y-75853582D01*
X132519290Y-75847288D01*
X132506664Y-75839720D01*
X132494841Y-75830952D01*
X132483934Y-75821066D01*
X132474048Y-75810159D01*
X132465280Y-75798336D01*
X132457712Y-75785710D01*
X132451418Y-75772403D01*
X132446459Y-75758543D01*
X132442882Y-75744264D01*
X132440722Y-75729703D01*
X132440000Y-75715000D01*
X132440000Y-75415000D01*
X132440722Y-75400297D01*
X132442882Y-75385736D01*
X132446459Y-75371457D01*
X132451418Y-75357597D01*
X132457712Y-75344290D01*
X132465280Y-75331664D01*
X132474048Y-75319841D01*
X132483934Y-75308934D01*
X132494841Y-75299048D01*
X132506664Y-75290280D01*
X132519290Y-75282712D01*
X132532597Y-75276418D01*
X132546457Y-75271459D01*
X132560736Y-75267882D01*
X132575297Y-75265722D01*
X132590000Y-75265000D01*
X134240000Y-75265000D01*
X134254703Y-75265722D01*
G37*
G36*
X139204703Y-75265722D02*
G01*
X139219264Y-75267882D01*
X139233543Y-75271459D01*
X139247403Y-75276418D01*
X139260710Y-75282712D01*
X139273336Y-75290280D01*
X139285159Y-75299048D01*
X139296066Y-75308934D01*
X139305952Y-75319841D01*
X139314720Y-75331664D01*
X139322288Y-75344290D01*
X139328582Y-75357597D01*
X139333541Y-75371457D01*
X139337118Y-75385736D01*
X139339278Y-75400297D01*
X139340000Y-75415000D01*
X139340000Y-75715000D01*
X139339278Y-75729703D01*
X139337118Y-75744264D01*
X139333541Y-75758543D01*
X139328582Y-75772403D01*
X139322288Y-75785710D01*
X139314720Y-75798336D01*
X139305952Y-75810159D01*
X139296066Y-75821066D01*
X139285159Y-75830952D01*
X139273336Y-75839720D01*
X139260710Y-75847288D01*
X139247403Y-75853582D01*
X139233543Y-75858541D01*
X139219264Y-75862118D01*
X139204703Y-75864278D01*
X139190000Y-75865000D01*
X137540000Y-75865000D01*
X137525297Y-75864278D01*
X137510736Y-75862118D01*
X137496457Y-75858541D01*
X137482597Y-75853582D01*
X137469290Y-75847288D01*
X137456664Y-75839720D01*
X137444841Y-75830952D01*
X137433934Y-75821066D01*
X137424048Y-75810159D01*
X137415280Y-75798336D01*
X137407712Y-75785710D01*
X137401418Y-75772403D01*
X137396459Y-75758543D01*
X137392882Y-75744264D01*
X137390722Y-75729703D01*
X137390000Y-75715000D01*
X137390000Y-75415000D01*
X137390722Y-75400297D01*
X137392882Y-75385736D01*
X137396459Y-75371457D01*
X137401418Y-75357597D01*
X137407712Y-75344290D01*
X137415280Y-75331664D01*
X137424048Y-75319841D01*
X137433934Y-75308934D01*
X137444841Y-75299048D01*
X137456664Y-75290280D01*
X137469290Y-75282712D01*
X137482597Y-75276418D01*
X137496457Y-75271459D01*
X137510736Y-75267882D01*
X137525297Y-75265722D01*
X137540000Y-75265000D01*
X139190000Y-75265000D01*
X139204703Y-75265722D01*
G37*
G36*
X139204703Y-73995722D02*
G01*
X139219264Y-73997882D01*
X139233543Y-74001459D01*
X139247403Y-74006418D01*
X139260710Y-74012712D01*
X139273336Y-74020280D01*
X139285159Y-74029048D01*
X139296066Y-74038934D01*
X139305952Y-74049841D01*
X139314720Y-74061664D01*
X139322288Y-74074290D01*
X139328582Y-74087597D01*
X139333541Y-74101457D01*
X139337118Y-74115736D01*
X139339278Y-74130297D01*
X139340000Y-74145000D01*
X139340000Y-74445000D01*
X139339278Y-74459703D01*
X139337118Y-74474264D01*
X139333541Y-74488543D01*
X139328582Y-74502403D01*
X139322288Y-74515710D01*
X139314720Y-74528336D01*
X139305952Y-74540159D01*
X139296066Y-74551066D01*
X139285159Y-74560952D01*
X139273336Y-74569720D01*
X139260710Y-74577288D01*
X139247403Y-74583582D01*
X139233543Y-74588541D01*
X139219264Y-74592118D01*
X139204703Y-74594278D01*
X139190000Y-74595000D01*
X137540000Y-74595000D01*
X137525297Y-74594278D01*
X137510736Y-74592118D01*
X137496457Y-74588541D01*
X137482597Y-74583582D01*
X137469290Y-74577288D01*
X137456664Y-74569720D01*
X137444841Y-74560952D01*
X137433934Y-74551066D01*
X137424048Y-74540159D01*
X137415280Y-74528336D01*
X137407712Y-74515710D01*
X137401418Y-74502403D01*
X137396459Y-74488543D01*
X137392882Y-74474264D01*
X137390722Y-74459703D01*
X137390000Y-74445000D01*
X137390000Y-74145000D01*
X137390722Y-74130297D01*
X137392882Y-74115736D01*
X137396459Y-74101457D01*
X137401418Y-74087597D01*
X137407712Y-74074290D01*
X137415280Y-74061664D01*
X137424048Y-74049841D01*
X137433934Y-74038934D01*
X137444841Y-74029048D01*
X137456664Y-74020280D01*
X137469290Y-74012712D01*
X137482597Y-74006418D01*
X137496457Y-74001459D01*
X137510736Y-73997882D01*
X137525297Y-73995722D01*
X137540000Y-73995000D01*
X139190000Y-73995000D01*
X139204703Y-73995722D01*
G37*
G36*
X139204703Y-72725722D02*
G01*
X139219264Y-72727882D01*
X139233543Y-72731459D01*
X139247403Y-72736418D01*
X139260710Y-72742712D01*
X139273336Y-72750280D01*
X139285159Y-72759048D01*
X139296066Y-72768934D01*
X139305952Y-72779841D01*
X139314720Y-72791664D01*
X139322288Y-72804290D01*
X139328582Y-72817597D01*
X139333541Y-72831457D01*
X139337118Y-72845736D01*
X139339278Y-72860297D01*
X139340000Y-72875000D01*
X139340000Y-73175000D01*
X139339278Y-73189703D01*
X139337118Y-73204264D01*
X139333541Y-73218543D01*
X139328582Y-73232403D01*
X139322288Y-73245710D01*
X139314720Y-73258336D01*
X139305952Y-73270159D01*
X139296066Y-73281066D01*
X139285159Y-73290952D01*
X139273336Y-73299720D01*
X139260710Y-73307288D01*
X139247403Y-73313582D01*
X139233543Y-73318541D01*
X139219264Y-73322118D01*
X139204703Y-73324278D01*
X139190000Y-73325000D01*
X137540000Y-73325000D01*
X137525297Y-73324278D01*
X137510736Y-73322118D01*
X137496457Y-73318541D01*
X137482597Y-73313582D01*
X137469290Y-73307288D01*
X137456664Y-73299720D01*
X137444841Y-73290952D01*
X137433934Y-73281066D01*
X137424048Y-73270159D01*
X137415280Y-73258336D01*
X137407712Y-73245710D01*
X137401418Y-73232403D01*
X137396459Y-73218543D01*
X137392882Y-73204264D01*
X137390722Y-73189703D01*
X137390000Y-73175000D01*
X137390000Y-72875000D01*
X137390722Y-72860297D01*
X137392882Y-72845736D01*
X137396459Y-72831457D01*
X137401418Y-72817597D01*
X137407712Y-72804290D01*
X137415280Y-72791664D01*
X137424048Y-72779841D01*
X137433934Y-72768934D01*
X137444841Y-72759048D01*
X137456664Y-72750280D01*
X137469290Y-72742712D01*
X137482597Y-72736418D01*
X137496457Y-72731459D01*
X137510736Y-72727882D01*
X137525297Y-72725722D01*
X137540000Y-72725000D01*
X139190000Y-72725000D01*
X139204703Y-72725722D01*
G37*
G36*
X139204703Y-71455722D02*
G01*
X139219264Y-71457882D01*
X139233543Y-71461459D01*
X139247403Y-71466418D01*
X139260710Y-71472712D01*
X139273336Y-71480280D01*
X139285159Y-71489048D01*
X139296066Y-71498934D01*
X139305952Y-71509841D01*
X139314720Y-71521664D01*
X139322288Y-71534290D01*
X139328582Y-71547597D01*
X139333541Y-71561457D01*
X139337118Y-71575736D01*
X139339278Y-71590297D01*
X139340000Y-71605000D01*
X139340000Y-71905000D01*
X139339278Y-71919703D01*
X139337118Y-71934264D01*
X139333541Y-71948543D01*
X139328582Y-71962403D01*
X139322288Y-71975710D01*
X139314720Y-71988336D01*
X139305952Y-72000159D01*
X139296066Y-72011066D01*
X139285159Y-72020952D01*
X139273336Y-72029720D01*
X139260710Y-72037288D01*
X139247403Y-72043582D01*
X139233543Y-72048541D01*
X139219264Y-72052118D01*
X139204703Y-72054278D01*
X139190000Y-72055000D01*
X137540000Y-72055000D01*
X137525297Y-72054278D01*
X137510736Y-72052118D01*
X137496457Y-72048541D01*
X137482597Y-72043582D01*
X137469290Y-72037288D01*
X137456664Y-72029720D01*
X137444841Y-72020952D01*
X137433934Y-72011066D01*
X137424048Y-72000159D01*
X137415280Y-71988336D01*
X137407712Y-71975710D01*
X137401418Y-71962403D01*
X137396459Y-71948543D01*
X137392882Y-71934264D01*
X137390722Y-71919703D01*
X137390000Y-71905000D01*
X137390000Y-71605000D01*
X137390722Y-71590297D01*
X137392882Y-71575736D01*
X137396459Y-71561457D01*
X137401418Y-71547597D01*
X137407712Y-71534290D01*
X137415280Y-71521664D01*
X137424048Y-71509841D01*
X137433934Y-71498934D01*
X137444841Y-71489048D01*
X137456664Y-71480280D01*
X137469290Y-71472712D01*
X137482597Y-71466418D01*
X137496457Y-71461459D01*
X137510736Y-71457882D01*
X137525297Y-71455722D01*
X137540000Y-71455000D01*
X139190000Y-71455000D01*
X139204703Y-71455722D01*
G37*
D17*
X132917800Y-84937600D03*
D18*
X139217800Y-84937600D03*
X139217800Y-82637600D03*
X139217800Y-87237600D03*
M02*
